<svg width="36" height="36" viewBox="0 0 36 36" fill="none" xmlns="http://www.w3.org/2000/svg">
<rect width="36" height="36" rx="18" fill="#634AFF" fill-opacity="0.15"/>
<g clip-path="url(#clip0_240_213)">
<path d="M26.9876 7.20717C26.987 6.65331 26.9049 6.57411 26.3598 6.57471C22.8488 6.57713 19.3373 6.57894 15.8263 6.58197C15.7189 6.58197 15.6108 6.59225 15.4985 6.59769C15.5191 6.87522 15.5553 7.12373 15.5535 7.37223C15.513 13.432 15.5758 19.4923 15.5197 25.5538H20.3508C20.3508 24.9843 20.3533 24.4413 20.3502 23.8983C20.3472 23.3451 20.4613 23.229 21.0203 23.229C22.6605 23.2284 24.3001 23.2272 25.9402 23.2266C26.4534 23.226 26.5952 23.3795 26.588 23.8995C26.5807 24.4322 26.5862 24.9643 26.5862 25.5363C26.9532 25.4928 27.0009 25.2824 27.0003 25.0175C26.9943 19.0805 26.9912 13.1442 26.9876 7.20717ZM21.2914 15.7556C20.1088 15.7471 19.1827 14.816 19.1912 13.643C19.1996 12.473 20.1432 11.5431 21.3155 11.5491C22.4933 11.5558 23.4404 12.522 23.4235 13.6986C23.4066 14.8492 22.4589 15.7635 21.2914 15.7556Z" fill="#4318FF"/>
<path d="M14.5614 23.8609C14.5614 23.9183 14.5541 23.9764 14.5463 24.0846C13.4567 22.9793 10.9218 23.0247 10.0399 24.0858C10.0242 24.0278 10.0024 23.9836 10.0024 23.9395C10.0067 18.4384 10.0193 12.9374 10.0091 7.43577C10.0085 6.88494 10.2373 6.55057 10.6973 6.34922C11.7561 5.88728 12.8258 5.877 13.8841 6.35406C14.3459 6.56206 14.565 6.90005 14.5638 7.44726C14.5505 12.9187 14.5596 18.3895 14.5614 23.8609Z" fill="#4318FF"/>
<path d="M25.611 28.5384C25.6098 28.6811 25.5416 28.9005 25.4426 28.9453C25.3213 28.9997 25.1112 28.9459 24.9796 28.8697C24.5625 28.6278 24.1574 28.3636 23.7608 28.0879C23.5586 27.9464 23.4028 27.9386 23.1945 28.0861C22.7853 28.3775 22.3591 28.6472 21.9299 28.909C21.6033 29.1079 21.3352 28.9689 21.3328 28.5916C21.325 27.1707 21.3316 25.7504 21.334 24.33C21.334 24.3016 21.3497 24.2738 21.3733 24.1934H22.7653C23.6099 24.1934 24.4544 24.1988 25.2995 24.1886C25.5247 24.1861 25.6165 24.2357 25.6147 24.4885C25.6056 25.838 25.6201 27.1882 25.611 28.5384Z" fill="#4318FF"/>
<path d="M14.1083 25.752C13.6568 26.0573 13.0169 26.217 12.2496 26.2811C11.7751 26.1668 11.297 26.0652 10.8286 25.931C10.6614 25.8832 10.5038 25.7707 10.3637 25.6607C9.87477 25.2767 9.86933 24.7731 10.409 24.4641C10.7996 24.2398 11.2523 24.0789 11.6973 24.0052C12.5237 23.8679 13.3423 23.9586 14.083 24.4042C14.7247 24.79 14.7307 25.3306 14.1083 25.752Z" fill="#4318FF"/>
</g>
<defs>
<clipPath id="clip0_240_213">
<rect width="17" height="23" fill="white" transform="translate(10 6)"/>
</clipPath>
</defs>
</svg>
