<svg width="12" height="12" viewBox="0 0 12 12" fill="none" xmlns="http://www.w3.org/2000/svg">
<g clip-path="url(#clip0_178_656)">
<path d="M9.51294 6V9C9.51294 9.276 9.28894 9.5 9.01294 9.5C8.73694 9.5 8.51294 9.276 8.51294 9V6C8.51294 5.724 8.73694 5.5 9.01294 5.5C9.28894 5.5 9.51294 5.724 9.51294 6ZM5.80294 3.3585L7.33844 8.873C7.42594 9.188 7.18944 9.5 6.86194 9.5C6.64044 9.5 6.44644 9.353 6.38594 9.14L6.06444 8H3.46144L3.13994 9.14C3.07994 9.353 2.88544 9.5 2.66394 9.5C2.33694 9.5 2.09994 9.188 2.18744 8.873L3.73294 3.319C3.80344 3.015 4.00344 2.759 4.28194 2.6165C4.56594 2.4705 4.89194 2.4615 5.20144 2.5915C5.49494 2.7145 5.71944 2.9995 5.80294 3.3585ZM5.78244 7L4.81794 3.5825C4.80344 3.5255 4.72244 3.5255 4.70844 3.5825L3.74394 7H5.78244ZM11.5134 5C11.2374 5 11.0134 5.224 11.0134 5.5V9.5C11.0134 10.327 10.3404 11 9.51344 11H2.51294C1.68594 11 1.01294 10.327 1.01294 9.5V2.5C1.01294 1.673 1.68594 1 2.51294 1H6.51294C6.78894 1 7.01294 0.776 7.01294 0.5C7.01294 0.224 6.78894 0 6.51294 0H2.51294C1.13444 0 0.0129395 1.1215 0.0129395 2.5V9.5C0.0129395 10.8785 1.13444 12 2.51294 12H9.51294C10.8914 12 12.0129 10.8785 12.0129 9.5V5.5C12.0129 5.224 11.7894 5 11.5134 5ZM8.08844 2.59L9.02244 2.9835L9.39494 3.916C9.47544 4.118 9.67094 4.25 9.88844 4.25C10.1059 4.25 10.3009 4.1175 10.3819 3.916L10.7524 2.989L11.6794 2.6185C11.8814 2.538 12.0134 2.3425 12.0134 2.125C12.0134 1.9075 11.8809 1.7125 11.6794 1.6315L10.7524 1.261L10.3819 0.334C10.3004 0.1325 10.1049 0 9.88794 0C9.67094 0 9.47544 0.1325 9.39444 0.334L9.02594 1.2555L8.10594 1.604C7.90294 1.681 7.76694 1.874 7.76294 2.091C7.75894 2.3085 7.88844 2.5055 8.08844 2.59Z" fill="#54595C"/>
</g>
<defs>
<clipPath id="clip0_178_656">
<rect width="12" height="12" fill="white"/>
</clipPath>
</defs>
</svg>
