<svg width="16" height="14" viewBox="0 0 16 14" fill="none" xmlns="http://www.w3.org/2000/svg">
<path d="M12.6955 7V10.5C12.6955 10.822 12.4017 11.0833 12.0398 11.0833C11.6778 11.0833 11.384 10.822 11.384 10.5V7C11.384 6.678 11.6778 6.41667 12.0398 6.41667C12.4017 6.41667 12.6955 6.678 12.6955 7ZM7.82987 3.91825L9.84366 10.3518C9.95842 10.7193 9.64825 11.0833 9.21874 11.0833C8.92824 11.0833 8.67381 10.9118 8.59447 10.6633L8.17282 9.33333H4.75901L4.33736 10.6633C4.25867 10.9118 4.00359 11.0833 3.71309 11.0833C3.28424 11.0833 2.97341 10.7193 3.08817 10.3518L5.11508 3.87217C5.20754 3.5175 5.46984 3.21883 5.83509 3.05258C6.20755 2.88225 6.6351 2.87175 7.041 3.02342C7.42593 3.16692 7.72036 3.49942 7.82987 3.91825ZM7.80298 8.16667L6.53805 4.17958C6.51903 4.11308 6.4128 4.11308 6.39444 4.17958L5.12951 8.16667H7.80298ZM15.3191 5.83333C14.9572 5.83333 14.6634 6.09467 14.6634 6.41667V11.0833C14.6634 12.0482 13.7808 12.8333 12.6962 12.8333H3.51506C2.43045 12.8333 1.54782 12.0482 1.54782 11.0833V2.91667C1.54782 1.95183 2.43045 1.16667 3.51506 1.16667H8.76103C9.123 1.16667 9.41677 0.905333 9.41677 0.583333C9.41677 0.261333 9.123 0 8.76103 0H3.51506C1.70717 0 0.236328 1.30842 0.236328 2.91667V11.0833C0.236328 12.6916 1.70717 14 3.51506 14H12.6955C14.5034 14 15.9742 12.6916 15.9742 11.0833V6.41667C15.9742 6.09467 15.6811 5.83333 15.3191 5.83333ZM10.8273 3.02167L12.0522 3.48075L12.5407 4.56867C12.6463 4.80433 12.9027 4.95833 13.188 4.95833C13.4732 4.95833 13.729 4.80375 13.8352 4.56867L14.3211 3.48717L15.5369 3.05492C15.8018 2.961 15.9749 2.73292 15.9749 2.47917C15.9749 2.22542 15.8011 1.99792 15.5369 1.90342L14.3211 1.47117L13.8352 0.389667C13.7283 0.154583 13.4719 0 13.1873 0C12.9027 0 12.6463 0.154583 12.5401 0.389667L12.0568 1.46475L10.8502 1.87133C10.584 1.96117 10.4056 2.18633 10.4004 2.4395C10.3951 2.69325 10.565 2.92308 10.8273 3.02167Z" fill="#60A8FF"/>
</svg>
