<svg width="27" height="27" viewBox="0 0 27 27" fill="none" xmlns="http://www.w3.org/2000/svg">
<path d="M0 4C0 1.79086 1.79086 0 4 0H23C25.2091 0 27 1.79086 27 4V23C27 25.2091 25.2091 27 23 27H4C1.79086 27 0 25.2091 0 23V4Z" fill="#4318FF"/>
<path d="M24.589 12.9748C23.4784 11.1745 22.1779 9.62661 20.6141 8.44274C17.5714 6.14073 14.3094 5.43809 10.83 6.45266C8.93198 7.00584 7.23128 8.07685 5.69895 9.5677C4.69821 10.5426 3.83087 11.6781 3.05396 12.9246C2.98252 13.0393 2.98202 13.1088 3.05246 13.2229C3.93279 14.6511 4.95052 15.9032 6.13711 16.9376C8.44485 18.95 11.0089 19.9733 13.1842 19.9999C15.5679 19.9999 17.2381 19.5733 18.8414 18.7522C21.1726 17.5584 23.0682 15.6651 24.5895 13.1807C24.6375 13.1032 24.637 13.053 24.589 12.9748ZM22.7809 13.1863C21.1027 15.5063 19.0573 17.0747 16.6166 17.8337C15.6693 18.1283 14.82 18.2499 13.8168 18.2517C11.5925 18.2511 9.53602 17.5125 7.63547 16.0861C6.58777 15.2998 5.66247 14.3317 4.84859 13.1975C4.77715 13.0982 4.78314 13.0412 4.85059 12.9438C5.99272 11.3103 7.34619 10.0198 8.92149 9.09452C10.6836 8.05948 12.5397 7.59375 14.4882 7.74258C16.8714 7.92429 18.9943 8.96615 20.8879 10.7572C21.5798 11.412 22.2049 12.1544 22.7789 12.9649C22.8379 13.0474 22.8424 13.1007 22.7809 13.1863Z" fill="white"/>
<path d="M13.8011 8.72876C11.8811 8.75543 10.3772 10.6587 10.3887 12.983C10.3887 15.3433 11.9151 17.2571 13.7976 17.2578C15.7007 17.2584 17.2325 15.3539 17.233 12.9861C17.234 10.6308 15.6932 8.70334 13.8011 8.72876ZM15.1256 11.4593C14.7859 11.4599 14.5176 11.1319 14.5151 10.7139C14.5126 10.3046 14.7879 9.96163 15.1216 9.95791C15.4634 9.95481 15.7242 10.2779 15.7252 10.7058C15.7262 11.1331 15.4674 11.4581 15.1256 11.4593ZM16.1438 12.3337C15.965 12.3368 15.8246 12.1663 15.8261 11.9474C15.8271 11.7334 15.9625 11.566 16.1354 11.5641C16.3182 11.5623 16.4501 11.7229 16.4516 11.9505C16.4536 12.1632 16.3187 12.3306 16.1438 12.3337Z" fill="white"/>
</svg>
