<svg width="1440" height="329" viewBox="0 0 1440 329" fill="none" xmlns="http://www.w3.org/2000/svg">
<path d="M1401.38 106.589C1412.8 97.0098 1429.88 130.508 1438.88 150.169L1440 236.579C1263.77 366.569 1162.52 317.729 1054.16 285.795C975.873 262.725 896.672 240.712 866.675 233.198C792.056 211.032 699.439 241.463 631.945 266.259C528.454 308.337 455.71 283.541 346.595 262.502L232.23 240.712C87.8673 217.043 18.4983 309.088 -1 329V144.534C33.122 123.495 76.9932 96.4452 130.614 127.252C173.51 151.898 234.73 139.024 259.977 129.506C396.841 78.4119 421.213 121.992 455.71 154.302C461.835 161.065 476.634 176.543 486.833 184.358C529.954 214.789 546.828 200.137 569.701 176.844C592.574 153.551 603.823 134.766 620.696 120.865C637.57 106.965 645.444 96.8209 669.067 94.5667C692.69 92.3126 699.439 87.4285 756.809 42.7209C848.001 -25.5052 927.045 3.02253 955.167 25.8147C989.664 44.5994 1061.66 122.081 1089.78 145.285C1110.18 162.117 1128.78 164.822 1135.53 164.07C1161.77 159.186 1177.15 158.435 1220.27 191.872C1254.77 218.621 1283.39 222.553 1293.39 220.8C1357.88 195.253 1385.25 120.114 1401.38 106.589Z" fill="url(#paint0_linear_594_2991)" style="mix-blend-mode:multiply"/>
<defs>
<linearGradient id="paint0_linear_594_2991" x1="719.5" y1="0" x2="719.5" y2="329" gradientUnits="userSpaceOnUse">
<stop stop-color="#38287B"/>
<stop offset="1" stop-color="#38287B" stop-opacity="0"/>
</linearGradient>
</defs>
</svg>
