<svg width="406" height="421" viewBox="0 0 406 421" fill="none" xmlns="http://www.w3.org/2000/svg">
<rect x="0.5" y="0.5" width="405" height="420" rx="12.5" fill="#4318FF" stroke="white"/>
<path d="M116.725 153.599C116.725 135.616 130.784 121.038 148.126 121.038H252.798C270.141 121.038 284.2 135.616 284.2 153.599V262.138C284.2 280.122 270.141 294.7 252.798 294.7H148.126C130.784 294.7 116.725 280.122 116.725 262.138V153.599Z" fill="#4318FF"/>
<path d="M179.528 169.88C179.528 178.872 172.498 186.161 163.827 186.161C155.156 186.161 148.126 178.872 148.126 169.88C148.126 160.889 155.156 153.599 163.827 153.599C172.498 153.599 179.528 160.889 179.528 169.88Z" fill="#4318FF"/>
<path d="M126.472 277.725C126.089 278.123 126.1 278.756 126.498 279.139C126.895 279.522 127.528 279.511 127.912 279.113L126.472 277.725ZM169.061 235.004L169.78 234.309C169.592 234.114 169.332 234.004 169.061 234.004C168.789 234.004 168.529 234.114 168.341 234.309L169.061 235.004ZM189.995 256.711L189.275 257.406C189.464 257.601 189.723 257.711 189.995 257.711C190.266 257.711 190.526 257.601 190.715 257.406L189.995 256.711ZM237.097 207.869L237.817 207.175C237.629 206.979 237.369 206.869 237.097 206.869C236.826 206.869 236.566 206.979 236.377 207.175L237.097 207.869ZM278.246 251.979C278.63 252.376 279.263 252.388 279.66 252.004C280.058 251.621 280.069 250.988 279.686 250.59L278.246 251.979ZM127.912 279.113L169.78 235.698L168.341 234.309L126.472 277.725L127.912 279.113ZM168.341 235.698L189.275 257.406L190.715 256.017L169.78 234.309L168.341 235.698ZM190.715 257.406L237.817 208.563L236.377 207.175L189.275 256.017L190.715 257.406ZM236.377 208.563L278.246 251.979L279.686 250.59L237.817 207.175L236.377 208.563ZM148.126 122.038H252.798V120.038H148.126V122.038ZM283.2 153.599V262.138H285.2V153.599H283.2ZM252.798 293.7H148.126V295.7H252.798V293.7ZM117.725 262.138V153.599H115.725V262.138H117.725ZM148.126 293.7C131.37 293.7 117.725 279.604 117.725 262.138H115.725C115.725 280.639 130.197 295.7 148.126 295.7V293.7ZM283.2 262.138C283.2 279.604 269.554 293.7 252.798 293.7V295.7C270.727 295.7 285.2 280.639 285.2 262.138H283.2ZM252.798 122.038C269.554 122.038 283.2 136.134 283.2 153.599H285.2C285.2 135.098 270.727 120.038 252.798 120.038V122.038ZM148.126 120.038C130.197 120.038 115.725 135.098 115.725 153.599H117.725C117.725 136.134 131.37 122.038 148.126 122.038V120.038ZM178.528 169.88C178.528 178.354 171.912 185.161 163.827 185.161V187.161C173.084 187.161 180.528 179.39 180.528 169.88H178.528ZM163.827 185.161C155.742 185.161 149.126 178.354 149.126 169.88H147.126C147.126 179.39 154.569 187.161 163.827 187.161V185.161ZM149.126 169.88C149.126 161.406 155.742 154.599 163.827 154.599V152.599C154.569 152.599 147.126 160.371 147.126 169.88H149.126ZM163.827 154.599C171.912 154.599 178.528 161.406 178.528 169.88H180.528C180.528 160.371 173.084 152.599 163.827 152.599V154.599Z" fill="white"/>
</svg>
