<svg width="16" height="17" viewBox="0 0 16 17" fill="none" xmlns="http://www.w3.org/2000/svg">
<path d="M3.62256 8.82031C3.62256 9.32552 3.70068 9.80729 3.85693 10.2656L1.21631 12.3047C0.67985 11.2266 0.411621 10.0651 0.411621 8.82031C0.411621 7.5651 0.67985 6.40365 1.21631 5.33594L3.86475 7.35938C3.70329 7.82292 3.62256 8.3099 3.62256 8.82031ZM8.271 4.17188C6.2085 4.17188 4.73975 5.23438 3.86475 7.35938L1.21631 5.33594C2.81527 2.41927 5.16683 0.960938 8.271 0.960938C10.2762 0.960938 12.0054 1.61458 13.4585 2.92188L11.1616 5.21094C10.3439 4.51823 9.38037 4.17188 8.271 4.17188ZM8.271 13.4688C9.2762 13.4688 10.146 13.237 10.8804 12.7734L13.3882 14.7188C11.8986 16.026 10.1929 16.6797 8.271 16.6797C5.16683 16.6797 2.81527 15.2214 1.21631 12.3047L3.86475 10.2812C4.73975 12.4062 6.2085 13.4688 8.271 13.4688ZM3.85693 10.2656C3.85693 10.2656 3.85954 10.2656 3.86475 10.2656C3.86475 10.276 3.86475 10.2812 3.86475 10.2812L1.21631 12.3047L3.85693 10.2656ZM15.5913 7.38281C15.7111 7.8724 15.771 8.35156 15.771 8.82031C15.771 11.3828 14.9767 13.349 13.3882 14.7188L10.8804 12.7734C11.7189 12.2474 12.2528 11.4635 12.4819 10.4219H8.271V7.38281H15.5913Z" fill="#11181C" fill-opacity="0.38"/>
</svg>
