<svg width="126" height="126" viewBox="0 0 126 126" fill="none" xmlns="http://www.w3.org/2000/svg">
<g filter="url(#filter0_d_273_798)">
<rect x="38.3601" y="20.3599" width="48.96" height="48.96" rx="12.24" fill="#4318FF"/>
<path d="M77.987 53.6036C77.9366 53.1425 77.7286 52.7072 77.4005 52.3753L72.797 47.7718C72.7815 47.5832 72.7518 47.3959 72.7105 47.2099C72.5555 46.5292 72.8681 45.8046 73.4868 45.4054C74.0655 45.0309 74.5369 44.5219 74.8857 43.8916C75.215 43.2974 75.3868 42.6129 75.3843 41.9179C75.3868 41.2179 75.215 40.5333 74.8857 39.9391C74.5356 39.3088 74.0655 38.7999 73.4855 38.4253C72.8668 38.0261 72.5555 37.3015 72.7092 36.6221C72.8668 35.9349 72.8435 35.2258 72.6395 34.5167C72.2571 33.1863 71.1941 32.1245 69.8663 31.7448C69.1597 31.542 68.4519 31.5174 67.7634 31.6737C67.0879 31.83 66.3594 31.5174 65.9603 30.8987C65.5857 30.3201 65.0768 29.8499 64.4477 29.4999C63.2374 28.8295 61.7352 28.8295 60.5249 29.4999C59.8946 29.8499 59.3857 30.3214 59.0124 30.9C58.6133 31.5187 57.886 31.8313 57.2092 31.675C56.5208 31.5187 55.8129 31.5433 55.1064 31.7461C53.7773 32.1271 52.7142 33.1889 52.3332 34.5193C52.1304 35.2271 52.1058 35.9349 52.2621 36.6234C52.4171 37.3028 52.1058 38.0274 51.4871 38.4266C50.9072 38.8011 50.4357 39.3114 50.0883 39.9391C49.7589 40.5333 49.5871 41.2179 49.5897 41.9141C49.5871 42.6154 49.7589 43.3 50.0883 43.8929C50.437 44.5219 50.9072 45.0321 51.4884 45.4067C52.1071 45.8059 52.4184 46.5305 52.2634 47.2099C52.2195 47.4036 52.1911 47.5987 52.1756 47.795L47.6005 52.3779C47.2737 52.7072 47.0658 53.1425 47.0154 53.6036C46.8914 54.7313 47.7077 55.7491 48.8353 55.8744L50.8994 56.103L51.1268 58.1477C51.172 58.6166 51.3825 59.0596 51.7183 59.3955C51.9353 59.6125 52.204 59.7817 52.4882 59.8799C52.7142 59.9599 52.948 60 53.1805 60C53.7191 60 54.2474 59.7881 54.6298 59.3968L60.0173 54.0015C60.1775 54.1216 60.348 54.2314 60.5288 54.3321C61.1333 54.6667 61.8114 54.8346 62.4895 54.8346C63.1677 54.8346 63.8458 54.6667 64.4516 54.3309C64.6363 54.2275 64.812 54.1139 64.976 53.9911L70.3752 59.3903C70.7614 59.7869 71.291 60 71.8309 60C72.0608 60 72.292 59.9612 72.5155 59.8811C72.8048 59.7804 73.0735 59.6125 73.2918 59.3942C73.6263 59.0584 73.8368 58.6153 73.882 58.1555L74.1094 56.1017L76.1735 55.8731C77.3011 55.7478 78.1161 54.73 77.9934 53.6036H77.987ZM53.7049 58.4887C53.5047 58.6954 53.1947 58.7613 52.9131 58.6618C52.8059 58.6244 52.7078 58.5624 52.6277 58.4823C52.5024 58.357 52.4249 58.1929 52.4081 58.0121L52.0658 54.9315L48.9748 54.5879C48.555 54.5414 48.2502 54.1616 48.2967 53.7419C48.3161 53.5701 48.3923 53.4073 48.5124 53.2872L52.3655 49.4277C52.7736 50.7038 53.8121 51.7152 55.1038 52.0846C55.8116 52.2874 56.5208 52.312 57.2066 52.1557C57.8848 52.0033 58.6107 52.3133 59.0098 52.9307C59.0421 52.9798 59.0744 53.0276 59.108 53.0754L53.7036 58.4874L53.7049 58.4887ZM63.82 53.2019C63.0088 53.6527 61.96 53.6527 61.1501 53.2019C60.707 52.9578 60.3531 52.631 60.0961 52.2319C59.5252 51.3458 58.5564 50.8266 57.5554 50.8266C57.3435 50.8266 57.1317 50.8498 56.9212 50.8976C56.4484 51.0048 55.9563 50.988 55.4603 50.8446C54.569 50.5902 53.8289 49.8488 53.5732 48.9588C53.4311 48.4615 53.413 47.9694 53.5202 47.4966C53.794 46.2889 53.258 45.0141 52.1859 44.3217C51.7855 44.0634 51.46 43.7082 51.2159 43.2664C50.9937 42.866 50.8775 42.3997 50.8788 41.9141C50.8775 41.4323 50.9924 40.9673 51.2159 40.5656C51.46 40.1238 51.7868 39.7699 52.1859 39.5116C53.2593 38.8192 53.7953 37.5444 53.5202 36.3366C53.413 35.8639 53.4311 35.3718 53.5732 34.8745C53.8289 33.9832 54.569 33.2431 55.4603 32.9874C55.9576 32.8466 56.4497 32.8272 56.9212 32.9344C58.1276 33.2095 59.405 32.6735 60.0961 31.6001C60.3531 31.201 60.707 30.8742 61.1488 30.6301C61.96 30.1793 63.0075 30.1806 63.8187 30.6301C64.2604 30.8755 64.6156 31.2023 64.8727 31.6001C65.5637 32.6735 66.8386 33.2056 68.0476 32.9344C68.5203 32.8272 69.0125 32.8453 69.5085 32.9874C70.3997 33.2418 71.1411 33.9832 71.3969 34.8732C71.539 35.3705 71.557 35.8626 71.4485 36.3354C71.1747 37.5431 71.712 38.8179 72.7828 39.5103C73.182 39.7686 73.5088 40.1225 73.7529 40.5656C73.975 40.9673 74.0913 41.4336 74.09 41.9179C74.0913 42.3984 73.9763 42.8647 73.7529 43.2651C73.5088 43.7082 73.182 44.0621 72.7828 44.3204C71.7108 45.0115 71.1734 46.2876 71.4485 47.4954C71.5558 47.9681 71.539 48.4602 71.3956 48.9562C71.1398 49.8475 70.3984 50.5889 69.5072 50.8434C69.0112 50.9854 68.519 51.0022 68.0463 50.8963C66.8373 50.6251 65.5624 51.1585 64.8714 52.2306C64.613 52.6297 64.2591 52.9565 63.8174 53.2006L63.82 53.2019ZM76.0249 54.5892L72.934 54.9328L72.5904 58.0211C72.5736 58.1942 72.4961 58.3583 72.3721 58.4823C72.292 58.5624 72.1925 58.6244 72.0802 58.6644C71.8025 58.7613 71.4938 58.6928 71.2884 58.4836L65.8698 53.065C65.9008 53.0211 65.9305 52.9772 65.959 52.9333C66.3594 52.3159 67.0879 52.0046 67.7621 52.1583C68.4493 52.3133 69.1571 52.2913 69.865 52.0872C71.1618 51.7165 72.2042 50.6961 72.6098 49.4109L76.4848 53.2859C76.6062 53.4086 76.6837 53.5714 76.7018 53.7431C76.7483 54.1629 76.4434 54.5414 76.0236 54.5879L76.0249 54.5892ZM67.6523 41.9011C67.6523 39.0517 65.3351 36.7345 62.4857 36.7345C59.6363 36.7345 57.319 39.0517 57.319 41.9011C57.319 44.7506 59.6363 47.0678 62.4857 47.0678C65.3351 47.0678 67.6523 44.7506 67.6523 41.9011ZM62.4857 45.7761C60.3493 45.7761 58.6107 44.0376 58.6107 41.9011C58.6107 39.7647 60.3493 38.0261 62.4857 38.0261C64.6221 38.0261 66.3607 39.7647 66.3607 41.9011C66.3607 44.0376 64.6221 45.7761 62.4857 45.7761Z" fill="white"/>
</g>
<defs>
<filter id="filter0_d_273_798" x="0.110107" y="0.469864" width="125.46" height="125.46" filterUnits="userSpaceOnUse" color-interpolation-filters="sRGB">
<feFlood flood-opacity="0" result="BackgroundImageFix"/>
<feColorMatrix in="SourceAlpha" type="matrix" values="0 0 0 0 0 0 0 0 0 0 0 0 0 0 0 0 0 0 127 0" result="hardAlpha"/>
<feOffset dy="18.36"/>
<feGaussianBlur stdDeviation="19.125"/>
<feComposite in2="hardAlpha" operator="out"/>
<feColorMatrix type="matrix" values="0 0 0 0 0.0509804 0 0 0 0 0.0470588 0 0 0 0 0.219608 0 0 0 0.15 0"/>
<feBlend mode="normal" in2="BackgroundImageFix" result="effect1_dropShadow_273_798"/>
<feBlend mode="normal" in="SourceGraphic" in2="effect1_dropShadow_273_798" result="shape"/>
</filter>
</defs>
</svg>
