<svg width="60" height="59" viewBox="0 0 60 59" fill="none" xmlns="http://www.w3.org/2000/svg">
<path d="M30.4351 29.748V28.748C29.8828 28.748 29.4351 29.1958 29.4351 29.748H30.4351ZM30.6874 29.748H31.6874C31.6874 29.1958 31.2397 28.748 30.6874 28.748V29.748ZM30.6874 29.9723V30.9723C31.2397 30.9723 31.6874 30.5245 31.6874 29.9723H30.6874ZM30.4351 29.9723H29.4351C29.4351 30.5245 29.8828 30.9723 30.4351 30.9723V29.9723ZM57.9351 29.748C57.9351 44.6431 45.6396 56.748 30.4351 56.748V58.748C46.7107 58.748 59.9351 45.7809 59.9351 29.748H57.9351ZM30.4351 56.748C15.2305 56.748 2.93506 44.6431 2.93506 29.748H0.935059C0.935059 45.7809 14.1594 58.748 30.4351 58.748V56.748ZM2.93506 29.748C2.93506 14.853 15.2305 2.74805 30.4351 2.74805V0.748047C14.1594 0.748047 0.935059 13.7152 0.935059 29.748H2.93506ZM30.4351 2.74805C45.6396 2.74805 57.9351 14.853 57.9351 29.748H59.9351C59.9351 13.7152 46.7107 0.748047 30.4351 0.748047V2.74805ZM43.6851 29.748C43.6851 36.9111 37.7696 42.748 30.4351 42.748V44.748C38.8406 44.748 45.6851 38.0489 45.6851 29.748H43.6851ZM30.4351 42.748C23.1005 42.748 17.1851 36.9111 17.1851 29.748H15.1851C15.1851 38.0489 22.0295 44.748 30.4351 44.748V42.748ZM17.1851 29.748C17.1851 22.585 23.1005 16.748 30.4351 16.748V14.748C22.0295 14.748 15.1851 21.4472 15.1851 29.748H17.1851ZM30.4351 16.748C37.7696 16.748 43.6851 22.585 43.6851 29.748H45.6851C45.6851 21.4472 38.8406 14.748 30.4351 14.748V16.748ZM30.4351 30.748H30.6874V28.748H30.4351V30.748ZM29.6874 29.748V29.9723H31.6874V29.748H29.6874ZM30.6874 28.9723H30.4351V30.9723H30.6874V28.9723ZM31.4351 29.9723V29.748H29.4351V29.9723H31.4351Z" fill="#4318FF"/>
</svg>
