<svg width="558" height="400" viewBox="0 0 558 400" fill="none" xmlns="http://www.w3.org/2000/svg">
<g opacity="0.67">
<path d="M278.49 386.363L535 238.053L278.49 89.7417L22 238.053L278.49 386.363Z" fill="#2D03E7"/>
<path d="M278.989 399.422L557.002 238.5L278.989 77.5777L0.997986 238.5L278.989 399.422Z" stroke="white"/>
</g>
<g opacity="0.67">
<path d="M278.491 363.372L495.224 238.052L278.491 112.754L61.7783 238.052L278.491 363.372Z" fill="#2D03E7"/>
</g>
<g opacity="0.9">
<path d="M278.491 336.647L448.995 238.053L278.491 139.479L108.008 238.053L278.491 336.647Z" fill="#3411D1"/>
</g>
<path d="M361.186 76.7776L427.586 38.3888L361.186 0L294.806 38.3888L361.186 76.7776Z" fill="#BCBEFF"/>
<path d="M361.186 224.124L427.586 185.735L361.186 147.346L294.806 185.735L361.186 224.124Z" fill="white"/>
<path d="M294.806 38.3892V185.735L361.186 224.124V76.778L294.806 38.3892Z" fill="url(#paint0_linear_582_10298)"/>
<path d="M427.586 38.3892V185.735L361.186 224.124V76.778L427.586 38.3892Z" fill="#4318FF"/>
<g opacity="0.51">
<path d="M423.083 48.1641V180.616L365.69 213.802V81.3505L423.083 48.1641Z" fill="#453C9E"/>
</g>
<path d="M304.756 73.9878V77.8896L351.236 104.762V100.86L304.756 73.9878Z" fill="#453C9E"/>
<path d="M304.756 90.4546V94.3564L351.236 121.229V117.327L304.756 90.4546Z" fill="#453C9E"/>
<path d="M304.756 106.922V110.824L351.236 137.696V133.794L304.756 106.922Z" fill="#453C9E"/>
<path d="M304.756 123.39V127.291L351.236 154.164V150.262L304.756 123.39Z" fill="#453C9E"/>
<path d="M304.756 139.857V143.759L351.236 170.631V166.729L304.756 139.857Z" fill="#453C9E"/>
<path d="M304.756 156.324V160.226L351.236 187.098V183.196L304.756 156.324Z" fill="#453C9E"/>
<path opacity="0.78" d="M361.186 66.6878H378.634L427.586 38.3892L374.319 7.59424H361.186V66.6878Z" fill="url(#paint1_linear_582_10298)"/>
<path d="M361.185 63.31L409.362 35.4519L361.185 7.59375L313.009 35.4519L361.185 63.31Z" fill="url(#paint2_linear_582_10298)"/>
<path d="M313.009 35.4517V38.829L361.186 66.6871V63.3098L313.009 35.4517Z" fill="url(#paint3_linear_582_10298)"/>
<path d="M409.362 35.4517V38.829L361.185 66.6871V63.3098L409.362 35.4517Z" fill="url(#paint4_linear_582_10298)"/>
<path d="M379.872 35.8931L382.009 34.6554L381.82 33.6695L362.047 22.1318L359.282 23.4324L359.806 24.2925L379.872 35.8931Z" fill="#4318FF"/>
<path d="M361.941 23.0548L359.804 24.2924L358.422 23.4953L361.941 21.4814L383.369 33.8791L382.008 34.6553L361.941 23.0548Z" fill="url(#paint5_linear_582_10298)"/>
<path d="M373.4 39.6265L375.536 38.3888L375.348 37.4029L355.553 25.8652L352.809 27.1658L353.333 28.0259L373.4 39.6265Z" fill="#4318FF"/>
<path d="M355.447 26.7886L353.332 28.0263L351.949 27.2292L355.447 25.1943L376.896 37.592L375.514 38.3892L355.447 26.7886Z" fill="url(#paint6_linear_582_10298)"/>
<path d="M366.926 43.3604L369.062 42.1227L368.874 41.1158L349.08 29.5991L346.336 30.8997L346.859 31.7598L366.926 43.3604Z" fill="#4318FF"/>
<path d="M348.974 30.5225L346.858 31.7602L345.476 30.963L348.974 28.9282L370.423 41.3259L369.04 42.1231L348.974 30.5225Z" fill="url(#paint7_linear_582_10298)"/>
<path d="M360.431 47.0942L362.567 45.8566L362.4 44.8496L342.605 33.333L339.861 34.6336L340.364 35.4937L360.431 47.0942Z" fill="#4318FF"/>
<path d="M342.501 34.2564L340.364 35.4941L339.003 34.6969L342.501 32.6621L363.95 45.0598L362.568 45.8569L342.501 34.2564Z" fill="url(#paint8_linear_582_10298)"/>
<g opacity="0.51">
<path d="M427.585 162.45L361.185 122.32V76.7775L427.585 38.3887V162.45Z" fill="#453C9E"/>
</g>
<path d="M363.825 83.4065C363.825 81.7283 364.998 79.6725 366.464 78.8334C367.198 78.4139 367.868 78.3719 368.35 78.6446L370.214 79.7354L369.062 79.7774C369.104 79.9452 369.104 80.134 369.104 80.3438C369.104 82.022 367.931 84.0778 366.464 84.9169C366.276 85.0218 366.087 85.1057 365.899 85.1686L366.444 86.1755L364.621 85.1057C364.118 84.8539 363.825 84.2456 363.825 83.4065Z" fill="url(#paint9_linear_582_10298)"/>
<path d="M365.689 84.5184C365.689 86.1966 366.862 86.8889 368.328 86.0498C369.795 85.2107 370.968 83.1549 370.968 81.4767C370.968 79.7985 369.795 79.1062 368.328 79.9453C366.883 80.7635 365.689 82.8193 365.689 84.5184Z" fill="url(#paint10_linear_582_10298)"/>
<path d="M366.82 83.8683C366.82 84.8333 367.49 85.2319 368.349 84.7494C369.187 84.2669 369.878 83.0922 369.878 82.1062C369.878 81.1413 369.208 80.7427 368.349 81.2252C367.49 81.7076 366.82 82.8824 366.82 83.8683Z" fill="#4318FF"/>
<path d="M419.501 49.1506C419.501 47.4724 420.674 45.4166 422.14 44.5775C422.873 44.158 423.544 44.116 424.025 44.3888L425.89 45.4796L424.738 45.5215C424.779 45.6894 424.779 45.8782 424.779 46.0879C424.779 47.7661 423.606 49.8219 422.14 50.661C421.952 50.7659 421.763 50.8498 421.575 50.9127L422.119 51.9197L420.297 50.8498C419.794 50.5771 419.501 49.9897 419.501 49.1506Z" fill="url(#paint11_linear_582_10298)"/>
<path d="M421.388 50.2416C421.388 51.9198 422.56 52.612 424.027 51.7729C425.493 50.9338 426.666 48.878 426.666 47.1998C426.666 45.5216 425.493 44.8294 424.027 45.6685C422.56 46.5076 421.388 48.5634 421.388 50.2416Z" fill="url(#paint12_linear_582_10298)"/>
<path d="M422.497 49.591C422.497 50.556 423.168 50.9545 424.027 50.472C424.864 49.9896 425.556 48.8148 425.556 47.8289C425.556 46.8639 424.885 46.4653 424.027 46.9478C423.189 47.4513 422.497 48.626 422.497 49.591Z" fill="#4318FF"/>
<path d="M363.825 215.376C363.825 213.698 364.998 211.642 366.464 210.803C367.198 210.383 367.868 210.341 368.35 210.614L370.214 211.705L369.062 211.747C369.104 211.914 369.104 212.103 369.104 212.313C369.104 213.991 367.931 216.047 366.464 216.886C366.276 216.991 366.087 217.075 365.899 217.138L366.444 218.145L364.621 217.075C364.118 216.802 363.825 216.215 363.825 215.376Z" fill="url(#paint13_linear_582_10298)"/>
<path d="M365.689 216.467C365.689 218.145 366.862 218.837 368.328 217.998C369.795 217.159 370.968 215.103 370.968 213.425C370.968 211.747 369.795 211.054 368.328 211.894C366.883 212.733 365.689 214.788 365.689 216.467Z" fill="url(#paint14_linear_582_10298)"/>
<path d="M366.82 215.816C366.82 216.781 367.49 217.18 368.349 216.697C369.187 216.215 369.878 215.04 369.878 214.054C369.878 213.089 369.208 212.69 368.349 213.173C367.49 213.676 366.82 214.851 366.82 215.816Z" fill="#4318FF"/>
<path d="M419.501 181.098C419.501 179.42 420.674 177.364 422.14 176.525C422.873 176.106 423.544 176.064 424.025 176.337L425.89 177.427L424.738 177.469C424.779 177.637 424.779 177.826 424.779 178.036C424.779 179.714 423.606 181.77 422.14 182.609C421.952 182.714 421.763 182.798 421.575 182.86L422.119 183.867L420.297 182.798C419.794 182.546 419.501 181.958 419.501 181.098Z" fill="url(#paint15_linear_582_10298)"/>
<path d="M421.388 182.21C421.388 183.889 422.56 184.581 424.027 183.742C425.493 182.903 426.666 180.847 426.666 179.169C426.666 177.49 425.493 176.798 424.027 177.637C422.56 178.476 421.388 180.532 421.388 182.21Z" fill="url(#paint16_linear_582_10298)"/>
<path d="M422.497 181.56C422.497 182.525 423.168 182.924 424.027 182.441C424.864 181.959 425.556 180.784 425.556 179.798C425.556 178.833 424.885 178.435 424.027 178.917C423.189 179.421 422.497 180.595 422.497 181.56Z" fill="#4318FF"/>
<path d="M276.417 98.3845L342.817 59.9957L276.417 21.6069L210.038 59.9957L276.417 98.3845Z" fill="#BCBEFF"/>
<path d="M276.416 279.105C277.338 279.105 278.239 278.875 279.077 278.392L351.698 236.395C352.515 235.913 353.018 235.074 353.018 234.109C353.018 233.165 352.536 232.305 351.698 231.822L279.077 189.825C277.443 188.881 275.411 188.881 273.777 189.825L201.156 231.822C200.339 232.305 199.836 233.144 199.836 234.109C199.836 235.053 200.318 235.913 201.156 236.395L273.777 278.392C274.594 278.854 275.495 279.105 276.416 279.105ZM276.416 191.063C277.003 191.063 277.589 191.21 278.113 191.524L350.734 233.521C351.049 233.71 351.091 234.004 351.091 234.13C351.091 234.255 351.049 234.549 350.734 234.738L278.113 276.735C277.066 277.343 275.767 277.343 274.741 276.735L202.119 234.738C201.805 234.549 201.763 234.255 201.763 234.13C201.763 234.004 201.805 233.71 202.119 233.521L274.741 191.503C275.264 191.21 275.83 191.063 276.416 191.063Z" fill="url(#paint17_linear_582_10298)"/>
<g opacity="0.67">
<path d="M276.415 266.645L332.678 234.109L276.415 201.594L220.174 234.109L276.415 266.645Z" fill="#4318FF"/>
</g>
<path d="M276.417 245.731L342.817 207.342L276.417 168.953L210.038 207.342L276.417 245.731Z" fill="white"/>
<path d="M210.036 59.9961V207.342L276.415 245.731V98.3849L210.036 59.9961Z" fill="url(#paint18_linear_582_10298)"/>
<path d="M342.817 59.9961V207.342L276.417 245.731V98.3849L342.817 59.9961Z" fill="#4318FF"/>
<g opacity="0.51">
<path d="M338.312 69.771V202.223L280.919 235.409V102.957L338.312 69.771Z" fill="#453C9E"/>
</g>
<path d="M219.986 95.5947V99.4965L266.466 126.369V122.467L219.986 95.5947Z" fill="#453C9E"/>
<path d="M219.986 112.062V115.963L266.466 142.836V138.934L219.986 112.062Z" fill="#453C9E"/>
<path d="M219.986 128.529V132.431L266.466 159.303V155.401L219.986 128.529Z" fill="#453C9E"/>
<path d="M219.986 144.997V148.898L266.466 175.771V171.869L219.986 144.997Z" fill="#453C9E"/>
<path d="M219.986 161.464V165.366L266.466 192.238V188.336L219.986 161.464Z" fill="#453C9E"/>
<path d="M219.986 177.931V181.833L266.466 208.705V204.803L219.986 177.931Z" fill="#453C9E"/>
<path opacity="0.78" d="M276.417 88.2948H293.865L342.817 59.9961L289.551 29.2012H276.417V88.2948Z" fill="url(#paint19_linear_582_10298)"/>
<path d="M276.415 84.9169L324.592 57.0588L276.415 29.2007L228.238 57.0588L276.415 84.9169Z" fill="url(#paint20_linear_582_10298)"/>
<path d="M228.238 57.0586V60.436L276.415 88.2941V84.9167L228.238 57.0586Z" fill="url(#paint21_linear_582_10298)"/>
<path d="M324.592 57.0586V60.436L276.415 88.2941V84.9167L324.592 57.0586Z" fill="url(#paint22_linear_582_10298)"/>
<path d="M295.1 57.5L297.236 56.2623L297.069 55.2764L277.274 43.7388L274.53 45.0394L275.033 45.8994L295.1 57.5Z" fill="#4318FF"/>
<path d="M277.17 44.6617L275.034 45.8994L273.651 45.1022L277.17 43.0884L298.599 55.4861L297.237 56.2622L277.17 44.6617Z" fill="url(#paint23_linear_582_10298)"/>
<path d="M288.629 61.2339L290.766 59.9962L290.577 59.0103L270.804 47.4727L268.039 48.7733L268.562 49.6333L288.629 61.2339Z" fill="#4318FF"/>
<path d="M270.698 48.3956L268.561 49.6332L267.179 48.8361L270.698 46.8013L292.126 59.199L290.764 59.9961L270.698 48.3956Z" fill="url(#paint24_linear_582_10298)"/>
<path d="M282.155 64.9678L284.292 63.7301L284.103 62.7232L264.33 51.2065L261.565 52.5071L262.089 53.3672L282.155 64.9678Z" fill="#4318FF"/>
<path d="M264.203 52.1294L262.088 53.3671L260.705 52.57L264.203 50.5352L285.652 62.9329L284.291 63.73L264.203 52.1294Z" fill="url(#paint25_linear_582_10298)"/>
<path d="M275.683 68.7017L277.819 67.464L277.631 66.4571L257.836 54.9404L255.092 56.241L255.616 57.1011L275.683 68.7017Z" fill="#4318FF"/>
<path d="M257.731 55.8633L255.615 57.101L254.232 56.3039L257.731 54.269L279.18 66.6667L277.797 67.4639L257.731 55.8633Z" fill="url(#paint26_linear_582_10298)"/>
<g opacity="0.51">
<path d="M342.817 184.056L276.417 143.927V98.3844L342.817 59.9956V184.056Z" fill="#453C9E"/>
</g>
<path d="M279.054 105.014C279.054 103.336 280.227 101.28 281.693 100.441C282.426 100.021 283.096 99.9793 283.578 100.252L285.442 101.343L284.29 101.385C284.332 101.553 284.332 101.741 284.332 101.951C284.332 103.629 283.159 105.685 281.693 106.524C281.504 106.629 281.316 106.713 281.127 106.776L281.672 107.783L279.85 106.713C279.347 106.461 279.054 105.853 279.054 105.014Z" fill="url(#paint27_linear_582_10298)"/>
<path d="M280.94 106.105C280.94 107.784 282.113 108.476 283.579 107.637C285.046 106.798 286.219 104.742 286.219 103.064C286.219 101.385 285.046 100.693 283.579 101.532C282.113 102.371 280.94 104.427 280.94 106.105Z" fill="url(#paint28_linear_582_10298)"/>
<path d="M282.05 105.476C282.05 106.441 282.72 106.839 283.579 106.357C284.417 105.874 285.108 104.7 285.108 103.714C285.108 102.749 284.438 102.35 283.579 102.833C282.741 103.315 282.05 104.49 282.05 105.476Z" fill="#4318FF"/>
<path d="M334.73 70.7576C334.73 69.0794 335.903 67.0236 337.37 66.1845C338.103 65.7649 338.773 65.723 339.255 65.9957L341.119 67.0865L339.967 67.1285C340.009 67.2963 340.009 67.4851 340.009 67.6949C340.009 69.3731 338.836 71.4289 337.37 72.268C337.181 72.3728 336.993 72.4568 336.804 72.5197L337.349 73.5266L335.526 72.4568C335.024 72.184 334.73 71.5967 334.73 70.7576Z" fill="url(#paint29_linear_582_10298)"/>
<path d="M336.617 71.8485C336.617 73.5267 337.79 74.219 339.256 73.3799C340.722 72.5408 341.896 70.485 341.896 68.8068C341.896 67.1286 340.722 66.4363 339.256 67.2754C337.79 68.1145 336.617 70.1703 336.617 71.8485Z" fill="url(#paint30_linear_582_10298)"/>
<path d="M337.727 71.1979C337.727 72.1629 338.397 72.5615 339.256 72.079C340.094 71.5965 340.785 70.4218 340.785 69.4358C340.785 68.4709 340.115 68.0723 339.256 68.5548C338.418 69.0582 337.727 70.233 337.727 71.1979Z" fill="#4318FF"/>
<path d="M279.054 236.983C279.054 235.304 280.227 233.249 281.693 232.41C282.426 231.99 283.096 231.948 283.578 232.221L285.442 233.312L284.29 233.354C284.332 233.521 284.332 233.71 284.332 233.92C284.332 235.598 283.159 237.654 281.693 238.493C281.504 238.598 281.316 238.682 281.127 238.745L281.672 239.752L279.85 238.682C279.347 238.409 279.054 237.822 279.054 236.983Z" fill="url(#paint31_linear_582_10298)"/>
<path d="M280.94 238.074C280.94 239.752 282.113 240.444 283.579 239.605C285.046 238.766 286.219 236.71 286.219 235.032C286.219 233.354 285.046 232.661 283.579 233.501C282.113 234.34 280.94 236.395 280.94 238.074Z" fill="url(#paint32_linear_582_10298)"/>
<path d="M282.05 237.423C282.05 238.388 282.72 238.787 283.579 238.304C284.417 237.822 285.108 236.647 285.108 235.661C285.108 234.696 284.438 234.297 283.579 234.78C282.741 235.283 282.05 236.458 282.05 237.423Z" fill="#4318FF"/>
<path d="M334.73 202.705C334.73 201.027 335.903 198.971 337.37 198.132C338.103 197.713 338.773 197.671 339.255 197.943L341.119 199.034L339.967 199.076C340.009 199.244 340.009 199.433 340.009 199.643C340.009 201.321 338.836 203.377 337.37 204.216C337.181 204.321 336.993 204.405 336.804 204.467L337.349 205.474L335.526 204.405C335.024 204.153 334.73 203.565 334.73 202.705Z" fill="url(#paint33_linear_582_10298)"/>
<path d="M336.617 203.817C336.617 205.495 337.79 206.188 339.256 205.349C340.722 204.51 341.896 202.454 341.896 200.776C341.896 199.097 340.722 198.405 339.256 199.244C337.79 200.083 336.617 202.139 336.617 203.817Z" fill="url(#paint34_linear_582_10298)"/>
<path d="M337.727 203.167C337.727 204.132 338.397 204.531 339.256 204.048C340.094 203.566 340.785 202.391 340.785 201.405C340.785 200.44 340.115 200.042 339.256 200.524C338.418 201.006 337.727 202.202 337.727 203.167Z" fill="#4318FF"/>
<path d="M191.645 176.714L258.045 138.325L191.666 99.9365L125.265 138.325L191.645 176.714Z" fill="#BCBEFF"/>
<path d="M191.645 324.081L258.045 285.693L191.666 247.304L125.265 285.693L191.645 324.081Z" fill="white"/>
<path d="M125.265 138.326V285.693L191.645 324.081V176.714L125.265 138.326Z" fill="url(#paint35_linear_582_10298)"/>
<path d="M258.045 138.326V285.693L191.645 324.081V176.714L258.045 138.326Z" fill="#4318FF"/>
<g opacity="0.51">
<path d="M253.542 148.101V280.552L196.149 313.739V181.287L253.542 148.101Z" fill="#453C9E"/>
</g>
<path d="M135.215 173.924V177.826L181.695 204.698V200.796L135.215 173.924Z" fill="#453C9E"/>
<path d="M135.215 190.391V194.293L181.695 221.165V217.263L135.215 190.391Z" fill="#453C9E"/>
<path d="M135.215 206.879V210.76L181.695 237.632V233.731L135.215 206.879Z" fill="#453C9E"/>
<path d="M135.215 223.347V227.228L181.695 254.1V250.198L135.215 223.347Z" fill="#453C9E"/>
<path d="M135.215 239.814V243.695L181.695 270.567V266.666L135.215 239.814Z" fill="#453C9E"/>
<path d="M135.215 256.282V260.163L181.695 287.035V283.133L135.215 256.282Z" fill="#453C9E"/>
<path opacity="0.78" d="M191.645 166.624H209.093L258.045 138.326L204.778 107.531H191.645V166.624Z" fill="url(#paint36_linear_582_10298)"/>
<path d="M191.644 163.247L239.821 135.389L191.644 107.531L143.488 135.389L191.644 163.247Z" fill="url(#paint37_linear_582_10298)"/>
<path d="M143.489 135.389V138.787L191.645 166.624V163.247L143.489 135.389Z" fill="url(#paint38_linear_582_10298)"/>
<path d="M239.821 135.389V138.787L191.644 166.624V163.247L239.821 135.389Z" fill="url(#paint39_linear_582_10298)"/>
<path d="M210.327 135.83L212.464 134.613L212.296 133.606L192.502 122.068L189.758 123.369L190.261 124.229L210.327 135.83Z" fill="#4318FF"/>
<path d="M192.398 123.012L190.261 124.229L188.899 123.432L192.398 121.418L213.847 133.816L212.464 134.613L192.398 123.012Z" fill="url(#paint40_linear_582_10298)"/>
<path d="M203.855 139.563L205.991 138.326L205.824 137.34L186.029 125.802L183.285 127.103L183.788 127.963L203.855 139.563Z" fill="#4318FF"/>
<path d="M185.925 126.725L183.788 127.963L182.427 127.166L185.925 125.152L207.374 137.55L205.992 138.347L185.925 126.725Z" fill="url(#paint41_linear_582_10298)"/>
<path d="M197.385 143.297L199.521 142.06L199.354 141.074L179.56 129.536L176.816 130.837L177.318 131.697L197.385 143.297Z" fill="#4318FF"/>
<path d="M179.454 130.459L177.317 131.697L175.935 130.9L179.454 128.886L200.882 141.283L199.52 142.06L179.454 130.459Z" fill="url(#paint42_linear_582_10298)"/>
<path d="M190.911 147.031L193.048 145.794L192.859 144.808L173.086 133.27L170.321 134.571L170.845 135.431L190.911 147.031Z" fill="#4318FF"/>
<path d="M172.98 134.193L170.843 135.431L169.461 134.634L172.98 132.62L194.408 145.018L193.047 145.794L172.98 134.193Z" fill="url(#paint43_linear_582_10298)"/>
<g opacity="0.51">
<path d="M258.045 262.387L191.645 222.257V176.714L258.045 138.326V262.387Z" fill="#453C9E"/>
</g>
<path d="M194.283 183.344C194.283 181.665 195.456 179.61 196.922 178.77C197.656 178.351 198.326 178.309 198.808 178.582L200.672 179.672L199.52 179.714C199.562 179.882 199.562 180.071 199.562 180.281C199.562 181.959 198.389 184.015 196.922 184.854C196.734 184.959 196.545 185.043 196.357 185.106L196.901 186.113L195.079 185.043C194.576 184.791 194.283 184.204 194.283 183.344Z" fill="url(#paint44_linear_582_10298)"/>
<path d="M196.17 184.455C196.17 186.134 197.343 186.826 198.809 185.987C200.275 185.148 201.448 183.092 201.448 181.414C201.448 179.736 200.275 179.043 198.809 179.882C197.343 180.721 196.17 182.756 196.17 184.455Z" fill="url(#paint45_linear_582_10298)"/>
<path d="M197.28 183.805C197.28 184.77 197.95 185.168 198.809 184.686C199.647 184.203 200.338 183.029 200.338 182.043C200.338 181.078 199.668 180.679 198.809 181.162C197.971 181.644 197.28 182.84 197.28 183.805Z" fill="#4318FF"/>
<path d="M249.958 149.087C249.958 147.408 251.131 145.353 252.597 144.514C253.33 144.094 254.001 144.052 254.482 144.325L256.347 145.416L255.195 145.458C255.237 145.625 255.237 145.814 255.237 146.024C255.237 147.702 254.063 149.758 252.597 150.597C252.409 150.702 252.22 150.786 252.032 150.849L252.576 151.856L250.754 150.786C250.272 150.534 249.958 149.926 249.958 149.087Z" fill="url(#paint46_linear_582_10298)"/>
<path d="M251.845 150.178C251.845 151.856 253.018 152.548 254.484 151.709C255.95 150.87 257.123 148.814 257.123 147.136C257.123 145.458 255.95 144.765 254.484 145.605C253.038 146.444 251.845 148.499 251.845 150.178Z" fill="url(#paint47_linear_582_10298)"/>
<path d="M252.975 149.527C252.975 150.492 253.645 150.891 254.504 150.408C255.342 149.926 256.033 148.751 256.033 147.765C256.033 146.8 255.363 146.401 254.504 146.884C253.645 147.366 252.975 148.562 252.975 149.527Z" fill="#4318FF"/>
<path d="M194.283 315.312C194.283 313.634 195.456 311.578 196.922 310.739C197.656 310.32 198.326 310.278 198.808 310.55L200.672 311.641L199.52 311.683C199.562 311.851 199.562 312.04 199.562 312.25C199.562 313.928 198.389 315.984 196.922 316.823C196.734 316.928 196.545 317.011 196.357 317.074L196.901 318.081L195.079 317.011C194.576 316.76 194.283 316.151 194.283 315.312Z" fill="url(#paint48_linear_582_10298)"/>
<path d="M196.17 316.403C196.17 318.081 197.343 318.774 198.809 317.935C200.275 317.095 201.448 315.04 201.448 313.361C201.448 311.683 200.275 310.991 198.809 311.83C197.343 312.669 196.17 314.725 196.17 316.403Z" fill="url(#paint49_linear_582_10298)"/>
<path d="M197.28 315.774C197.28 316.739 197.95 317.138 198.809 316.655C199.647 316.173 200.338 314.998 200.338 314.012C200.338 313.047 199.668 312.648 198.809 313.131C197.971 313.613 197.28 314.788 197.28 315.774Z" fill="#4318FF"/>
<path d="M249.958 281.056C249.958 279.378 251.131 277.322 252.597 276.483C253.33 276.064 254.001 276.022 254.482 276.295L256.347 277.385L255.195 277.427C255.237 277.595 255.237 277.784 255.237 277.994C255.237 279.672 254.063 281.728 252.597 282.567C252.409 282.672 252.22 282.756 252.032 282.819L252.576 283.825L250.754 282.756C250.272 282.483 249.958 281.895 249.958 281.056Z" fill="url(#paint50_linear_582_10298)"/>
<path d="M251.845 282.147C251.845 283.826 253.018 284.518 254.484 283.679C255.95 282.84 257.123 280.784 257.123 279.106C257.123 277.427 255.95 276.735 254.484 277.574C253.018 278.413 251.845 280.469 251.845 282.147Z" fill="url(#paint51_linear_582_10298)"/>
<path d="M252.975 281.497C252.975 282.462 253.645 282.86 254.504 282.378C255.342 281.895 256.033 280.721 256.033 279.735C256.033 278.77 255.363 278.371 254.504 278.854C253.645 279.357 252.975 280.532 252.975 281.497Z" fill="#4318FF"/>
<path d="M317.615 119.593L330.058 112.397V109.67L317.615 116.866V119.593Z" fill="#42E8E0"/>
<path d="M311.226 123.285L315.709 120.705V117.957L311.226 120.558V123.285Z" fill="#42E8E0"/>
<path d="M306.284 126.159L309.321 124.397V121.649L306.284 123.411V126.159Z" fill="#42E8E0"/>
<path d="M323.271 122.571L330.058 118.669V115.921L323.271 119.844V122.571Z" fill="#42E8E0"/>
<path d="M313.049 128.487L321.365 123.683V120.935L313.049 125.739V128.487Z" fill="#42E8E0"/>
<path d="M308.107 131.34L311.165 129.578V126.851L308.107 128.613V131.34Z" fill="#42E8E0"/>
<path d="M303.415 134.067L306.452 132.305V129.557L303.415 131.319V134.067Z" fill="#42E8E0"/>
<path d="M325.135 127.753L330.058 124.921V122.173L325.135 125.005V127.753Z" fill="#42E8E0"/>
<path d="M321.575 129.809L323.251 128.844V126.117L321.575 127.082V129.809Z" fill="#42E8E0"/>
<path d="M316.61 132.683L319.668 130.92V128.172L316.61 129.934V132.683Z" fill="#42E8E0"/>
<path d="M311.939 141.64L330.058 131.172V128.424L311.939 138.892V141.64Z" fill="#42E8E0"/>
<path d="M305.55 145.332L310.032 142.731V140.004L305.55 142.584V145.332Z" fill="#42E8E0"/>
<path d="M325.135 140.256L330.058 137.424V134.676L325.135 137.508V140.256Z" fill="#42E8E0"/>
<path d="M313.637 146.905L323.251 141.346V138.619L313.637 144.178V146.905Z" fill="#42E8E0"/>
<path d="M308.691 149.758L311.729 148.017V145.269L308.691 147.031V149.758Z" fill="#42E8E0"/>
<path d="M320.003 149.465L330.058 143.675V140.927L320.003 146.738V149.465Z" fill="#42E8E0"/>
<path d="M310.85 154.772L318.118 150.576V147.828L310.85 152.024V154.772Z" fill="#42E8E0"/>
<path d="M304.041 158.695L308.942 155.863V153.136L304.041 155.968V158.695Z" fill="#42E8E0"/>
<path d="M326.664 151.877L330.058 149.926V147.178L326.664 149.15V151.877Z" fill="#42E8E0"/>
<path d="M320.275 155.569L324.758 152.968V150.241L320.275 152.821V155.569Z" fill="#42E8E0"/>
<path d="M311.163 160.834L318.368 156.66V153.933L311.163 158.107V160.834Z" fill="#42E8E0"/>
<path d="M319.668 162.177L330.058 156.178V153.43L319.668 159.429V162.177Z" fill="#42E8E0"/>
<path d="M308.043 168.89L317.762 163.268V160.541L308.043 166.163V168.89Z" fill="#42E8E0"/>
<path d="M303.078 171.764L306.136 170.001V167.253L303.078 169.016V171.764Z" fill="#42E8E0"/>
<path d="M298.345 174.512L301.382 172.75V170.002L298.345 171.764V174.512Z" fill="#42E8E0"/>
<path d="M323.837 166.016L330.058 162.429V159.681L323.837 163.289V166.016Z" fill="#42E8E0"/>
<path d="M297.8 131.046L289.17 136.039V133.312L297.8 128.319V131.046Z" fill="#42E8E0"/>
<path d="M295.956 138.368L289.169 142.29V139.563L295.956 135.641V138.368Z" fill="#42E8E0"/>
<path d="M294.093 145.71L289.17 148.542V145.815L294.093 142.962V145.71Z" fill="#42E8E0"/>
<path d="M296.312 150.66L289.17 154.793V152.066L296.312 147.933V150.66Z" fill="#42E8E0"/>
<path d="M294.093 158.212L289.17 161.044V158.317L294.093 155.464V158.212Z" fill="#42E8E0"/>
<path d="M295.39 163.708L289.169 167.296V164.569L295.39 160.96V163.708Z" fill="#42E8E0"/>
<path d="M292.563 171.596L289.17 173.547V170.82L292.563 168.848V171.596Z" fill="#42E8E0"/>
<path d="M295.746 176.001L289.169 179.798V177.071L295.746 173.274V176.001Z" fill="#42E8E0"/>
<path d="M295.39 182.462L289.169 186.05V183.322L295.39 179.714V182.462Z" fill="#42E8E0"/>
<path d="M319.27 168.638L321.931 167.128V164.38L319.27 165.911V168.638Z" fill="#42E8E0"/>
<path d="M311.415 173.19L317.385 169.75V167.002L311.415 170.463V173.19Z" fill="#42E8E0"/>
<path d="M306.494 194.231L316.548 188.42V185.672L306.494 191.483V194.231Z" fill="#42E8E0"/>
<path d="M299.623 198.195L303.582 195.909V193.182L299.623 195.468V198.195Z" fill="#42E8E0"/>
<path d="M402.345 97.3984L414.787 90.2031V87.4761L402.345 94.6714V97.3984Z" fill="#42E8E0"/>
<path d="M395.956 101.09L400.438 98.5103V95.7622L395.956 98.3634V101.09Z" fill="#42E8E0"/>
<path d="M391.013 103.965L394.071 102.203V99.4546L391.013 101.217V103.965Z" fill="#42E8E0"/>
<path d="M408 100.377L414.787 96.4541V93.7271L408 97.6498V100.377Z" fill="#42E8E0"/>
<path d="M397.799 106.293L406.114 101.489V98.7407L397.799 103.545V106.293Z" fill="#42E8E0"/>
<path d="M392.857 109.145L395.895 107.383V104.656L392.857 106.418V109.145Z" fill="#42E8E0"/>
<path d="M388.144 111.873L391.182 110.111V107.363L388.144 109.125V111.873Z" fill="#42E8E0"/>
<path d="M409.886 105.559L414.787 102.727V99.979L409.886 102.811V105.559Z" fill="#42E8E0"/>
<path d="M406.305 107.615L407.98 106.65V103.923L406.305 104.888V107.615Z" fill="#42E8E0"/>
<path d="M401.36 110.488L404.397 108.726V105.978L401.36 107.74V110.488Z" fill="#42E8E0"/>
<path d="M396.689 119.446L414.787 108.978V106.23L396.689 116.698V119.446Z" fill="#42E8E0"/>
<path d="M390.302 123.117L394.784 120.537V117.81L390.302 120.39V123.117Z" fill="#42E8E0"/>
<path d="M409.886 118.061L414.787 115.229V112.481L409.886 115.313V118.061Z" fill="#42E8E0"/>
<path d="M398.366 124.711L407.98 119.152V116.425L398.366 121.984V124.711Z" fill="#42E8E0"/>
<path d="M393.421 127.564L396.458 125.802V123.075L393.421 124.837V127.564Z" fill="#42E8E0"/>
<path d="M404.754 127.27L414.787 121.48V118.732L404.754 124.543V127.27Z" fill="#42E8E0"/>
<path d="M395.6 132.577L402.848 128.382V125.634L395.6 129.829V132.577Z" fill="#42E8E0"/>
<path d="M388.793 136.5L393.694 133.668V130.941L388.793 133.773V136.5Z" fill="#42E8E0"/>
<path d="M411.394 129.683L414.787 127.732V124.984L411.394 126.956V129.683Z" fill="#42E8E0"/>
<path d="M405.026 133.375L409.487 130.774V128.047L405.026 130.627V133.375Z" fill="#42E8E0"/>
<path d="M395.895 138.64L403.121 134.465V131.738L395.895 135.913V138.64Z" fill="#42E8E0"/>
<path d="M404.398 139.983L414.787 133.983V131.235L404.398 137.235V139.983Z" fill="#42E8E0"/>
<path d="M392.772 146.696L402.512 141.074V138.347L392.772 143.969V146.696Z" fill="#42E8E0"/>
<path d="M387.828 149.569L390.865 147.807V145.059L387.828 146.821V149.569Z" fill="#42E8E0"/>
<path d="M383.074 152.318L386.132 150.556V147.808L383.074 149.57V152.318Z" fill="#42E8E0"/>
<path d="M408.566 143.822L414.787 140.234V137.486L408.566 141.094V143.822Z" fill="#42E8E0"/>
<path d="M382.552 108.852L373.922 113.845V111.118L382.552 106.125V108.852Z" fill="#42E8E0"/>
<path d="M380.706 116.173L373.919 120.096V117.369L380.706 113.446V116.173Z" fill="#42E8E0"/>
<path d="M378.822 123.516L373.921 126.348V123.621L378.822 120.768V123.516Z" fill="#42E8E0"/>
<path d="M381.042 128.466L373.92 132.598V129.871L381.042 125.739V128.466Z" fill="#42E8E0"/>
<path d="M378.822 136.018L373.921 138.85V136.122L378.822 133.27V136.018Z" fill="#42E8E0"/>
<path d="M380.143 141.514L373.921 145.101V142.374L380.143 138.766V141.514Z" fill="#42E8E0"/>
<path d="M377.312 149.402L373.919 151.353V148.626L377.312 146.654V149.402Z" fill="#42E8E0"/>
<path d="M380.476 153.807L373.919 157.604V154.877L380.476 151.08V153.807Z" fill="#42E8E0"/>
<path d="M380.143 160.268L373.921 163.855V161.128L380.143 157.52V160.268Z" fill="#42E8E0"/>
<path d="M404.021 146.444L406.66 144.934V142.186L404.021 143.717V146.444Z" fill="#42E8E0"/>
<path d="M396.165 150.996L402.114 147.556V144.808L396.165 148.269V150.996Z" fill="#42E8E0"/>
<path d="M391.244 172.036L401.277 166.205V163.478L391.244 169.288V172.036Z" fill="#42E8E0"/>
<path d="M384.353 176.001L388.312 173.714V170.987L384.353 173.274V176.001Z" fill="#42E8E0"/>
<path d="M232.847 198.783L245.289 191.588V188.861L232.847 196.056V198.783Z" fill="#42E8E0"/>
<path d="M226.458 202.475L230.94 199.895V197.147L226.458 199.748V202.475Z" fill="#42E8E0"/>
<path d="M221.515 205.35L224.553 203.587V200.839L221.515 202.601V205.35Z" fill="#42E8E0"/>
<path d="M238.502 201.762L245.289 197.839V195.112L238.502 199.035V201.762Z" fill="#42E8E0"/>
<path d="M228.302 207.677L236.597 202.874V200.125L228.302 204.929V207.677Z" fill="#42E8E0"/>
<path d="M223.359 210.53L226.396 208.768V206.041L223.359 207.803V210.53Z" fill="#42E8E0"/>
<path d="M218.646 213.258L221.684 211.496V208.748L218.646 210.51V213.258Z" fill="#42E8E0"/>
<path d="M240.388 206.944L245.289 204.091V201.364L240.388 204.196V206.944Z" fill="#42E8E0"/>
<path d="M236.807 209L238.482 208.035V205.308L236.807 206.273V209Z" fill="#42E8E0"/>
<path d="M231.862 211.873L234.899 210.111V207.363L231.862 209.125V211.873Z" fill="#42E8E0"/>
<path d="M227.17 220.831L245.289 210.342V207.615L227.17 218.083V220.831Z" fill="#42E8E0"/>
<path d="M220.804 224.502L225.286 221.921V219.173L220.804 221.775V224.502Z" fill="#42E8E0"/>
<path d="M240.388 219.446L245.289 216.593V213.866L240.388 216.698V219.446Z" fill="#42E8E0"/>
<path d="M228.868 226.096L238.482 220.537V217.81L228.868 223.369V226.096Z" fill="#42E8E0"/>
<path d="M223.923 228.949L226.96 227.187V224.459L223.923 226.222V228.949Z" fill="#42E8E0"/>
<path d="M235.256 228.655L245.289 222.844V220.117L235.256 225.928V228.655Z" fill="#42E8E0"/>
<path d="M226.081 233.962L233.35 229.767V227.019L226.081 231.214V233.962Z" fill="#42E8E0"/>
<path d="M219.274 237.885L224.196 235.053V232.326L219.274 235.158V237.885Z" fill="#42E8E0"/>
<path d="M241.896 231.068L245.289 229.117V226.369L241.896 228.32V231.068Z" fill="#42E8E0"/>
<path d="M235.507 234.76L239.989 232.159V229.432L235.507 232.012V234.76Z" fill="#42E8E0"/>
<path d="M226.397 240.025L233.623 235.85V233.123L226.397 237.298V240.025Z" fill="#42E8E0"/>
<path d="M234.9 241.368L245.289 235.368V232.62L234.9 238.62V241.368Z" fill="#42E8E0"/>
<path d="M223.274 248.08L232.993 242.459V239.731L223.274 245.353V248.08Z" fill="#42E8E0"/>
<path d="M218.33 250.954L221.367 249.192V246.444L218.33 248.206V250.954Z" fill="#42E8E0"/>
<path d="M213.576 253.682L216.613 251.94V249.192L213.576 250.954V253.682Z" fill="#42E8E0"/>
<path d="M239.068 245.206L245.289 241.619V238.871L239.068 242.479V245.206Z" fill="#42E8E0"/>
<path d="M213.052 210.237L204.422 215.229V212.481L213.052 207.51V210.237Z" fill="#42E8E0"/>
<path d="M211.188 217.558L204.422 221.481V218.733L211.188 214.831V217.558Z" fill="#42E8E0"/>
<path d="M209.324 224.9L204.423 227.732V225.005L209.324 222.152V224.9Z" fill="#42E8E0"/>
<path d="M211.544 229.851L204.422 233.983V231.256L211.544 227.124V229.851Z" fill="#42E8E0"/>
<path d="M209.324 237.402L204.423 240.234V237.507L209.324 234.654V237.402Z" fill="#42E8E0"/>
<path d="M210.645 242.899L204.423 246.486V243.759L210.645 240.151V242.899Z" fill="#42E8E0"/>
<path d="M207.795 250.787L204.423 252.738V250.01L207.795 248.039V250.787Z" fill="#42E8E0"/>
<path d="M210.978 255.192L204.421 258.989V256.262L210.978 252.465V255.192Z" fill="#42E8E0"/>
<path d="M210.645 261.652L204.423 265.24V262.512L210.645 258.904V261.652Z" fill="#42E8E0"/>
<path d="M234.523 247.829L237.162 246.297V243.57L234.523 245.102V247.829Z" fill="#42E8E0"/>
<path d="M226.667 252.381L232.616 248.94V246.192L226.667 249.633V252.381Z" fill="#42E8E0"/>
<path d="M221.725 273.4L231.779 267.589V264.862L221.725 270.673V273.4Z" fill="#42E8E0"/>
<path d="M214.855 277.386L218.813 275.099V272.372L214.855 274.659V277.386Z" fill="#42E8E0"/>
<path d="M300.171 317.495L415.963 250.535C416.759 250.073 417.199 249.402 417.199 248.647C417.199 247.787 416.613 246.948 415.607 246.36L391.54 232.452C389.822 231.466 387.309 231.361 385.8 232.242L270.008 299.202C269.212 299.664 268.773 300.335 268.773 301.09C268.773 301.95 269.359 302.79 270.364 303.356L294.432 317.264C295.354 317.789 296.527 318.061 297.637 318.061C298.558 318.103 299.459 317.893 300.171 317.495ZM390.786 233.732L414.853 247.64C415.482 248.017 415.712 248.395 415.712 248.647C415.712 248.94 415.398 249.171 415.209 249.276L299.417 316.236C298.349 316.845 296.401 316.761 295.144 316.026L271.077 302.118C270.448 301.741 270.218 301.363 270.218 301.111C270.218 300.818 270.532 300.587 270.721 300.482L386.513 233.522C386.994 233.249 387.623 233.123 388.314 233.123C389.173 233.123 390.094 233.333 390.786 233.732Z" fill="url(#paint52_linear_582_10298)"/>
<path d="M369.086 193.392C366.049 195.154 363.158 197.629 360.603 200.566C357.042 189.133 346.192 185.567 333.372 192.993C322.752 199.14 313.494 211.202 308.614 223.998C307.001 224.04 305.178 224.585 303.272 225.697C296.339 229.704 290.725 239.437 290.725 247.451C290.725 247.619 290.746 247.786 290.746 247.954C288.777 248.101 286.578 248.793 284.295 250.115C275.434 255.233 268.25 267.694 268.25 277.952C268.25 288.21 275.434 292.364 284.295 287.224L369.107 238.179C379.811 231.99 388.482 216.95 388.482 204.573C388.461 192.217 379.79 187.204 369.086 193.392Z" fill="url(#paint53_linear_582_10298)"/>
<path d="M369.086 193.392C367.327 194.42 365.609 195.678 363.996 197.126L354.507 191.63C349.292 187.959 341.751 188.127 333.351 192.972C322.732 199.119 313.473 211.181 308.593 223.977C306.98 224.019 305.157 224.564 303.251 225.676C296.318 229.683 290.704 239.416 290.704 247.43C290.704 247.598 290.725 247.766 290.725 247.933C288.756 248.08 286.557 248.772 284.274 250.094C275.413 255.213 268.229 267.673 268.229 277.931C268.229 283.008 269.988 286.595 272.858 288.294L272.942 288.336C272.942 288.336 272.942 288.336 272.963 288.336L296.192 301.845L301.261 277.407L369.107 238.179C379.811 231.99 388.482 216.95 388.482 204.573C388.461 192.217 379.79 187.204 369.086 193.392Z" fill="url(#paint54_radial_582_10298)"/>
<path d="M406.432 205.79L382.888 192.091C379.369 189.994 374.488 190.266 369.084 193.392C367.325 194.42 365.607 195.678 363.994 197.126L354.505 191.63C349.29 187.959 341.749 188.127 333.349 192.972C322.73 199.119 313.471 211.181 308.591 223.977C306.978 224.019 305.155 224.564 303.249 225.676C296.316 229.683 290.702 239.416 290.702 247.43C290.702 247.598 290.723 247.766 290.723 247.933C288.754 248.08 286.555 248.772 284.272 250.094C275.411 255.213 268.227 267.673 268.227 277.931C268.227 283.008 269.986 286.595 272.856 288.294L272.94 288.336C272.94 288.336 272.94 288.336 272.961 288.336L296.19 301.845L301.259 277.407L369.105 238.179C377.777 233.165 385.108 222.32 387.58 211.81L406.432 205.79Z" fill="url(#paint55_linear_582_10298)"/>
<path d="M392.399 206.943C389.361 208.705 386.471 211.181 383.915 214.117C380.354 202.685 369.504 199.119 356.685 206.545C346.065 212.691 336.807 224.753 331.926 237.549C330.313 237.591 328.491 238.137 326.585 239.248C319.651 243.255 314.038 252.989 314.038 261.002C314.038 261.17 314.059 261.338 314.059 261.506C312.09 261.652 309.89 262.345 307.607 263.666C298.747 268.785 291.562 281.245 291.562 291.503C291.562 301.761 298.747 305.915 307.607 300.775L392.419 251.73C403.123 245.542 411.795 230.501 411.795 218.124C411.753 205.768 403.081 200.755 392.399 206.943Z" fill="url(#paint56_linear_582_10298)"/>
<path d="M229.644 343.171L228.89 341.912L282.932 309.355L283.686 310.614L229.644 343.171Z" fill="url(#paint57_linear_582_10298)"/>
<defs>
<linearGradient id="paint0_linear_582_10298" x1="327.991" y1="182.643" x2="327.991" y2="42.3315" gradientUnits="userSpaceOnUse">
<stop stop-color="#C0BFF6"/>
<stop offset="0.2938" stop-color="#C5C4F7"/>
<stop offset="0.6399" stop-color="#D3D2F9"/>
<stop offset="1" stop-color="#E9E9FD"/>
</linearGradient>
<linearGradient id="paint1_linear_582_10298" x1="427.577" y1="37.144" x2="361.186" y2="37.144" gradientUnits="userSpaceOnUse">
<stop stop-color="#E9E9FD"/>
<stop offset="0.0374" stop-color="#D3D5F7"/>
<stop offset="0.1056" stop-color="#B2B6EF"/>
<stop offset="0.1817" stop-color="#969BE7"/>
<stop offset="0.2663" stop-color="#7F86E1"/>
<stop offset="0.3632" stop-color="#6D75DD"/>
<stop offset="0.4798" stop-color="#606AD9"/>
<stop offset="0.6363" stop-color="#5963D8"/>
<stop offset="1" stop-color="#5761D7"/>
</linearGradient>
<linearGradient id="paint2_linear_582_10298" x1="409.358" y1="35.4498" x2="313.015" y2="35.4498" gradientUnits="userSpaceOnUse">
<stop stop-color="#C0BFF6"/>
<stop offset="0.2938" stop-color="#C5C4F7"/>
<stop offset="0.6399" stop-color="#D3D2F9"/>
<stop offset="1" stop-color="#E9E9FD"/>
</linearGradient>
<linearGradient id="paint3_linear_582_10298" x1="330.882" y1="61.9427" x2="342.621" y2="41.478" gradientUnits="userSpaceOnUse">
<stop stop-color="#C0BFF6"/>
<stop offset="0.2938" stop-color="#C5C4F7"/>
<stop offset="0.6399" stop-color="#D3D2F9"/>
<stop offset="1" stop-color="#E9E9FD"/>
</linearGradient>
<linearGradient id="paint4_linear_582_10298" x1="385.272" y1="52.2253" x2="385.272" y2="20.9843" gradientUnits="userSpaceOnUse">
<stop stop-color="#5761D7"/>
<stop offset="0.1779" stop-color="#5C66D9"/>
<stop offset="0.3876" stop-color="#6A73DF"/>
<stop offset="0.6134" stop-color="#8289E8"/>
<stop offset="0.849" stop-color="#A3A7F5"/>
<stop offset="1" stop-color="#BCBEFF"/>
</linearGradient>
<linearGradient id="paint5_linear_582_10298" x1="383.375" y1="28.0682" x2="358.428" y2="28.0682" gradientUnits="userSpaceOnUse">
<stop stop-color="#5761D7"/>
<stop offset="0.1779" stop-color="#5C66D9"/>
<stop offset="0.3876" stop-color="#6A73DF"/>
<stop offset="0.6134" stop-color="#8289E8"/>
<stop offset="0.849" stop-color="#A3A7F5"/>
<stop offset="1" stop-color="#BCBEFF"/>
</linearGradient>
<linearGradient id="paint6_linear_582_10298" x1="376.899" y1="31.8006" x2="351.951" y2="31.8006" gradientUnits="userSpaceOnUse">
<stop stop-color="#5761D7"/>
<stop offset="0.1779" stop-color="#5C66D9"/>
<stop offset="0.3876" stop-color="#6A73DF"/>
<stop offset="0.6134" stop-color="#8289E8"/>
<stop offset="0.849" stop-color="#A3A7F5"/>
<stop offset="1" stop-color="#BCBEFF"/>
</linearGradient>
<linearGradient id="paint7_linear_582_10298" x1="370.422" y1="35.5332" x2="345.475" y2="35.5332" gradientUnits="userSpaceOnUse">
<stop stop-color="#5761D7"/>
<stop offset="0.1779" stop-color="#5C66D9"/>
<stop offset="0.3876" stop-color="#6A73DF"/>
<stop offset="0.6134" stop-color="#8289E8"/>
<stop offset="0.849" stop-color="#A3A7F5"/>
<stop offset="1" stop-color="#BCBEFF"/>
</linearGradient>
<linearGradient id="paint8_linear_582_10298" x1="363.946" y1="39.2656" x2="338.999" y2="39.2656" gradientUnits="userSpaceOnUse">
<stop stop-color="#5761D7"/>
<stop offset="0.1779" stop-color="#5C66D9"/>
<stop offset="0.3876" stop-color="#6A73DF"/>
<stop offset="0.6134" stop-color="#8289E8"/>
<stop offset="0.849" stop-color="#A3A7F5"/>
<stop offset="1" stop-color="#BCBEFF"/>
</linearGradient>
<linearGradient id="paint9_linear_582_10298" x1="370.204" y1="82.3287" x2="363.816" y2="82.3287" gradientUnits="userSpaceOnUse">
<stop stop-color="#C0BFF6"/>
<stop offset="0.2938" stop-color="#C5C4F7"/>
<stop offset="0.6399" stop-color="#D3D2F9"/>
<stop offset="1" stop-color="#E9E9FD"/>
</linearGradient>
<linearGradient id="paint10_linear_582_10298" x1="370.982" y1="82.9806" x2="365.699" y2="82.9806" gradientUnits="userSpaceOnUse">
<stop stop-color="#5761D7"/>
<stop offset="0.1779" stop-color="#5C66D9"/>
<stop offset="0.3876" stop-color="#6A73DF"/>
<stop offset="0.6134" stop-color="#8289E8"/>
<stop offset="0.849" stop-color="#A3A7F5"/>
<stop offset="1" stop-color="#BCBEFF"/>
</linearGradient>
<linearGradient id="paint11_linear_582_10298" x1="425.885" y1="48.0667" x2="419.497" y2="48.0667" gradientUnits="userSpaceOnUse">
<stop stop-color="#C0BFF6"/>
<stop offset="0.2938" stop-color="#C5C4F7"/>
<stop offset="0.6399" stop-color="#D3D2F9"/>
<stop offset="1" stop-color="#E9E9FD"/>
</linearGradient>
<linearGradient id="paint12_linear_582_10298" x1="426.664" y1="48.7186" x2="421.381" y2="48.7186" gradientUnits="userSpaceOnUse">
<stop stop-color="#5761D7"/>
<stop offset="0.1779" stop-color="#5C66D9"/>
<stop offset="0.3876" stop-color="#6A73DF"/>
<stop offset="0.6134" stop-color="#8289E8"/>
<stop offset="0.849" stop-color="#A3A7F5"/>
<stop offset="1" stop-color="#BCBEFF"/>
</linearGradient>
<linearGradient id="paint13_linear_582_10298" x1="370.204" y1="214.293" x2="363.816" y2="214.293" gradientUnits="userSpaceOnUse">
<stop stop-color="#C0BFF6"/>
<stop offset="0.2938" stop-color="#C5C4F7"/>
<stop offset="0.6399" stop-color="#D3D2F9"/>
<stop offset="1" stop-color="#E9E9FD"/>
</linearGradient>
<linearGradient id="paint14_linear_582_10298" x1="370.982" y1="214.945" x2="365.699" y2="214.945" gradientUnits="userSpaceOnUse">
<stop stop-color="#5761D7"/>
<stop offset="0.1779" stop-color="#5C66D9"/>
<stop offset="0.3876" stop-color="#6A73DF"/>
<stop offset="0.6134" stop-color="#8289E8"/>
<stop offset="0.849" stop-color="#A3A7F5"/>
<stop offset="1" stop-color="#BCBEFF"/>
</linearGradient>
<linearGradient id="paint15_linear_582_10298" x1="425.885" y1="180.03" x2="419.497" y2="180.03" gradientUnits="userSpaceOnUse">
<stop stop-color="#C0BFF6"/>
<stop offset="0.2938" stop-color="#C5C4F7"/>
<stop offset="0.6399" stop-color="#D3D2F9"/>
<stop offset="1" stop-color="#E9E9FD"/>
</linearGradient>
<linearGradient id="paint16_linear_582_10298" x1="426.664" y1="180.682" x2="421.381" y2="180.682" gradientUnits="userSpaceOnUse">
<stop stop-color="#5761D7"/>
<stop offset="0.1779" stop-color="#5C66D9"/>
<stop offset="0.3876" stop-color="#6A73DF"/>
<stop offset="0.6134" stop-color="#8289E8"/>
<stop offset="0.849" stop-color="#A3A7F5"/>
<stop offset="1" stop-color="#BCBEFF"/>
</linearGradient>
<linearGradient id="paint17_linear_582_10298" x1="353.013" y1="234.115" x2="199.83" y2="234.115" gradientUnits="userSpaceOnUse">
<stop stop-color="#5761D7"/>
<stop offset="0.0726" stop-color="#5472D8"/>
<stop offset="0.2791" stop-color="#4E9CDB"/>
<stop offset="0.4801" stop-color="#49BDDD"/>
<stop offset="0.6715" stop-color="#45D5DF"/>
<stop offset="0.8493" stop-color="#43E3E0"/>
<stop offset="1" stop-color="#42E8E0"/>
</linearGradient>
<linearGradient id="paint18_linear_582_10298" x1="243.225" y1="204.249" x2="243.225" y2="63.9378" gradientUnits="userSpaceOnUse">
<stop stop-color="#C0BFF6"/>
<stop offset="0.2938" stop-color="#C5C4F7"/>
<stop offset="0.6399" stop-color="#D3D2F9"/>
<stop offset="1" stop-color="#E9E9FD"/>
</linearGradient>
<linearGradient id="paint19_linear_582_10298" x1="342.813" y1="58.7503" x2="276.422" y2="58.7503" gradientUnits="userSpaceOnUse">
<stop stop-color="#E9E9FD"/>
<stop offset="0.0374" stop-color="#D3D5F7"/>
<stop offset="0.1056" stop-color="#B2B6EF"/>
<stop offset="0.1817" stop-color="#969BE7"/>
<stop offset="0.2663" stop-color="#7F86E1"/>
<stop offset="0.3632" stop-color="#6D75DD"/>
<stop offset="0.4798" stop-color="#606AD9"/>
<stop offset="0.6363" stop-color="#5963D8"/>
<stop offset="1" stop-color="#5761D7"/>
</linearGradient>
<linearGradient id="paint20_linear_582_10298" x1="324.592" y1="57.0561" x2="228.249" y2="57.0561" gradientUnits="userSpaceOnUse">
<stop stop-color="#C0BFF6"/>
<stop offset="0.2938" stop-color="#C5C4F7"/>
<stop offset="0.6399" stop-color="#D3D2F9"/>
<stop offset="1" stop-color="#E9E9FD"/>
</linearGradient>
<linearGradient id="paint21_linear_582_10298" x1="246.117" y1="83.5483" x2="257.855" y2="63.0847" gradientUnits="userSpaceOnUse">
<stop stop-color="#C0BFF6"/>
<stop offset="0.2938" stop-color="#C5C4F7"/>
<stop offset="0.6399" stop-color="#D3D2F9"/>
<stop offset="1" stop-color="#E9E9FD"/>
</linearGradient>
<linearGradient id="paint22_linear_582_10298" x1="300.506" y1="73.8314" x2="300.506" y2="42.5904" gradientUnits="userSpaceOnUse">
<stop stop-color="#5761D7"/>
<stop offset="0.1779" stop-color="#5C66D9"/>
<stop offset="0.3876" stop-color="#6A73DF"/>
<stop offset="0.6134" stop-color="#8289E8"/>
<stop offset="0.849" stop-color="#A3A7F5"/>
<stop offset="1" stop-color="#BCBEFF"/>
</linearGradient>
<linearGradient id="paint23_linear_582_10298" x1="298.609" y1="49.6743" x2="273.662" y2="49.6743" gradientUnits="userSpaceOnUse">
<stop stop-color="#5761D7"/>
<stop offset="0.1779" stop-color="#5C66D9"/>
<stop offset="0.3876" stop-color="#6A73DF"/>
<stop offset="0.6134" stop-color="#8289E8"/>
<stop offset="0.849" stop-color="#A3A7F5"/>
<stop offset="1" stop-color="#BCBEFF"/>
</linearGradient>
<linearGradient id="paint24_linear_582_10298" x1="292.133" y1="53.4067" x2="267.185" y2="53.4067" gradientUnits="userSpaceOnUse">
<stop stop-color="#5761D7"/>
<stop offset="0.1779" stop-color="#5C66D9"/>
<stop offset="0.3876" stop-color="#6A73DF"/>
<stop offset="0.6134" stop-color="#8289E8"/>
<stop offset="0.849" stop-color="#A3A7F5"/>
<stop offset="1" stop-color="#BCBEFF"/>
</linearGradient>
<linearGradient id="paint25_linear_582_10298" x1="285.656" y1="57.1393" x2="260.709" y2="57.1393" gradientUnits="userSpaceOnUse">
<stop stop-color="#5761D7"/>
<stop offset="0.1779" stop-color="#5C66D9"/>
<stop offset="0.3876" stop-color="#6A73DF"/>
<stop offset="0.6134" stop-color="#8289E8"/>
<stop offset="0.849" stop-color="#A3A7F5"/>
<stop offset="1" stop-color="#BCBEFF"/>
</linearGradient>
<linearGradient id="paint26_linear_582_10298" x1="279.18" y1="60.8719" x2="254.232" y2="60.8719" gradientUnits="userSpaceOnUse">
<stop stop-color="#5761D7"/>
<stop offset="0.1779" stop-color="#5C66D9"/>
<stop offset="0.3876" stop-color="#6A73DF"/>
<stop offset="0.6134" stop-color="#8289E8"/>
<stop offset="0.849" stop-color="#A3A7F5"/>
<stop offset="1" stop-color="#BCBEFF"/>
</linearGradient>
<linearGradient id="paint27_linear_582_10298" x1="285.437" y1="103.935" x2="279.049" y2="103.935" gradientUnits="userSpaceOnUse">
<stop stop-color="#C0BFF6"/>
<stop offset="0.2938" stop-color="#C5C4F7"/>
<stop offset="0.6399" stop-color="#D3D2F9"/>
<stop offset="1" stop-color="#E9E9FD"/>
</linearGradient>
<linearGradient id="paint28_linear_582_10298" x1="286.216" y1="104.588" x2="280.933" y2="104.588" gradientUnits="userSpaceOnUse">
<stop stop-color="#5761D7"/>
<stop offset="0.1779" stop-color="#5C66D9"/>
<stop offset="0.3876" stop-color="#6A73DF"/>
<stop offset="0.6134" stop-color="#8289E8"/>
<stop offset="0.849" stop-color="#A3A7F5"/>
<stop offset="1" stop-color="#BCBEFF"/>
</linearGradient>
<linearGradient id="paint29_linear_582_10298" x1="341.119" y1="69.673" x2="334.731" y2="69.673" gradientUnits="userSpaceOnUse">
<stop stop-color="#C0BFF6"/>
<stop offset="0.2938" stop-color="#C5C4F7"/>
<stop offset="0.6399" stop-color="#D3D2F9"/>
<stop offset="1" stop-color="#E9E9FD"/>
</linearGradient>
<linearGradient id="paint30_linear_582_10298" x1="341.898" y1="70.3249" x2="336.615" y2="70.3249" gradientUnits="userSpaceOnUse">
<stop stop-color="#5761D7"/>
<stop offset="0.1779" stop-color="#5C66D9"/>
<stop offset="0.3876" stop-color="#6A73DF"/>
<stop offset="0.6134" stop-color="#8289E8"/>
<stop offset="0.849" stop-color="#A3A7F5"/>
<stop offset="1" stop-color="#BCBEFF"/>
</linearGradient>
<linearGradient id="paint31_linear_582_10298" x1="285.437" y1="235.899" x2="279.049" y2="235.899" gradientUnits="userSpaceOnUse">
<stop stop-color="#C0BFF6"/>
<stop offset="0.2938" stop-color="#C5C4F7"/>
<stop offset="0.6399" stop-color="#D3D2F9"/>
<stop offset="1" stop-color="#E9E9FD"/>
</linearGradient>
<linearGradient id="paint32_linear_582_10298" x1="286.216" y1="236.551" x2="280.933" y2="236.551" gradientUnits="userSpaceOnUse">
<stop stop-color="#5761D7"/>
<stop offset="0.1779" stop-color="#5C66D9"/>
<stop offset="0.3876" stop-color="#6A73DF"/>
<stop offset="0.6134" stop-color="#8289E8"/>
<stop offset="0.849" stop-color="#A3A7F5"/>
<stop offset="1" stop-color="#BCBEFF"/>
</linearGradient>
<linearGradient id="paint33_linear_582_10298" x1="341.119" y1="201.637" x2="334.731" y2="201.637" gradientUnits="userSpaceOnUse">
<stop stop-color="#C0BFF6"/>
<stop offset="0.2938" stop-color="#C5C4F7"/>
<stop offset="0.6399" stop-color="#D3D2F9"/>
<stop offset="1" stop-color="#E9E9FD"/>
</linearGradient>
<linearGradient id="paint34_linear_582_10298" x1="341.898" y1="202.288" x2="336.615" y2="202.288" gradientUnits="userSpaceOnUse">
<stop stop-color="#5761D7"/>
<stop offset="0.1779" stop-color="#5C66D9"/>
<stop offset="0.3876" stop-color="#6A73DF"/>
<stop offset="0.6134" stop-color="#8289E8"/>
<stop offset="0.849" stop-color="#A3A7F5"/>
<stop offset="1" stop-color="#BCBEFF"/>
</linearGradient>
<linearGradient id="paint35_linear_582_10298" x1="158.459" y1="282.584" x2="158.459" y2="142.272" gradientUnits="userSpaceOnUse">
<stop stop-color="#C0BFF6"/>
<stop offset="0.2938" stop-color="#C5C4F7"/>
<stop offset="0.6399" stop-color="#D3D2F9"/>
<stop offset="1" stop-color="#E9E9FD"/>
</linearGradient>
<linearGradient id="paint36_linear_582_10298" x1="258.045" y1="137.085" x2="191.654" y2="137.085" gradientUnits="userSpaceOnUse">
<stop stop-color="#E9E9FD"/>
<stop offset="0.0374" stop-color="#D3D5F7"/>
<stop offset="0.1056" stop-color="#B2B6EF"/>
<stop offset="0.1817" stop-color="#969BE7"/>
<stop offset="0.2663" stop-color="#7F86E1"/>
<stop offset="0.3632" stop-color="#6D75DD"/>
<stop offset="0.4798" stop-color="#606AD9"/>
<stop offset="0.6363" stop-color="#5963D8"/>
<stop offset="1" stop-color="#5761D7"/>
</linearGradient>
<linearGradient id="paint37_linear_582_10298" x1="239.826" y1="135.391" x2="143.483" y2="135.391" gradientUnits="userSpaceOnUse">
<stop stop-color="#C0BFF6"/>
<stop offset="0.2938" stop-color="#C5C4F7"/>
<stop offset="0.6399" stop-color="#D3D2F9"/>
<stop offset="1" stop-color="#E9E9FD"/>
</linearGradient>
<linearGradient id="paint38_linear_582_10298" x1="161.351" y1="161.883" x2="173.089" y2="141.42" gradientUnits="userSpaceOnUse">
<stop stop-color="#C0BFF6"/>
<stop offset="0.2938" stop-color="#C5C4F7"/>
<stop offset="0.6399" stop-color="#D3D2F9"/>
<stop offset="1" stop-color="#E9E9FD"/>
</linearGradient>
<linearGradient id="paint39_linear_582_10298" x1="215.74" y1="152.166" x2="215.74" y2="120.925" gradientUnits="userSpaceOnUse">
<stop stop-color="#5761D7"/>
<stop offset="0.1779" stop-color="#5C66D9"/>
<stop offset="0.3876" stop-color="#6A73DF"/>
<stop offset="0.6134" stop-color="#8289E8"/>
<stop offset="0.849" stop-color="#A3A7F5"/>
<stop offset="1" stop-color="#BCBEFF"/>
</linearGradient>
<linearGradient id="paint40_linear_582_10298" x1="213.841" y1="128.009" x2="188.893" y2="128.009" gradientUnits="userSpaceOnUse">
<stop stop-color="#5761D7"/>
<stop offset="0.1779" stop-color="#5C66D9"/>
<stop offset="0.3876" stop-color="#6A73DF"/>
<stop offset="0.6134" stop-color="#8289E8"/>
<stop offset="0.849" stop-color="#A3A7F5"/>
<stop offset="1" stop-color="#BCBEFF"/>
</linearGradient>
<linearGradient id="paint41_linear_582_10298" x1="207.365" y1="131.741" x2="182.417" y2="131.741" gradientUnits="userSpaceOnUse">
<stop stop-color="#5761D7"/>
<stop offset="0.1779" stop-color="#5C66D9"/>
<stop offset="0.3876" stop-color="#6A73DF"/>
<stop offset="0.6134" stop-color="#8289E8"/>
<stop offset="0.849" stop-color="#A3A7F5"/>
<stop offset="1" stop-color="#BCBEFF"/>
</linearGradient>
<linearGradient id="paint42_linear_582_10298" x1="200.89" y1="135.474" x2="175.943" y2="135.474" gradientUnits="userSpaceOnUse">
<stop stop-color="#5761D7"/>
<stop offset="0.1779" stop-color="#5C66D9"/>
<stop offset="0.3876" stop-color="#6A73DF"/>
<stop offset="0.6134" stop-color="#8289E8"/>
<stop offset="0.849" stop-color="#A3A7F5"/>
<stop offset="1" stop-color="#BCBEFF"/>
</linearGradient>
<linearGradient id="paint43_linear_582_10298" x1="194.413" y1="139.207" x2="169.466" y2="139.207" gradientUnits="userSpaceOnUse">
<stop stop-color="#5761D7"/>
<stop offset="0.1779" stop-color="#5C66D9"/>
<stop offset="0.3876" stop-color="#6A73DF"/>
<stop offset="0.6134" stop-color="#8289E8"/>
<stop offset="0.849" stop-color="#A3A7F5"/>
<stop offset="1" stop-color="#BCBEFF"/>
</linearGradient>
<linearGradient id="paint44_linear_582_10298" x1="200.671" y1="182.27" x2="194.283" y2="182.27" gradientUnits="userSpaceOnUse">
<stop stop-color="#C0BFF6"/>
<stop offset="0.2938" stop-color="#C5C4F7"/>
<stop offset="0.6399" stop-color="#D3D2F9"/>
<stop offset="1" stop-color="#E9E9FD"/>
</linearGradient>
<linearGradient id="paint45_linear_582_10298" x1="201.451" y1="182.922" x2="196.167" y2="182.922" gradientUnits="userSpaceOnUse">
<stop stop-color="#5761D7"/>
<stop offset="0.1779" stop-color="#5C66D9"/>
<stop offset="0.3876" stop-color="#6A73DF"/>
<stop offset="0.6134" stop-color="#8289E8"/>
<stop offset="0.849" stop-color="#A3A7F5"/>
<stop offset="1" stop-color="#BCBEFF"/>
</linearGradient>
<linearGradient id="paint46_linear_582_10298" x1="256.351" y1="148.007" x2="249.963" y2="148.007" gradientUnits="userSpaceOnUse">
<stop stop-color="#C0BFF6"/>
<stop offset="0.2938" stop-color="#C5C4F7"/>
<stop offset="0.6399" stop-color="#D3D2F9"/>
<stop offset="1" stop-color="#E9E9FD"/>
</linearGradient>
<linearGradient id="paint47_linear_582_10298" x1="257.13" y1="148.659" x2="251.847" y2="148.659" gradientUnits="userSpaceOnUse">
<stop stop-color="#5761D7"/>
<stop offset="0.1779" stop-color="#5C66D9"/>
<stop offset="0.3876" stop-color="#6A73DF"/>
<stop offset="0.6134" stop-color="#8289E8"/>
<stop offset="0.849" stop-color="#A3A7F5"/>
<stop offset="1" stop-color="#BCBEFF"/>
</linearGradient>
<linearGradient id="paint48_linear_582_10298" x1="200.671" y1="314.233" x2="194.283" y2="314.233" gradientUnits="userSpaceOnUse">
<stop stop-color="#C0BFF6"/>
<stop offset="0.2938" stop-color="#C5C4F7"/>
<stop offset="0.6399" stop-color="#D3D2F9"/>
<stop offset="1" stop-color="#E9E9FD"/>
</linearGradient>
<linearGradient id="paint49_linear_582_10298" x1="201.451" y1="314.885" x2="196.167" y2="314.885" gradientUnits="userSpaceOnUse">
<stop stop-color="#5761D7"/>
<stop offset="0.1779" stop-color="#5C66D9"/>
<stop offset="0.3876" stop-color="#6A73DF"/>
<stop offset="0.6134" stop-color="#8289E8"/>
<stop offset="0.849" stop-color="#A3A7F5"/>
<stop offset="1" stop-color="#BCBEFF"/>
</linearGradient>
<linearGradient id="paint50_linear_582_10298" x1="256.351" y1="279.971" x2="249.963" y2="279.971" gradientUnits="userSpaceOnUse">
<stop stop-color="#C0BFF6"/>
<stop offset="0.2938" stop-color="#C5C4F7"/>
<stop offset="0.6399" stop-color="#D3D2F9"/>
<stop offset="1" stop-color="#E9E9FD"/>
</linearGradient>
<linearGradient id="paint51_linear_582_10298" x1="257.13" y1="280.623" x2="251.847" y2="280.623" gradientUnits="userSpaceOnUse">
<stop stop-color="#5761D7"/>
<stop offset="0.1779" stop-color="#5C66D9"/>
<stop offset="0.3876" stop-color="#6A73DF"/>
<stop offset="0.6134" stop-color="#8289E8"/>
<stop offset="0.849" stop-color="#A3A7F5"/>
<stop offset="1" stop-color="#BCBEFF"/>
</linearGradient>
<linearGradient id="paint52_linear_582_10298" x1="268.755" y1="274.88" x2="417.186" y2="274.88" gradientUnits="userSpaceOnUse">
<stop stop-color="#42E8E0"/>
<stop offset="0.1507" stop-color="#43E3E0"/>
<stop offset="0.3285" stop-color="#45D5DF"/>
<stop offset="0.5199" stop-color="#49BDDD"/>
<stop offset="0.7209" stop-color="#4E9CDB"/>
<stop offset="0.9274" stop-color="#5472D8"/>
<stop offset="1" stop-color="#5761D7"/>
</linearGradient>
<linearGradient id="paint53_linear_582_10298" x1="268.216" y1="263.579" x2="388.453" y2="263.579" gradientUnits="userSpaceOnUse">
<stop stop-color="#5761D7"/>
<stop offset="0.1779" stop-color="#5C66D9"/>
<stop offset="0.3876" stop-color="#6A73DF"/>
<stop offset="0.6134" stop-color="#8289E8"/>
<stop offset="0.849" stop-color="#A3A7F5"/>
<stop offset="1" stop-color="#BCBEFF"/>
</linearGradient>
<radialGradient id="paint54_radial_582_10298" cx="0" cy="0" r="1" gradientUnits="userSpaceOnUse" gradientTransform="translate(296.473 227.434) scale(57.3554 57.4403)">
<stop stop-color="#42E8E0"/>
<stop offset="1" stop-color="#4318FF"/>
</radialGradient>
<linearGradient id="paint55_linear_582_10298" x1="268.214" y1="245.477" x2="406.421" y2="245.477" gradientUnits="userSpaceOnUse">
<stop stop-color="#5761D7"/>
<stop offset="0.1779" stop-color="#5C66D9"/>
<stop offset="0.3876" stop-color="#6A73DF"/>
<stop offset="0.6134" stop-color="#8289E8"/>
<stop offset="0.849" stop-color="#A3A7F5"/>
<stop offset="1" stop-color="#BCBEFF"/>
</linearGradient>
<linearGradient id="paint56_linear_582_10298" x1="291.521" y1="277.127" x2="411.759" y2="277.127" gradientUnits="userSpaceOnUse">
<stop stop-color="#C0BFF6"/>
<stop offset="0.2938" stop-color="#C5C4F7"/>
<stop offset="0.6399" stop-color="#D3D2F9"/>
<stop offset="1" stop-color="#E9E9FD"/>
</linearGradient>
<linearGradient id="paint57_linear_582_10298" x1="228.888" y1="326.264" x2="283.687" y2="326.264" gradientUnits="userSpaceOnUse">
<stop stop-color="#5761D7"/>
<stop offset="0.0726" stop-color="#5472D8"/>
<stop offset="0.2791" stop-color="#4E9CDB"/>
<stop offset="0.4801" stop-color="#49BDDD"/>
<stop offset="0.6715" stop-color="#45D5DF"/>
<stop offset="0.8493" stop-color="#43E3E0"/>
<stop offset="1" stop-color="#42E8E0"/>
</linearGradient>
</defs>
</svg>
