<svg width="1440" height="808" viewBox="0 0 1440 808" fill="none" xmlns="http://www.w3.org/2000/svg">
<mask id="mask0_796_700" style="mask-type:luminance" maskUnits="userSpaceOnUse" x="-1" y="0" width="1441" height="808">
<path d="M1440 0H-1V807.56H1440V0Z" fill="white"/>
</mask>
<g mask="url(#mask0_796_700)">
<mask id="mask1_796_700" style="mask-type:luminance" maskUnits="userSpaceOnUse" x="-1" y="0" width="1441" height="808">
<path d="M1440 0H-1V807.56H1440V0Z" fill="white"/>
</mask>
<g mask="url(#mask1_796_700)">
<path d="M-1 797.609C-1 528.69 -1 259.77 -1 -9.20117C479.333 -9.20117 959.667 -9.20117 1440 -9.20117C1440 228.992 1440 467.139 1440 705.287C1439.57 705.535 1439.09 705.715 1438.72 706.03C1399.74 739.473 1355.33 762.935 1306.27 777.742C1283.38 784.647 1259.94 789 1236.11 790.434C1223.56 791.192 1210.83 791.297 1198.34 790.096C1175.78 787.927 1155.17 779.138 1135.25 768.766C1109.92 755.587 1086.41 739.511 1063.04 723.225C1032.08 701.647 1001.57 679.402 968.966 660.278C936.265 641.103 902.177 625.424 864.598 618.369C834.427 612.703 804.782 613.844 775.684 624.373C750.504 633.477 727.163 646.146 704.797 660.631C676.172 679.169 647.953 698.322 619.305 716.83C597.128 731.158 574.042 743.841 548.764 752.007C532.966 757.111 516.747 760.503 500.145 758.732C481.93 756.788 463.76 754.101 445.725 750.866C413.348 745.05 381.09 738.58 348.788 732.381C319.773 726.812 290.825 720.83 261.72 715.787C242.567 712.47 223.211 710.241 203.892 707.974C184.086 705.655 164.227 705.722 144.503 709.092C109.229 715.119 77.7446 729.912 48.9622 750.829C30.3643 764.346 13.7552 779.987 -1 797.609Z" fill="#4318FF"/>
</g>
</g>
<path d="M1416 566.612C1427.53 556.954 1444.78 590.728 1453.86 610.551L1455 697.673C1277.05 828.734 1174.83 779.491 1065.41 747.294C986.363 724.034 906.393 701.839 876.105 694.264C800.761 671.915 707.244 702.597 639.094 727.597C534.598 770.021 461.148 745.021 350.972 723.809L235.496 701.839C89.7307 677.976 19.6877 770.779 0 790.855V604.87C34.4536 583.657 78.751 556.385 132.892 587.445C176.205 612.294 238.02 599.314 263.513 589.718C401.706 538.203 426.315 582.142 461.148 614.718C467.332 621.536 482.274 637.142 492.572 645.021C536.112 675.703 553.15 660.93 576.245 637.445C599.34 613.96 610.699 595.021 627.736 581.006C644.774 566.991 652.724 556.763 676.577 554.491C700.429 552.218 707.244 547.294 765.172 502.218C857.25 433.43 937.061 462.192 965.457 485.172C1000.29 504.112 1072.98 582.231 1101.38 605.627C1121.97 622.597 1140.75 625.324 1147.57 624.567C1174.07 619.642 1189.59 618.885 1233.13 652.597C1267.97 679.567 1296.87 683.531 1306.96 681.764C1372.08 656.006 1399.72 580.248 1416 566.612Z" fill="#2B09C0" fill-opacity="0.5"/>
</svg>
