<svg width="61" height="56" viewBox="0 0 61 56" fill="none" xmlns="http://www.w3.org/2000/svg">
<path d="M7.60018 43.4182C7.71261 44.2082 7.91754 44.9821 8.21078 45.7243C8.51569 46.5147 8.98041 47.2339 9.57593 47.8369C11.502 49.7463 14.004 49.7413 16.7442 49.7413H18.0448C19.1717 48.1196 21.8176 46.9839 24.8954 46.9839C29.0008 46.9839 32.3417 49.0024 32.3417 51.4969C32.3417 53.9914 29.0107 56.0098 24.8954 56.0098C21.8822 56.0098 19.2859 54.9188 18.1193 53.3516H16.7442C13.2296 53.3516 10.0177 53.3516 7.03923 50.4058C6.09479 49.4564 5.35484 48.324 4.86491 47.0782C4.40548 45.9033 4.10498 44.6725 3.97135 43.4182C2.91077 43.3924 1.90219 42.9539 1.16041 42.1962C0.418633 41.4385 0.00227202 40.4214 0 39.3616L0 24.7317C0.0026216 23.6566 0.431287 22.6263 1.19225 21.8661C1.95321 21.1059 2.98455 20.6777 4.06071 20.6751H4.34863C5.08333 13.1618 9.80925 7.28504 16.1982 3.76892C19.9879 1.696 24.1729 0.445465 28.4796 0.099069C32.8563 -0.283029 37.2626 0.339513 41.3617 1.91912C48.5349 4.75086 54.5466 10.7664 56.8748 20.6751H56.9393C58.0154 20.6777 59.0468 21.1059 59.8078 21.8661C60.5687 22.6263 60.9974 23.6566 61 24.7317V39.3616C60.9974 40.4366 60.5687 41.467 59.8078 42.2272C59.0468 42.9874 58.0154 43.4156 56.9393 43.4182H52.8786V21.0321C50.7986 12.894 45.8145 7.9347 39.9022 5.61377C36.3664 4.25446 32.566 3.72179 28.7923 4.05656C25.0526 4.35068 21.4173 5.43057 18.1243 7.22553C12.5942 10.2904 8.55827 15.3736 8.23063 21.8454C8.22243 22.0399 8.18563 22.232 8.12142 22.4158V43.4182H7.60018Z" fill="white"/>
</svg>
