<svg width="58" height="58" viewBox="0 0 58 58" fill="none" xmlns="http://www.w3.org/2000/svg">
<path d="M4.3758 23.5081C5.05559 22.8285 5.97746 22.4467 6.93868 22.4467C7.8999 22.4467 8.82177 22.8285 9.50155 23.5081L22.3196 36.3261L47.9483 10.6937C48.2849 10.3569 48.6845 10.0897 49.1243 9.90734C49.5641 9.72498 50.0356 9.63103 50.5117 9.63086C50.9878 9.63069 51.4594 9.72431 51.8993 9.90636C52.3393 10.0884 52.7391 10.3553 53.0759 10.6919C53.4127 11.0285 53.6799 11.4281 53.8622 11.8679C54.0446 12.3077 54.1386 12.7792 54.1387 13.2553C54.1389 13.7315 54.0453 14.203 53.8632 14.6429C53.6812 15.0829 53.4142 15.4827 53.0777 15.8195L22.3196 46.5776L4.3758 28.6338C3.69622 27.9541 3.31445 27.0322 3.31445 26.071C3.31445 25.1097 3.69622 24.1879 4.3758 23.5081Z" fill="white"/>
</svg>
