<svg width="94" height="128" viewBox="0 0 94 128" fill="none" xmlns="http://www.w3.org/2000/svg">
<path d="M47.0454 125.532L12.0592 115.823L4.25098 28.4629H89.9604L82.1522 115.808" fill="#4B4B4D"/>
<path d="M75.4743 110.254L82.1369 35.6123H47.1055V118.096" fill="#4B4B4D"/>
<path d="M49.3516 4.72632V9.13648L54.0395 15.7442H49.7133V21.0123H62.6768V15.985L58.3506 10.4761H62.6768V4.72632" fill="#4B4B4D"/>
<path d="M49.0498 46.3293V57.0311L73.0322 56.5043L73.9517 46.3293" fill="#4B4B4D"/>
<path d="M69.113 68.0037H49.0498V78.7205L62.7368 77.8324L61.5007 92.1768L49.0498 95.3075V106.446L69.0678 100.907L69.2185 99.0855L71.7509 70.8785L72.0071 68.0037" fill="#4B4B4D"/>
<path d="M57.9132 73.4976H49.0498V51.6726H58.893" fill="#4B4B4D"/>
<path d="M44.8141 95.2324L30.9312 91.2889L30.4941 85.2983L23.5752 84.0791L25.0826 100.907L44.8141 106.371" fill="#4B4B4D"/>
<path d="M44.814 46.3291H35.6943L37.5936 101.223H44.814" fill="#4B4B4D"/>
<path d="M39.2067 4.72632V15.6238H36.9909V13.6068H31.5342V21.0123H44.6634V4.72632" fill="#4B4B4D"/>
<path d="M47.0454 125.532L12.0592 115.823L4.25098 28.4629H89.9604L82.1522 115.808" fill="#F48131"/>
<path d="M75.4743 110.254L82.1369 35.6123H47.1055V118.096" fill="#F99C35"/>
<path fill-rule="evenodd" clip-rule="evenodd" d="M49.3516 4.72632V9.13648L54.0395 15.7442H49.7133V21.0123H62.6768V15.985L58.3506 10.4761H62.6768V4.72632" fill="black"/>
<path d="M49.0498 46.3293V57.0311L73.0322 56.5043L73.9517 46.3293" fill="white"/>
<path d="M69.113 68.0037H49.0498V78.7205L62.7368 77.8324L61.5007 92.1768L49.0498 95.3075V106.446L69.0678 100.907L69.2185 99.0855L71.7509 70.8785L72.0071 68.0037" fill="white"/>
<path d="M57.9132 73.4976H49.0498V51.6726H58.893" fill="white"/>
<path d="M44.8141 95.2324L30.9312 91.2889L30.4941 85.2983L23.5752 84.0791L25.0826 100.907L44.8141 106.371" fill="#EBEBEC"/>
<path d="M44.814 46.3291H35.6943L37.5936 101.223H44.814" fill="#EBEBEC"/>
<path fill-rule="evenodd" clip-rule="evenodd" d="M39.2067 4.72632V15.6238H36.9909V13.6068H31.5342V21.0123H44.6634V4.72632" fill="black"/>
</svg>
