<svg width="18" height="16" viewBox="0 0 18 16" fill="none" xmlns="http://www.w3.org/2000/svg">
<path d="M16.9708 8.61628L16.9707 8.61635L16.4413 12.5048L16.4411 12.5064C16.3478 13.1755 16.0257 13.7913 15.5285 14.2401C15.031 14.6894 14.3913 14.9409 13.7253 14.9446L13.7226 14.9446L6.7488 14.9446H6.2488V14.4446V5.6831V5.461L6.41359 5.31211C6.43678 5.29115 6.457 5.26523 6.47264 5.23516L8.11124 1.79207L8.11626 1.78152L8.12177 1.77122C8.21985 1.58775 8.35948 1.42921 8.53059 1.30985C8.70179 1.19043 8.89924 1.11395 9.10684 1.08807C9.31448 1.06218 9.5248 1.08785 9.72011 1.16245C9.91533 1.237 10.0889 1.35787 10.2275 1.5135L10.2333 1.52005L10.2389 1.5268C10.3592 1.67188 10.4462 1.84149 10.4947 2.02315C10.5432 2.20434 10.5526 2.39403 10.5223 2.57908C10.5222 2.57953 10.5221 2.57998 10.5221 2.58043L10.1268 5.06504C10.1268 5.06523 10.1267 5.06541 10.1267 5.06559C10.1202 5.10767 10.1226 5.15069 10.1335 5.1914C10.1445 5.23225 10.1636 5.26888 10.1884 5.2991C10.2132 5.32927 10.2428 5.35214 10.2745 5.36733C10.3061 5.38248 10.3396 5.38995 10.3729 5.38997L16.9708 8.61628ZM16.9708 8.61628C17.025 8.21731 16.9961 7.81083 16.8858 7.42402C16.7754 7.03718 16.5859 6.67817 16.3291 6.37161C16.0722 6.065 15.7537 5.81784 15.3944 5.64801C15.035 5.47815 14.6438 5.38992 14.2475 5.38997C14.2474 5.38997 14.2474 5.38997 14.2474 5.38997M16.9708 8.61628L14.2474 5.38997M14.2474 5.38997H10.373H14.2474ZM14.2475 4.83458H14.2476C14.7096 4.83447 15.1669 4.9373 15.5886 5.13679C16.0103 5.33631 16.3873 5.6282 16.6932 5.99384L16.694 5.99474C17.0011 6.36009 17.2299 6.79077 17.3639 7.25801C17.4978 7.72527 17.5335 8.21732 17.4683 8.70056L16.94 12.5864C16.94 12.5866 16.9399 12.5869 16.9399 12.5871C16.8257 13.3991 16.4348 14.1381 15.8428 14.6713C15.2514 15.204 14.4985 15.4964 13.7215 15.5H3.74995C2.89432 15.4989 2.07018 15.1461 1.4594 14.5127C0.848094 13.8787 0.501114 13.0154 0.5 12.1112V8.22335C0.501114 7.3192 0.848094 6.4559 1.4594 5.8219C2.07009 5.18855 2.89409 4.83574 3.74959 4.83458C3.74971 4.83458 3.74983 4.83458 3.74995 4.83458L5.78297 4.83458H6.09875L6.23445 4.54943L7.6697 1.53353L7.66991 1.53309C7.86104 1.13043 8.18312 0.816964 8.57319 0.645296C8.96278 0.473841 9.39753 0.453563 9.79964 0.587473L9.95762 0.113086L9.79965 0.587473C10.2022 0.721522 10.5493 1.00273 10.7743 1.38484C10.9994 1.76733 11.0855 2.22323 11.0144 2.66855L11.0144 2.66891L10.7624 4.25619L10.6706 4.83458H11.2562H14.2475ZM5.74906 5.88997V5.38997H5.24906H3.74933C3.01409 5.38997 2.31282 5.69305 1.79869 6.22625C1.28516 6.75884 0.999733 7.47743 0.999733 8.22305V12.1115C0.999733 12.8571 1.28516 13.5757 1.79869 14.1083C2.31282 14.6415 3.01409 14.9446 3.74933 14.9446H5.24906H5.74906V14.4446V5.88997Z" stroke="#38404F"/>
</svg>
