<svg width="16" height="15" viewBox="0 0 16 15" fill="none" xmlns="http://www.w3.org/2000/svg">
<path d="M8.6626 6.16992H8.70654V6.12598C8.67725 6.12598 8.6626 6.14062 8.6626 6.16992ZM3.88721 4.80029V14.0947H0.781738V4.80029H3.88721ZM2.3418 3.50391C1.80469 3.50391 1.38232 3.35254 1.07471 3.0498C0.76709 2.74219 0.613281 2.36865 0.613281 1.9292C0.613281 1.45557 0.776855 1.07227 1.104 0.779297C1.43115 0.486328 1.8584 0.339844 2.38574 0.339844C2.87891 0.339844 3.28174 0.486328 3.59424 0.779297C3.90674 1.07227 4.08252 1.45557 4.12158 1.9292C4.12158 2.36865 3.95557 2.74219 3.62354 3.0498C3.2915 3.35254 2.86426 3.50391 2.3418 3.50391ZM15.0273 8.78467V14.0947H11.9292V9.14355C11.9292 8.51855 11.8096 8.00586 11.5703 7.60547C11.3359 7.20508 10.9453 7.00488 10.3984 7.00488C9.9541 7.00488 9.60498 7.12451 9.35107 7.36377C9.09717 7.59814 8.90674 7.85938 8.77979 8.14746C8.73096 8.24512 8.70654 8.3623 8.70654 8.49902C8.70654 8.63086 8.70654 8.76514 8.70654 8.90186V14.0947H5.61572V9.79541V4.80029H8.70654V6.12598C8.92139 5.79883 9.22656 5.45947 9.62207 5.10791C10.0225 4.75635 10.645 4.58057 11.4897 4.58057C12.52 4.58057 13.3672 4.91748 14.0312 5.59131C14.6953 6.26514 15.0273 7.32959 15.0273 8.78467Z" fill="#11181C" fill-opacity="0.38"/>
</svg>
