<svg width="29" height="28" viewBox="0 0 29 28" fill="none" xmlns="http://www.w3.org/2000/svg">
<g clip-path="url(#clip0_178_811)">
<path d="M14.1572 0C6.43739 0 0.157227 6.28017 0.157227 14C0.157227 21.7198 6.43739 28 14.1572 28H28.1572V14C28.1572 6.28017 21.8771 0 14.1572 0ZM12.9906 15.1667C12.9906 17.7403 10.8976 19.8333 8.32389 19.8333V17.5C9.61073 17.5 10.6572 16.4535 10.6572 15.1667H7.15723V11.6667C7.15723 10.3798 8.20373 9.33333 9.49056 9.33333H12.9906V15.1667ZM21.1572 15.1667C21.1572 17.7403 19.0642 19.8333 16.4906 19.8333V17.5C17.7774 17.5 18.8239 16.4535 18.8239 15.1667H15.3239V11.6667C15.3239 10.3798 16.3704 9.33333 17.6572 9.33333H21.1572V15.1667Z" fill="#4318FF"/>
</g>
<defs>
<clipPath id="clip0_178_811">
<rect width="28" height="28" fill="white" transform="translate(0.157227)"/>
</clipPath>
</defs>
</svg>
