<svg width="137" height="27" viewBox="0 0 137 27" fill="none" xmlns="http://www.w3.org/2000/svg">
<g clip-path="url(#clip0_414_230)">
<path d="M136.71 14.1517C136.66 17.9858 133.651 20.9855 129.82 21.001C127.146 21.0134 124.466 20.9762 121.789 21.0041C121.104 21.0103 120.88 20.7994 120.896 20.1045C120.939 18.1875 120.924 16.2704 120.89 14.3533C120.883 14.0307 120.719 13.6585 120.517 13.3948C120.04 12.7651 119.999 12.0516 120.502 11.5398C120.989 11.0435 121.836 11.028 122.354 11.5026C122.909 12.0113 122.928 12.6907 122.493 13.3452C122.289 13.6492 122.118 14.0369 122.106 14.3906C122.059 15.6252 122.112 16.8598 122.081 18.0913C122.065 18.6373 122.292 18.7551 122.779 18.752C125.142 18.7365 127.503 18.7613 129.867 18.7396C132.181 18.7148 134.238 16.7574 134.427 14.4495C134.625 12.0144 132.922 9.77164 130.543 9.38078C130.006 9.29392 129.448 9.29392 128.902 9.32494C128.257 9.36837 127.897 9.17604 127.9 8.47188C127.903 6.88674 127.379 5.49082 126.346 4.28723C123.874 1.39303 119.258 1.6505 116.984 4.80527C116.534 5.42878 116.274 5.78552 115.998 5.94372C114.968 5.33262 113.618 4.96347 112.148 4.96347C110.811 4.96347 109.437 5.26437 108.28 5.95303C108.094 6.0616 107.917 6.18258 107.746 6.31286C107.585 6.43694 107.439 6.57964 107.29 6.71613C107.2 6.79678 107.104 6.87433 106.992 6.92707C106.865 6.986 106.691 7.02943 106.567 6.94878C106.521 6.91776 106.481 6.87433 106.443 6.834C106.437 6.8278 106.431 6.8216 106.431 6.81229C106.431 6.80609 106.434 6.80298 106.437 6.79678C106.453 6.77817 106.468 6.76266 106.484 6.74405C106.558 6.65098 106.633 6.55792 106.704 6.46176C106.85 6.27254 106.989 6.08021 107.135 5.88788C107.38 5.56527 107.641 5.25196 107.948 4.98829C109.837 3.35662 112.036 2.77964 114.474 3.42486C115.086 3.58617 115.324 3.26666 115.641 2.90992C119.444 -1.36779 125.986 -0.859054 128.942 3.97392C129.386 4.6967 129.659 5.54356 129.91 6.36249C130.056 6.84021 130.258 7.02323 130.745 7.11319C134.346 7.78943 136.756 10.6588 136.71 14.1517Z" fill="#4318FF"/>
<path d="M38.5895 7.86976C38.5802 8.13033 38.4964 8.43123 38.3475 8.63906C36.2939 11.5364 34.2249 14.4182 32.1558 17.3031C31.2717 18.5346 30.3908 19.7661 29.4881 20.9852C29.3733 21.1403 29.1437 21.3078 28.9669 21.3078C27.3477 21.3264 25.7284 21.3078 24.1091 21.2985C24.0688 21.2985 24.0316 21.2706 23.9292 21.2302C26.8048 17.2131 29.6649 13.2177 32.5932 9.12919C32.283 9.10747 32.1 9.08576 31.9139 9.08576C29.1655 9.08266 26.4171 9.07335 23.6655 9.09196C23.222 9.09506 23.0606 8.98339 23.0855 8.52119C23.132 7.60298 23.1351 6.68168 23.1351 5.76037C23.1351 5.41294 23.2623 5.30127 23.6097 5.30437C28.4675 5.31368 33.3284 5.31368 38.1862 5.30127C38.5181 5.30127 38.6143 5.38502 38.5988 5.73245C38.5646 6.44282 38.6174 7.15939 38.5895 7.86976Z" fill="#4318FF"/>
<path d="M38.6296 22.1642V26.0231C38.4745 26.0325 38.3163 26.0449 38.1612 26.0449C33.6167 26.048 29.0722 26.0449 24.5277 26.0573C24.2113 26.0573 24.0531 25.9642 23.9352 25.6695C23.594 24.832 23.2187 24.0068 22.865 23.1755C22.6758 22.7319 23.048 22.1425 23.5165 22.1425C28.4766 22.1394 33.4368 22.1425 38.3969 22.1425C38.4559 22.1425 38.5148 22.1518 38.6296 22.1642Z" fill="#4318FF"/>
<path d="M55.8646 15.0604C55.8646 10.6679 53.687 6.2041 47.9544 6.2041C41.7844 6.2041 38.9895 11.1767 38.9895 15.6777C38.9895 21.2304 42.4359 24.714 48.4631 24.714C50.8579 24.714 53.0697 24.351 54.8875 23.6252L54.1585 19.8872C52.6726 20.3587 51.1464 20.6131 49.2604 20.6131C46.6826 20.6131 44.4336 19.5243 44.2506 17.2381H55.6847C55.756 16.8379 55.8646 16.0034 55.8646 15.0604ZM44.2164 13.4629C44.3622 11.9739 45.3053 9.87071 47.6256 9.87071C50.1693 9.87071 50.7493 12.1197 50.7493 13.4629H44.2164Z" fill="#4318FF"/>
<path d="M69.6563 6.2041C66.7155 6.2041 64.9008 7.91022 64.1749 9.03626H64.0664L63.812 6.60426H59.0225C59.0938 8.16459 59.1683 10.0506 59.1683 12.2655V24.351H64.6837V14.1143C64.6837 13.6087 64.755 13.0627 64.9008 12.737C65.2638 11.7195 66.1727 10.6679 67.6958 10.6679C69.6904 10.6679 70.4907 12.2283 70.4907 14.5145V24.351H76.0061V13.8258C76.0061 8.59888 73.2856 6.2041 69.6563 6.2041Z" fill="#4318FF"/>
<path d="M88.8889 6.2041C83.1905 6.2041 79.4153 9.87071 79.4153 15.6033C79.4153 21.339 83.4076 24.7481 88.5973 24.7481C93.3527 24.7481 97.9624 21.7732 97.9624 15.2776C97.9624 9.94206 94.333 6.2041 88.8889 6.2041ZM88.7431 20.793C86.3856 20.793 85.1137 18.5068 85.1137 15.4575C85.1137 12.8456 86.094 10.122 88.7431 10.122C91.2465 10.122 92.2639 12.8083 92.2639 15.4575C92.2639 18.6526 90.8835 20.793 88.7431 20.793Z" fill="#4318FF"/>
<path d="M111.86 6.2041C108.919 6.2041 107.104 7.91022 106.378 9.03626H106.27L106.015 6.60426H101.226C101.297 8.16459 101.372 10.0506 101.372 12.2655V24.351H106.887V14.1143C106.887 13.6087 106.958 13.0627 107.104 12.737C107.467 11.7195 108.376 10.6679 109.899 10.6679C111.897 10.6679 112.694 12.2283 112.694 14.5145V24.351H118.209V13.8258C118.209 8.59888 115.489 6.2041 111.86 6.2041Z" fill="#4318FF"/>
<path d="M23.1785 26.1316H22.7753C21.3111 26.1316 19.85 26.1284 18.3859 26.1409C18.1439 26.144 18.0291 26.0664 17.933 25.8431C17.4584 24.7822 16.9558 23.7337 16.4874 22.6728C16.3758 22.4215 16.2362 22.3533 15.9725 22.3564C13.9934 22.3688 12.0143 22.3657 10.0352 22.3657H9.56988C9.78703 21.9004 9.94523 21.463 10.1872 21.0721C10.6959 20.247 11.2326 19.4405 11.7847 18.6463C11.8685 18.5254 12.0794 18.4385 12.2345 18.4354C12.9728 18.4137 13.7142 18.4261 14.5114 18.4261C14.3563 18.0849 14.2354 17.8026 14.1051 17.5234C12.3834 13.8289 10.6711 10.1374 8.93397 6.45221C8.71682 5.99621 9.06115 5.73564 9.18833 5.40683C9.22246 5.31376 9.51095 5.28585 9.68466 5.28274C10.8572 5.27344 12.0329 5.28274 13.2086 5.27344C13.404 5.27344 13.5002 5.32617 13.587 5.51229C16.7573 12.3213 19.9369 19.1271 23.1134 25.9361C23.132 25.9764 23.1444 26.023 23.1785 26.1316Z" fill="#4318FF"/>
<path d="M6.57322 22.7472C6.10171 23.7957 5.624 24.841 5.13388 25.8802C5.08424 25.9857 4.94465 26.1191 4.84539 26.1191C3.25094 26.1346 1.65649 26.1315 0 26.1315C0.428081 25.1792 0.828245 24.2827 1.22841 23.3893C1.92947 21.8259 2.63363 20.2655 3.33469 18.7021C3.47428 18.395 4.09779 18.2895 4.32114 18.5625C5.27657 19.7289 6.04898 21.0069 6.59494 22.4152C6.63216 22.5083 6.61665 22.651 6.57322 22.7472Z" fill="#4318FF"/>
<path d="M7.94427 24.0284C7.94427 24.1401 7.92255 24.2518 7.91015 24.3759C7.41382 24.1835 7.30215 23.923 7.45415 23.498C7.50068 23.3677 7.47276 23.194 7.42933 23.0513C6.88647 21.2459 6.07064 19.577 4.87635 18.1035C4.73986 17.936 4.70574 17.812 4.78949 17.5979C5.31684 16.2361 5.82868 14.8681 6.32811 13.497C6.40566 13.2768 6.49251 13.1899 6.72517 13.2023C7.09121 13.2209 7.46035 13.2085 7.86982 13.2085V15.1411C7.86982 15.5599 7.86672 15.9787 7.87292 16.4005C7.87602 16.7169 7.89153 16.993 7.55651 17.2319C7.18737 17.4924 7.29594 18.088 7.71472 18.3238C7.88843 18.4231 7.94117 18.5223 7.94117 18.7115C7.94117 20.4797 7.94737 22.2541 7.94427 24.0284Z" fill="#4318FF"/>
<path d="M8.78496 22.93C8.7043 23.203 8.63916 23.4512 8.83459 23.7086C8.88112 23.7676 8.8439 23.9289 8.79116 24.0126C8.695 24.1739 8.56161 24.3166 8.44373 24.4655C8.4003 24.4469 8.35688 24.4283 8.31655 24.4066C8.29173 24.2918 8.24831 24.1802 8.24831 24.0654C8.2421 22.2662 8.239 20.4701 8.24831 18.674C8.24831 18.5655 8.33516 18.4104 8.42822 18.3514C8.92455 18.0474 8.99279 17.4425 8.51818 17.1106C8.33826 16.9834 8.30724 16.8593 8.30724 16.6732C8.31345 15.5348 8.31035 14.3994 8.31035 13.202C8.76014 13.202 9.16341 13.1927 9.56667 13.2113C9.65353 13.2144 9.77451 13.3168 9.80553 13.4006C10.3453 14.8337 10.8788 16.27 11.3938 17.7093C11.4279 17.8055 11.3565 17.9761 11.2821 18.0722C10.1343 19.5333 9.31541 21.1557 8.78496 22.93Z" fill="#4318FF"/>
<path d="M9.42397 10.6121H6.8772C7.30218 9.65362 7.71165 8.72611 8.15834 7.71484C8.59262 8.7075 8.99899 9.63501 9.42397 10.6121Z" fill="#4318FF"/>
<path d="M10.2088 12.4514C10.2026 12.7585 9.96688 12.8237 9.69701 12.8237C8.64231 12.8206 7.58452 12.8206 6.52982 12.8206C6.25684 12.8206 5.99317 12.7802 5.99937 12.4359C6.00558 12.0947 6.26925 12.0606 6.54223 12.0637C7.06958 12.0668 7.59693 12.0637 8.12427 12.0637V12.0699C8.65162 12.0699 9.17897 12.073 9.70631 12.0668C9.98239 12.0668 10.2119 12.1443 10.2088 12.4514Z" fill="#4318FF"/>
<path d="M10.1963 11.3257C10.2056 11.6142 10.0133 11.7166 9.7465 11.7166C9.19744 11.7166 8.64528 11.7166 8.09622 11.7166V11.7104C7.55646 11.7104 7.01981 11.7073 6.48005 11.7104C6.22259 11.7135 6.01165 11.6359 6.00854 11.3443C6.00854 11.0558 6.21638 10.9721 6.47695 10.9752C7.56577 10.9783 8.65458 10.9783 9.7434 10.9783C9.98846 10.9783 10.187 11.0527 10.1963 11.3257Z" fill="#4318FF"/>
<path d="M18.3486 10.8446L22.4185 19.6265L28.8428 10.8446H18.3486ZM22.5643 19.0371L21.3607 16.4407H24.4628L22.5643 19.0371ZM22.8683 15.2588V15.2433L23.2871 14.8959C23.9447 14.3096 24.4938 13.7016 24.4938 12.9385C24.4938 12.1165 23.9292 11.5147 22.9024 11.5147C22.2882 11.5147 21.7578 11.7256 21.4166 11.9831L21.7175 12.7431C21.9532 12.5631 22.2975 12.3677 22.6884 12.3677C23.2095 12.3677 23.4329 12.6593 23.4329 13.0316C23.4205 13.562 22.9397 14.0707 21.947 14.9579L21.3607 15.4884V16.1305L18.8791 11.1672H27.875L24.5806 15.9599V15.2588H22.8683ZM18.3486 10.8446L22.4185 19.6265L28.8428 10.8446H18.3486ZM22.5643 19.0371L21.3607 16.4407H24.4628L22.5643 19.0371ZM22.8683 15.2588V15.2433L23.2871 14.8959C23.9447 14.3096 24.4938 13.7016 24.4938 12.9385C24.4938 12.1165 23.9292 11.5147 22.9024 11.5147C22.2882 11.5147 21.7578 11.7256 21.4166 11.9831L21.7175 12.7431C21.9532 12.5631 22.2975 12.3677 22.6884 12.3677C23.2095 12.3677 23.4329 12.6593 23.4329 13.0316C23.4205 13.562 22.9397 14.0707 21.947 14.9579L21.3607 15.4884V16.1305L18.8791 11.1672H27.875L24.5806 15.9599V15.2588H22.8683ZM16.3975 9.61621L22.2913 22.3346L31.5975 9.61621H16.3975ZM22.2417 21.404L16.9279 9.93882H30.6296L22.2417 21.404ZM18.3486 10.8446L22.4185 19.6265L28.8428 10.8446H18.3486ZM22.5643 19.0371L21.3607 16.4407H24.4628L22.5643 19.0371ZM22.8683 15.2588V15.2433L23.2871 14.8959C23.9447 14.3096 24.4938 13.7016 24.4938 12.9385C24.4938 12.1165 23.9292 11.5147 22.9024 11.5147C22.2882 11.5147 21.7578 11.7256 21.4166 11.9831L21.7175 12.7431C21.9532 12.5631 22.2975 12.3677 22.6884 12.3677C23.2095 12.3677 23.4329 12.6593 23.4329 13.0316C23.4205 13.562 22.9397 14.0707 21.947 14.9579L21.3607 15.4884V16.1305L18.8791 11.1672H27.875L24.5806 15.9599V15.2588H22.8683ZM18.3486 10.8446L22.4185 19.6265L28.8428 10.8446H18.3486ZM22.5643 19.0371L21.3607 16.4407H24.4628L22.5643 19.0371ZM22.8683 15.2588V15.2433L23.2871 14.8959C23.9447 14.3096 24.4938 13.7016 24.4938 12.9385C24.4938 12.1165 23.9292 11.5147 22.9024 11.5147C22.2882 11.5147 21.7578 11.7256 21.4166 11.9831L21.7175 12.7431C21.9532 12.5631 22.2975 12.3677 22.6884 12.3677C23.2095 12.3677 23.4329 12.6593 23.4329 13.0316C23.4205 13.562 22.9397 14.0707 21.947 14.9579L21.3607 15.4884V16.1305L18.8791 11.1672H27.875L24.5806 15.9599V15.2588H22.8683ZM18.3486 10.8446L22.4185 19.6265L28.8428 10.8446H18.3486ZM22.5643 19.0371L21.3607 16.4407H24.4628L22.5643 19.0371ZM22.8683 15.2588V15.2433L23.2871 14.8959C23.9447 14.3096 24.4938 13.7016 24.4938 12.9385C24.4938 12.1165 23.9292 11.5147 22.9024 11.5147C22.2882 11.5147 21.7578 11.7256 21.4166 11.9831L21.7175 12.7431C21.9532 12.5631 22.2975 12.3677 22.6884 12.3677C23.2095 12.3677 23.4329 12.6593 23.4329 13.0316C23.4205 13.562 22.9397 14.0707 21.947 14.9579L21.3607 15.4884V16.1305L18.8791 11.1672H27.875L24.5806 15.9599V15.2588H22.8683Z" fill="#4318FF"/>
<path d="M18.3486 10.8446L22.4185 19.6265L28.8428 10.8446H18.3486ZM22.5643 19.0371L21.3607 16.4407H24.4628L22.5643 19.0371ZM22.8683 15.2588V15.2433L23.2871 14.8959C23.9447 14.3096 24.4938 13.7016 24.4938 12.9385C24.4938 12.1165 23.9292 11.5147 22.9024 11.5147C22.2882 11.5147 21.7578 11.7256 21.4166 11.9831L21.7175 12.7431C21.9532 12.5631 22.2975 12.3677 22.6884 12.3677C23.2095 12.3677 23.4329 12.6593 23.4329 13.0316C23.4205 13.562 22.9397 14.0707 21.947 14.9579L21.3607 15.4884V16.1305L18.8791 11.1672H27.875L24.5806 15.9599V15.2588H22.8683ZM18.3486 10.8446L22.4185 19.6265L28.8428 10.8446H18.3486ZM22.5643 19.0371L21.3607 16.4407H24.4628L22.5643 19.0371ZM22.8683 15.2588V15.2433L23.2871 14.8959C23.9447 14.3096 24.4938 13.7016 24.4938 12.9385C24.4938 12.1165 23.9292 11.5147 22.9024 11.5147C22.2882 11.5147 21.7578 11.7256 21.4166 11.9831L21.7175 12.7431C21.9532 12.5631 22.2975 12.3677 22.6884 12.3677C23.2095 12.3677 23.4329 12.6593 23.4329 13.0316C23.4205 13.562 22.9397 14.0707 21.947 14.9579L21.3607 15.4884V16.1305L18.8791 11.1672H27.875L24.5806 15.9599V15.2588H22.8683ZM16.3975 9.61621L22.2913 22.3346L31.5975 9.61621H16.3975ZM22.2417 21.404L16.9279 9.93882H30.6296L22.2417 21.404ZM18.3486 10.8446L22.4185 19.6265L28.8428 10.8446H18.3486ZM22.5643 19.0371L21.3607 16.4407H24.4628L22.5643 19.0371ZM22.8683 15.2588V15.2433L23.2871 14.8959C23.9447 14.3096 24.4938 13.7016 24.4938 12.9385C24.4938 12.1165 23.9292 11.5147 22.9024 11.5147C22.2882 11.5147 21.7578 11.7256 21.4166 11.9831L21.7175 12.7431C21.9532 12.5631 22.2975 12.3677 22.6884 12.3677C23.2095 12.3677 23.4329 12.6593 23.4329 13.0316C23.4205 13.562 22.9397 14.0707 21.947 14.9579L21.3607 15.4884V16.1305L18.8791 11.1672H27.875L24.5806 15.9599V15.2588H22.8683ZM18.3486 10.8446L22.4185 19.6265L28.8428 10.8446H18.3486ZM22.5643 19.0371L21.3607 16.4407H24.4628L22.5643 19.0371ZM22.8683 15.2588V15.2433L23.2871 14.8959C23.9447 14.3096 24.4938 13.7016 24.4938 12.9385C24.4938 12.1165 23.9292 11.5147 22.9024 11.5147C22.2882 11.5147 21.7578 11.7256 21.4166 11.9831L21.7175 12.7431C21.9532 12.5631 22.2975 12.3677 22.6884 12.3677C23.2095 12.3677 23.4329 12.6593 23.4329 13.0316C23.4205 13.562 22.9397 14.0707 21.947 14.9579L21.3607 15.4884V16.1305L18.8791 11.1672H27.875L24.5806 15.9599V15.2588H22.8683ZM18.3486 10.8446L22.4185 19.6265L28.8428 10.8446H18.3486ZM22.5643 19.0371L21.3607 16.4407H24.4628L22.5643 19.0371ZM22.8683 15.2588V15.2433L23.2871 14.8959C23.9447 14.3096 24.4938 13.7016 24.4938 12.9385C24.4938 12.1165 23.9292 11.5147 22.9024 11.5147C22.2882 11.5147 21.7578 11.7256 21.4166 11.9831L21.7175 12.7431C21.9532 12.5631 22.2975 12.3677 22.6884 12.3677C23.2095 12.3677 23.4329 12.6593 23.4329 13.0316C23.4205 13.562 22.9397 14.0707 21.947 14.9579L21.3607 15.4884V16.1305L18.8791 11.1672H27.875L24.5806 15.9599V15.2588H22.8683Z" fill="#4318FF"/>
<path d="M24.5808 15.2588V15.9599L24.4629 16.1305H21.3608V15.4884L21.9471 14.9579C22.9398 14.0707 23.4206 13.562 23.433 13.0315C23.433 12.6593 23.2097 12.3677 22.6885 12.3677C22.2977 12.3677 21.9533 12.5631 21.7176 12.7431L21.4167 11.9831C21.7579 11.7256 22.2884 11.5146 22.9026 11.5146C23.9293 11.5146 24.4939 12.1164 24.4939 12.9385C24.4939 13.7016 23.9448 14.3096 23.2872 14.8959L22.8684 15.2433V15.2588H24.5808Z" fill="white"/>
<path d="M22.8684 15.2588V15.2433L23.2872 14.8959C23.9448 14.3096 24.4939 13.7016 24.4939 12.9385C24.4939 12.1164 23.9293 11.5146 22.9026 11.5146C22.2884 11.5146 21.7579 11.7256 21.4167 11.9831L21.7176 12.7431C21.9533 12.5631 22.2977 12.3677 22.6885 12.3677C23.2097 12.3677 23.433 12.6593 23.433 13.0315C23.4206 13.562 22.9398 14.0707 21.9471 14.9579L21.3608 15.4884V16.1305H24.5808V15.2588H22.8684Z" fill="#4318FF"/>
</g>
<defs>
<clipPath id="clip0_414_230">
<rect width="136.71" height="26.1409" fill="white"/>
</clipPath>
</defs>
</svg>
