<svg width="37" height="36" viewBox="0 0 37 36" fill="none" xmlns="http://www.w3.org/2000/svg">
<rect x="0.21875" width="36" height="36" rx="18" fill="#634AFF" fill-opacity="0.15"/>
<g clip-path="url(#clip0_178_417)">
<path d="M15.875 27.25C15.5486 27.25 15.2223 27.1292 14.9676 26.886L9.17426 21.349C7.61763 19.7932 7.61763 17.2951 9.15326 15.7595L14.9606 10.121C15.4804 9.61698 16.3116 9.62836 16.8165 10.1481C17.3214 10.6679 17.3091 11.4991 16.7894 12.004L10.996 17.6294C10.7615 17.8639 10.625 18.1937 10.625 18.5437C10.625 18.8937 10.7615 19.2236 11.0091 19.4721L16.7815 24.989C17.3056 25.4895 17.324 26.3199 16.8235 26.844C16.5654 27.1144 16.2206 27.25 15.875 27.25ZM22.0403 26.8772L27.831 21.2379C29.3658 19.7022 29.3658 17.205 27.8109 15.6492L22.0324 10.1149C21.5083 9.61173 20.6779 9.63011 20.1765 10.1542C19.6751 10.6775 19.6926 11.5087 20.2159 12.0101L25.9734 17.5252C26.4853 18.0371 26.4853 18.8701 25.9865 19.3697L20.208 24.9977C19.6883 25.5035 19.6778 26.3339 20.1835 26.8536C20.4408 27.1179 20.782 27.25 21.1241 27.25C21.454 27.25 21.7856 27.1257 22.0403 26.8772Z" fill="#4318FF"/>
</g>
<defs>
<clipPath id="clip0_178_417">
<rect width="21" height="21" fill="white" transform="translate(8 7)"/>
</clipPath>
</defs>
</svg>
