<svg width="19" height="17" viewBox="0 0 19 17" fill="none" xmlns="http://www.w3.org/2000/svg">
<path d="M13.8524 0C12.9613 0.0141142 12.0897 0.26742 11.3255 0.734338C10.5612 1.20126 9.93157 1.86525 9.5 2.65927C9.06843 1.86525 8.43875 1.20126 7.67455 0.734338C6.91035 0.26742 6.03869 0.0141142 5.14759 0C3.72707 0.062848 2.38872 0.695644 1.42492 1.76014C0.461119 2.82464 -0.0497832 4.2343 0.00383099 5.68117C0.00383099 9.34531 3.79122 13.3471 6.96769 16.0604C7.67691 16.6673 8.57361 17 9.5 17C10.4264 17 11.3231 16.6673 12.0323 16.0604C15.2088 13.3471 18.9962 9.34531 18.9962 5.68117C19.0498 4.2343 18.5389 2.82464 17.5751 1.76014C16.6113 0.695644 15.2729 0.062848 13.8524 0ZM11.0154 14.8274C10.5913 15.1912 10.0545 15.3906 9.5 15.3906C8.94546 15.3906 8.40875 15.1912 7.98457 14.8274C3.91863 11.3535 1.58653 8.02052 1.58653 5.68117C1.53243 4.66155 1.87645 3.66151 2.54355 2.89917C3.21066 2.13682 4.14672 1.67401 5.14759 1.61168C6.14846 1.67401 7.08452 2.13682 7.75163 2.89917C8.41873 3.66151 8.76275 4.66155 8.70865 5.68117C8.70865 5.89489 8.79203 6.09985 8.94043 6.25098C9.08884 6.4021 9.29012 6.487 9.5 6.487C9.70988 6.487 9.91116 6.4021 10.0596 6.25098C10.208 6.09985 10.2913 5.89489 10.2913 5.68117C10.2373 4.66155 10.5813 3.66151 11.2484 2.89917C11.9155 2.13682 12.8515 1.67401 13.8524 1.61168C14.8533 1.67401 15.7893 2.13682 16.4564 2.89917C17.1236 3.66151 17.4676 4.66155 17.4135 5.68117C17.4135 8.02052 15.0814 11.3535 11.0154 14.8242V14.8274Z" fill="#38404F"/>
</svg>
