<svg width="64" height="64" viewBox="0 0 64 64" fill="none" xmlns="http://www.w3.org/2000/svg">
<rect width="64" height="64" rx="32" fill="#634AFF" fill-opacity="0.15"/>
<path d="M19.1195 18.2079C20.5187 18.2079 21.7623 17.0419 21.7623 15.6427C21.6847 14.166 20.5187 13 19.1195 13C17.6426 13 16.4766 14.166 16.4766 15.5652C16.4766 17.0421 17.6426 18.2079 19.1195 18.2079Z" fill="#4318FF"/>
<path d="M50.2111 32.8215V21.395C49.7448 21.4728 49.1228 21.4728 48.6566 21.395V31.2668H44.1481C44.1481 31.5778 44.1481 32.1997 44.0703 32.8213L50.2111 32.8215Z" fill="#4318FF"/>
<path d="M49.4357 14.7881C47.9587 14.7881 46.793 15.9541 46.793 17.4308C46.793 18.83 47.959 19.996 49.4357 19.996C50.9126 19.996 52.0009 18.83 52.0009 17.4308C52.0006 15.9541 50.8348 14.7881 49.4357 14.7881Z" fill="#4318FF"/>
<path d="M32.7231 16.3424V21.0062C33.1894 20.9284 33.8114 20.9284 34.2776 21.0062V14.7876L23.1621 14.7879C23.2399 15.2542 23.2399 15.8761 23.1621 16.3423L32.7231 16.3424Z" fill="#4318FF"/>
<path d="M33.5005 40.75C38.0089 40.75 41.8954 37.4076 42.5173 32.8215C43.2167 27.5358 39.097 22.561 33.5005 22.561C28.9145 22.561 25.1056 25.9813 24.4837 30.4118C23.7843 35.6973 27.9039 40.75 33.5005 40.75ZM33.5005 26.1367C34.8996 26.1367 35.9879 27.3027 35.9879 28.624C35.9879 30.0232 34.8996 31.1114 33.5005 31.1114C32.1013 31.1114 31.0131 29.9454 31.0131 28.624C31.0131 27.2249 32.1013 26.1367 33.5005 26.1367ZM28.5257 35.0757C28.5257 33.3656 29.9249 31.9664 31.635 31.9664H35.3662C37.0764 31.9664 38.4755 33.3656 38.4755 35.0757V37.1743H28.526L28.5257 35.0757Z" fill="#4318FF"/>
<path d="M47.881 45.103C46.4818 45.103 45.2383 46.2691 45.2383 47.6682C45.2383 49.1452 46.4043 50.3109 47.881 50.3109C49.2801 50.3109 50.4462 49.1449 50.4462 47.6682C50.524 46.2688 49.3579 45.103 47.881 45.103Z" fill="#4318FF"/>
<path d="M34.2771 46.8908V42.2271C33.8108 42.3049 33.1889 42.3049 32.7227 42.2271V48.4457H43.8382C43.7604 47.9794 43.7604 47.3574 43.8382 46.8912L34.2771 46.8908Z" fill="#4318FF"/>
<path d="M17.5652 42.5376C16.0882 42.5376 15 43.7036 15 45.1028C15 46.5019 16.166 47.668 17.5652 47.668C18.9643 47.668 20.1304 46.5019 20.1304 45.1028C20.2082 43.7036 19.0421 42.5376 17.5652 42.5376Z" fill="#4318FF"/>
<path d="M16.7871 30.4893V41.0606C17.2534 40.9828 17.8753 40.9828 18.3416 41.0606L18.3419 32.0439H22.8503C22.8503 31.7329 22.8503 31.111 22.9281 30.4894L16.7871 30.4893Z" fill="#4318FF"/>
</svg>
