<svg width="1440" height="807" viewBox="0 0 1440 807" fill="none" xmlns="http://www.w3.org/2000/svg">
<mask id="mask0_794_38" style="mask-type:luminance" maskUnits="userSpaceOnUse" x="0" y="0" width="1440" height="807">
<path d="M1440 0H0V807H1440V0Z" fill="white"/>
</mask>
<g mask="url(#mask0_794_38)">
<mask id="mask1_794_38" style="mask-type:luminance" maskUnits="userSpaceOnUse" x="0" y="0" width="1440" height="807">
<path d="M1440 0H0V807H1440V0Z" fill="white"/>
</mask>
<g mask="url(#mask1_794_38)">
<path d="M0 797.055C0 528.323 0 259.59 0 -9.19482C480 -9.19482 960 -9.19482 1440 -9.19482C1440 228.833 1440 466.815 1440 704.798C1439.57 705.045 1439.09 705.225 1438.73 705.54C1399.77 738.96 1355.39 762.405 1306.36 777.203C1283.49 784.103 1260.07 788.453 1236.25 789.885C1223.71 790.643 1210.99 790.748 1198.51 789.548C1175.96 787.38 1155.37 778.598 1135.46 768.233C1110.15 755.063 1086.65 738.998 1063.3 722.723C1032.36 701.16 1001.87 678.93 969.292 659.82C936.615 640.658 902.55 624.99 864.997 617.94C834.847 612.278 805.222 613.418 776.145 623.94C750.982 633.038 727.657 645.698 705.307 660.173C676.702 678.698 648.503 697.838 619.875 716.333C597.713 730.65 574.643 743.325 549.383 751.485C533.595 756.585 517.388 759.975 500.797 758.205C482.595 756.263 464.437 753.578 446.415 750.345C414.06 744.533 381.825 738.068 349.545 731.873C320.55 726.308 291.622 720.33 262.537 715.29C243.397 711.975 224.055 709.748 204.75 707.483C184.958 705.165 165.113 705.233 145.402 708.6C110.152 714.623 78.69 729.405 49.9275 750.308C31.3425 763.815 14.745 779.445 0 797.055Z" fill="#4318FF"/>
</g>
</g>
<path d="M1401.38 584.589C1412.8 575.01 1429.88 608.508 1438.88 628.169L1440 714.579C1263.77 844.569 1162.52 795.729 1054.16 763.795C975.873 740.725 896.672 718.712 866.675 711.198C792.056 689.032 699.439 719.463 631.945 744.259C528.454 786.337 455.71 761.541 346.595 740.502L232.23 718.712C87.8673 695.043 18.4983 787.088 -1 807V622.534C33.122 601.495 76.9932 574.445 130.614 605.252C173.51 629.898 234.73 617.024 259.977 607.506C396.841 556.412 421.213 599.992 455.71 632.302C461.835 639.065 476.634 654.543 486.833 662.358C529.954 692.789 546.828 678.137 569.701 654.844C592.574 631.551 603.823 612.766 620.696 598.865C637.57 584.965 645.444 574.821 669.067 572.567C692.69 570.313 699.439 565.429 756.809 520.721C848.001 452.495 927.045 481.023 955.167 503.815C989.664 522.599 1061.66 600.081 1089.78 623.285C1110.18 640.117 1128.78 642.822 1135.53 642.07C1161.77 637.186 1177.15 636.435 1220.27 669.872C1254.77 696.621 1283.39 700.553 1293.39 698.8C1357.88 673.253 1385.25 598.114 1401.38 584.589Z" fill="url(#paint0_linear_794_38)" style="mix-blend-mode:multiply"/>
<mask id="mask2_794_38" style="mask-type:alpha" maskUnits="userSpaceOnUse" x="-3" y="439" width="1446" height="336">
<path d="M1401.4 547.987C1412.81 538.425 1429.88 571.861 1438.88 591.486L1440 677.734C1263.86 807.482 1162.67 758.733 1054.36 726.858C976.114 703.832 896.955 681.859 866.973 674.359C792.394 652.235 699.825 682.609 632.366 707.359C528.929 749.358 456.223 724.609 347.164 703.609L232.858 681.859C88.5711 658.235 19.2382 750.108 -0.25 769.983V585.861C33.8543 564.861 77.7027 537.862 131.295 568.611C174.169 593.211 235.357 580.361 260.592 570.861C397.383 519.862 421.744 563.361 456.223 595.611C462.344 602.361 477.135 617.81 487.329 625.61C530.428 655.985 547.292 641.36 570.154 618.11C593.015 594.861 604.258 576.111 621.123 562.236C637.987 548.362 645.858 538.237 669.468 535.987C693.079 533.737 699.825 528.862 757.165 484.238C848.31 416.139 927.312 444.614 955.42 467.363C989.899 486.113 1061.85 563.45 1089.96 586.611C1110.35 603.411 1128.94 606.111 1135.69 605.361C1161.92 600.486 1177.28 599.736 1220.38 633.11C1254.86 659.81 1283.47 663.735 1293.46 661.985C1357.92 636.485 1385.28 561.486 1401.4 547.987Z" fill="#D9D9D9" stroke="#8B88FD" stroke-width="4" stroke-linecap="round" stroke-dasharray="10 10"/>
</mask>
<g mask="url(#mask2_794_38)">
<path d="M1401.01 584.797C1412.43 575.239 1429.5 608.664 1438.5 628.282L1439.63 714.502C1263.44 844.207 1162.22 795.474 1053.88 763.61C975.618 740.591 896.439 718.626 866.449 711.128C791.85 689.011 699.257 719.375 631.78 744.117C528.316 786.102 455.592 761.361 346.504 740.368L232.169 718.626C87.8442 695.009 18.4932 786.852 -1 806.72V622.659C33.1132 601.666 76.9729 574.675 130.579 605.415C173.464 630.006 234.668 617.161 259.909 607.664C396.737 556.682 421.104 600.167 455.592 632.405C461.714 639.153 476.509 654.598 486.706 662.395C529.816 692.759 546.685 678.14 569.552 654.898C592.419 631.656 603.665 612.912 620.534 599.042C637.403 585.172 645.276 575.05 668.893 572.801C692.509 570.552 699.257 565.679 756.612 521.069C847.78 452.993 926.803 481.458 954.918 504.2C989.406 522.943 1061.38 600.255 1089.5 623.409C1109.89 640.203 1128.48 642.902 1135.23 642.152C1161.47 637.279 1176.84 636.529 1219.95 669.892C1254.44 696.583 1283.05 700.507 1293.05 698.757C1357.53 673.266 1384.89 598.292 1401.01 584.797Z" stroke="#8B88FD" stroke-width="4" stroke-linecap="round" stroke-dasharray="10 10"/>
</g>
<path d="M1419 581.5C1419 584.984 1415.98 588 1412 588C1408.02 588 1405 584.984 1405 581.5C1405 578.016 1408.02 575 1412 575C1415.98 575 1419 578.016 1419 581.5Z" fill="#322A8E" stroke="#CCCCFE" stroke-width="4"/>
<circle cx="1294.5" cy="694.5" r="6.5" fill="#322A8E" stroke="#CCCCFE" stroke-width="4"/>
<circle cx="1144.5" cy="639.5" r="6.5" fill="#322A8E" stroke="#CCCCFE" stroke-width="4"/>
<circle cx="674.5" cy="569.5" r="6.5" fill="#322A8E" stroke="#CCCCFE" stroke-width="4"/>
<path d="M538 678.5C538 681.984 534.975 685 531 685C527.025 685 524 681.984 524 678.5C524 675.016 527.025 672 531 672C534.975 672 538 675.016 538 678.5Z" fill="#322A8E" stroke="#CCCCFE" stroke-width="4"/>
<path d="M199 619C199 622.975 195.984 626 192.5 626C189.016 626 186 622.975 186 619C186 615.025 189.016 612 192.5 612C195.984 612 199 615.025 199 619Z" fill="#322A8E" stroke="#CCCCFE" stroke-width="4"/>
<circle opacity="0.3" cx="214" cy="532" r="6.5" fill="#322A8E" stroke="#CCCCFE" stroke-width="5"/>
<circle cx="77.5" cy="589.5" r="6.5" fill="#322A8E" stroke="#CCCCFE" stroke-width="4"/>
<path d="M124 723.5C124 726.984 120.975 730 117 730C113.025 730 110 726.984 110 723.5C110 720.016 113.025 717 117 717C120.975 717 124 720.016 124 723.5Z" fill="#322A8E" stroke="#CCCCFE" stroke-width="4"/>
<circle cx="360.5" cy="741.5" r="6.5" fill="#322A8E" stroke="#CCCCFE" stroke-width="4"/>
<path d="M774 633.5C774 636.984 770.975 640 767 640C763.025 640 760 636.984 760 633.5C760 630.016 763.025 627 767 627C770.975 627 774 630.016 774 633.5Z" fill="#322A8E" stroke="#CCCCFE" stroke-width="4"/>
<circle cx="956" cy="661" r="7" fill="#322A8E" stroke="#CCCCFE" stroke-width="4"/>
<path d="M1222 798C1222 801.975 1218.98 805 1215.5 805C1212.02 805 1209 801.975 1209 798C1209 794.025 1212.02 791 1215.5 791C1218.98 791 1222 794.025 1222 798Z" fill="#322A8E" stroke="#CCCCFE" stroke-width="4"/>
<circle opacity="0.25" cx="40" cy="189" r="8.5" fill="#322A8E" stroke="#CCCCFE" stroke-width="5"/>
<path opacity="0.3" d="M671.113 159.073L669.28 166.048L667.567 164.335L669.4 157.36L665.728 153.687L658.752 155.521L657.039 153.808L664.015 151.974L659.395 147.355C659.198 147.158 659.087 146.892 659.085 146.615C659.084 146.338 659.192 146.073 659.387 145.879L671.866 133.4L670.382 131.915C670.185 131.719 670.073 131.452 670.072 131.176C670.07 130.899 670.179 130.634 670.373 130.439C670.568 130.244 670.833 130.136 671.11 130.137C671.387 130.139 671.653 130.25 671.85 130.447L692.631 151.229C692.828 151.426 692.94 151.692 692.941 151.969C692.943 152.246 692.834 152.511 692.64 152.705C692.445 152.9 692.18 153.008 691.903 153.007C691.626 153.005 691.36 152.894 691.163 152.697L689.679 151.213L677.2 163.692C677.005 163.886 676.74 163.995 676.464 163.993C676.187 163.992 675.921 163.88 675.724 163.683L671.113 159.073ZM688.194 149.728L673.35 134.884L661.606 146.629L676.45 161.473L688.194 149.728ZM671.189 144.468C671.386 144.664 671.497 144.931 671.499 145.207C671.5 145.484 671.392 145.749 671.197 145.944L669.729 147.412C669.534 147.607 669.269 147.715 668.993 147.714C668.716 147.712 668.45 147.601 668.253 147.404C668.056 147.207 667.944 146.941 667.943 146.664C667.941 146.387 668.05 146.122 668.245 145.928L669.713 144.459C669.907 144.265 670.172 144.156 670.449 144.158C670.726 144.159 670.992 144.271 671.189 144.468ZM676.368 146.711C676.565 146.907 676.676 147.174 676.678 147.45C676.679 147.727 676.571 147.992 676.376 148.187L673.44 151.123C673.245 151.318 672.98 151.426 672.704 151.425C672.427 151.423 672.161 151.312 671.964 151.115C671.767 150.918 671.656 150.652 671.654 150.375C671.652 150.098 671.761 149.833 671.956 149.639L674.892 146.702C675.087 146.508 675.351 146.399 675.628 146.401C675.905 146.402 676.171 146.514 676.368 146.711ZM681.547 148.953C681.744 149.15 681.856 149.416 681.857 149.693C681.859 149.97 681.75 150.235 681.555 150.43L677.151 154.834C676.956 155.029 676.692 155.137 676.415 155.136C676.138 155.134 675.872 155.023 675.675 154.826C675.478 154.629 675.367 154.363 675.365 154.086C675.363 153.809 675.472 153.544 675.667 153.35L680.071 148.945C680.266 148.751 680.531 148.642 680.807 148.644C681.084 148.645 681.35 148.757 681.547 148.953Z" fill="white"/>
<path d="M523.213 547.252C522.247 548.239 522.265 549.822 523.252 550.787C524.239 551.753 525.822 551.735 526.787 550.748L523.213 547.252ZM540.33 534.471L542.235 532.851C541.797 532.336 541.17 532.021 540.496 531.976C539.822 531.931 539.158 532.161 538.656 532.614L540.33 534.471ZM547.809 543.265L545.904 544.884C546.357 545.417 547.012 545.735 547.71 545.763C548.408 545.79 549.086 545.524 549.58 545.029L547.809 543.265ZM570.5 522.995C570.497 521.615 569.376 520.497 567.995 520.5L545.496 520.541C544.115 520.543 542.998 521.665 543 523.045C543.003 524.426 544.124 525.543 545.505 525.541L565.505 525.505L565.541 545.504C565.543 546.885 566.665 548.002 568.045 548C569.426 547.997 570.543 546.876 570.541 545.495L570.5 522.995ZM526.787 550.748C529.665 547.806 533.462 544.206 536.558 541.326C538.103 539.89 539.465 538.639 540.442 537.747C540.93 537.302 541.322 536.946 541.591 536.702C541.725 536.58 541.829 536.486 541.899 536.423C541.934 536.391 541.961 536.367 541.978 536.351C541.987 536.343 541.994 536.337 541.998 536.333C542 536.331 542.002 536.329 542.003 536.329C542.004 536.328 542.004 536.328 542.004 536.328C542.004 536.327 542.004 536.327 542.005 536.327C542.005 536.327 542.005 536.327 540.33 534.471C538.656 532.614 538.656 532.614 538.656 532.614C538.656 532.614 538.656 532.614 538.656 532.614C538.655 532.615 538.655 532.615 538.654 532.616C538.653 532.617 538.651 532.619 538.649 532.621C538.644 532.625 538.637 532.631 538.628 532.64C538.609 532.656 538.582 532.681 538.546 532.714C538.474 532.779 538.368 532.874 538.232 532.998C537.959 533.245 537.564 533.605 537.071 534.055C536.086 534.954 534.711 536.216 533.153 537.665C530.044 540.556 526.176 544.222 523.213 547.252L526.787 550.748ZM538.426 536.09L545.904 544.884L549.713 541.645L542.235 532.851L538.426 536.09ZM549.58 545.029L569.771 524.765L566.229 521.235L546.038 541.5L549.58 545.029Z" fill="white"/>
<g opacity="0.6">
<path d="M42.3446 339.786V338.768L43.621 337.652C43.8562 337.444 44.0106 337.16 44.0569 336.85C44.1031 336.54 44.0382 336.223 43.8736 335.957L42.3047 333.297C42.1882 333.096 42.0205 332.928 41.8187 332.811C41.6168 332.694 41.3878 332.633 41.1547 332.633C41.0102 332.632 40.8665 332.654 40.7292 332.699L39.1139 333.244C38.835 333.059 38.5441 332.892 38.243 332.746L37.904 331.071C37.8432 330.764 37.6767 330.49 37.4337 330.294C37.1906 330.098 36.8865 329.994 36.5745 330H33.4634C33.1514 329.994 32.8473 330.098 32.6042 330.294C32.3612 330.49 32.1947 330.764 32.1339 331.071L31.7948 332.746C31.4917 332.892 31.1985 333.059 30.9174 333.244L29.3352 332.673C29.1965 332.636 29.0528 332.623 28.9098 332.633C28.6766 332.633 28.4476 332.694 28.2458 332.811C28.0439 332.928 27.8763 333.096 27.7597 333.297L26.1909 335.957C26.0357 336.223 25.9781 336.535 26.0278 336.84C26.0775 337.144 26.2315 337.422 26.4634 337.625L27.7199 338.775V339.792L26.4634 340.909C26.225 341.114 26.0668 341.396 26.0169 341.707C25.967 342.017 26.0286 342.335 26.1909 342.604L27.7597 345.263C27.8763 345.465 28.0439 345.633 28.2458 345.749C28.4476 345.866 28.6766 345.928 28.9098 345.928C29.0543 345.929 29.198 345.907 29.3352 345.861L30.9506 345.316C31.2295 345.502 31.5204 345.668 31.8214 345.815L32.1605 347.49C32.2213 347.796 32.3877 348.071 32.6308 348.267C32.8739 348.462 33.178 348.566 33.49 348.56H36.6277C36.9396 348.566 37.2438 348.462 37.4868 348.267C37.7299 348.071 37.8964 347.796 37.9572 347.49L38.2962 345.815C38.5994 345.668 38.8925 345.502 39.1737 345.316L40.7824 345.861C40.9197 345.907 41.0634 345.929 41.2079 345.928C41.441 345.928 41.67 345.866 41.8719 345.749C42.0737 345.633 42.2413 345.465 42.3579 345.263L43.8736 342.604C44.0287 342.338 44.0864 342.025 44.0367 341.721C43.9869 341.417 43.8329 341.139 43.601 340.936L42.3446 339.786ZM41.1547 344.598L38.8746 343.827C38.3408 344.279 37.7308 344.633 37.0731 344.871L36.6011 347.257H33.4634L32.9914 344.898C32.3389 344.653 31.7322 344.3 31.1966 343.854L28.9098 344.598L27.3409 341.939L29.1491 340.344C29.0262 339.656 29.0262 338.951 29.1491 338.263L27.3409 336.621L28.9098 333.962L31.1899 334.733C31.7237 334.281 32.3337 333.928 32.9914 333.69L33.4634 331.303H36.6011L37.0731 333.663C37.7256 333.908 38.3323 334.261 38.8679 334.707L41.1547 333.962L42.7235 336.621L40.9154 338.217C41.0383 338.905 41.0383 339.609 40.9154 340.297L42.7235 341.939L41.1547 344.598Z" fill="white"/>
<path d="M35.0315 343.269C34.2427 343.269 33.4715 343.035 32.8156 342.596C32.1597 342.158 31.6485 341.535 31.3466 340.806C31.0447 340.078 30.9657 339.276 31.1196 338.502C31.2735 337.728 31.6534 337.018 32.2112 336.46C32.769 335.902 33.4797 335.522 34.2534 335.368C35.0271 335.214 35.8291 335.293 36.5579 335.595C37.2867 335.897 37.9097 336.408 38.3479 337.064C38.7862 337.72 39.0201 338.491 39.0201 339.28C39.0254 339.805 38.9259 340.326 38.7274 340.813C38.5288 341.299 38.2352 341.741 37.8638 342.112C37.4923 342.484 37.0505 342.777 36.5642 342.976C36.0779 343.174 35.5568 343.274 35.0315 343.269ZM35.0315 336.621C34.6801 336.613 34.3307 336.676 34.0044 336.807C33.6781 336.937 33.3816 337.133 33.1331 337.382C32.8845 337.63 32.689 337.927 32.5582 338.253C32.4275 338.579 32.3643 338.929 32.3725 339.28C32.3643 339.632 32.4275 339.981 32.5582 340.307C32.689 340.634 32.8845 340.93 33.1331 341.179C33.3816 341.427 33.6781 341.623 34.0044 341.753C34.3307 341.884 34.6801 341.947 35.0315 341.939C35.383 341.947 35.7324 341.884 36.0587 341.753C36.385 341.623 36.6814 341.427 36.93 341.179C37.1786 340.93 37.3741 340.634 37.5049 340.307C37.6356 339.981 37.6988 339.632 37.6906 339.28C37.6988 338.929 37.6356 338.579 37.5049 338.253C37.3741 337.927 37.1786 337.63 36.93 337.382C36.6814 337.133 36.385 336.937 36.0587 336.807C35.7324 336.676 35.383 336.613 35.0315 336.621Z" fill="white"/>
<path opacity="0.66" d="M81.0382 499.321C80.8521 499.123 80.5963 499.009 80.326 499.009C80.0558 499.009 79.8 499.123 79.6138 499.321C79.4282 499.518 79.3263 499.783 79.3263 500.055V504.585H75.0779C74.8077 504.585 74.5518 504.699 74.3657 504.897C74.18 505.094 74.0781 505.359 74.0781 505.632C74.0781 505.904 74.18 506.169 74.3657 506.366C74.5518 506.564 74.8077 506.678 75.0779 506.678H79.3263V511.208C79.3263 511.481 79.4282 511.745 79.6138 511.942C79.8 512.14 80.0558 512.254 80.326 512.254C80.5962 512.254 80.8521 512.14 81.0382 511.942C81.2239 511.745 81.3258 511.481 81.3258 511.208V506.678H85.5742C85.8444 506.678 86.1003 506.564 86.2864 506.366C86.4721 506.169 86.574 505.904 86.574 505.632C86.574 505.359 86.4721 505.094 86.2864 504.897C86.1003 504.699 85.8444 504.585 85.5742 504.585H81.3258V500.055C81.3258 499.783 81.2239 499.518 81.0382 499.321Z" fill="white" stroke="white" stroke-width="0.5"/>
</g>
<defs>
<linearGradient id="paint0_linear_794_38" x1="719.5" y1="478" x2="719.5" y2="807" gradientUnits="userSpaceOnUse">
<stop stop-color="#38287B"/>
<stop offset="1" stop-color="#38287B" stop-opacity="0"/>
</linearGradient>
</defs>
</svg>
