<svg width="37" height="36" viewBox="0 0 37 36" fill="none" xmlns="http://www.w3.org/2000/svg">
<rect x="0.660156" width="36" height="36" rx="18" fill="#634AFF" fill-opacity="0.15"/>
<g clip-path="url(#clip0_220_280)">
<g clip-path="url(#clip1_220_280)">
<path d="M16.3162 27.25C15.9898 27.25 15.6634 27.1292 15.4088 26.886L9.61542 21.349C8.05879 19.7932 8.05879 17.2951 9.59442 15.7595L15.4018 10.121C15.9215 9.61698 16.7528 9.62836 17.2577 10.1481C17.7625 10.6679 17.7503 11.4991 17.2305 12.004L11.4372 17.6294C11.2027 17.8639 11.0662 18.1937 11.0662 18.5437C11.0662 18.8937 11.2027 19.2236 11.4503 19.4721L17.2227 24.989C17.7468 25.4895 17.7652 26.3199 17.2647 26.844C17.0065 27.1144 16.6618 27.25 16.3162 27.25ZM22.4814 26.8772L28.2722 21.2379C29.8069 19.7022 29.8069 17.205 28.252 15.6492L22.4735 10.1149C21.9494 9.61173 21.119 9.63011 20.6177 10.1542C20.1163 10.6775 20.1338 11.5087 20.657 12.0101L26.4145 17.5252C26.9264 18.0371 26.9264 18.8701 26.4277 19.3697L20.6492 24.9977C20.1294 25.5035 20.1189 26.3339 20.6247 26.8536C20.8819 27.1179 21.2232 27.25 21.5653 27.25C21.8952 27.25 22.2268 27.1257 22.4814 26.8772Z" fill="#4318FF"/>
</g>
</g>
<defs>
<clipPath id="clip0_220_280">
<rect width="21" height="21" fill="white" transform="translate(8.44141 7)"/>
</clipPath>
<clipPath id="clip1_220_280">
<rect width="21" height="21" fill="white" transform="translate(8.44141 8)"/>
</clipPath>
</defs>
</svg>
