<svg width="159" height="106" viewBox="0 0 159 106" fill="none" xmlns="http://www.w3.org/2000/svg">
<path fill-rule="evenodd" clip-rule="evenodd" d="M43.8139 39.9185H25.1619C23.0704 39.9185 21.375 41.6177 21.375 43.7139C21.375 45.8101 23.0704 47.5092 25.1619 47.5092H34.6717L19.3632 62.8522C17.8841 64.3341 17.8841 66.7372 19.3632 68.2196C20.842 69.7017 23.2398 69.7017 24.7185 68.2196L40.027 52.8768V62.4077C40.027 64.5039 41.7225 66.2031 43.8139 66.2031C45.9054 66.2031 47.6008 64.5039 47.6008 62.4077V43.7139C47.6008 41.6177 45.9054 39.9185 43.8139 39.9185Z" fill="white"/>
<path fill-rule="evenodd" clip-rule="evenodd" d="M54.7144 66.0416H73.3665C75.458 66.0416 77.1534 64.3424 77.1534 62.2462C77.1534 60.1501 75.458 58.4508 73.3665 58.4508H63.8567L79.1652 43.108C80.6442 41.6259 80.6442 39.2228 79.1652 37.7407C77.6864 36.2583 75.2887 36.2583 73.8099 37.7407L58.5013 53.0835V43.5523C58.5013 41.4562 56.8059 39.757 54.7144 39.757C52.6229 39.757 50.9275 41.4562 50.9275 43.5523V62.2462C50.9275 64.3424 52.6229 66.0416 54.7144 66.0416Z" fill="white"/>
<path fill-rule="evenodd" clip-rule="evenodd" d="M93.8015 49.3004C95.9341 49.3004 96.7358 47.4619 96.7358 45.6387C96.7358 43.7236 95.9341 41.885 93.8015 41.885C91.669 41.885 90.8673 43.7235 90.8673 45.6387C90.8673 47.4618 91.669 49.3004 93.8015 49.3004ZM93.8015 39.8628C97.1441 39.8628 99.1103 42.3907 99.1103 45.6387C99.1103 48.7948 97.1441 51.3227 93.8015 51.3227C90.459 51.3227 88.4928 48.7948 88.4928 45.6387C88.4928 42.3907 90.459 39.8628 93.8015 39.8628ZM99.927 43.3529H101.914V44.8329H101.943C102.326 43.8309 103.356 43.137 104.371 43.137C104.518 43.137 104.695 43.1681 104.827 43.2143V45.249C104.636 45.2028 104.327 45.172 104.077 45.172C102.546 45.172 102.017 46.328 102.017 47.731V51.3227H99.927V43.3529ZM111.219 47.3124C110.83 47.6278 110.019 47.6429 109.307 47.7631C108.594 47.8981 107.945 48.1235 107.945 48.9045C107.945 49.7006 108.61 49.8958 109.355 49.8958C111.154 49.8958 111.219 48.5741 111.219 48.1086V47.3124ZM105.903 45.7355C106.033 43.7379 107.962 43.137 109.841 43.137C111.51 43.137 113.52 43.4824 113.52 45.3449V49.3853C113.52 50.0911 113.601 50.7968 113.811 51.1124H111.478C111.397 50.872 111.332 50.6167 111.316 50.3615C110.587 51.0673 109.517 51.3227 108.496 51.3227C106.908 51.3227 105.644 50.5868 105.644 48.9947C105.644 47.2374 107.07 46.8168 108.496 46.6365C109.906 46.4412 111.219 46.4864 111.219 45.6152C111.219 44.6991 110.538 44.5639 109.728 44.5639C108.853 44.5639 108.286 44.8943 108.205 45.7355H105.903ZM114.628 43.3529H116.674V44.4629H116.72C117.265 43.5688 118.205 43.137 119.114 43.137C121.403 43.137 121.979 44.4474 121.979 46.4206V51.3227H119.827V46.8215C119.827 45.5111 119.448 44.8636 118.447 44.8636C117.28 44.8636 116.78 45.5267 116.78 47.1451V51.3227H114.628L114.628 43.3529ZM128.813 47.3302C128.813 46.0061 128.352 44.8238 126.887 44.8238C125.613 44.8238 125.056 45.9274 125.056 47.141C125.056 48.3074 125.502 49.5843 126.887 49.5843C128.177 49.5843 128.813 48.4965 128.813 47.3302ZM130.963 50.9871C130.963 52.327 130.485 54.5969 126.696 54.5969C125.072 54.5969 123.178 53.8401 123.066 51.9802H125.311C125.518 52.8156 126.203 53.0994 126.998 53.0994C128.256 53.0994 128.829 52.2482 128.813 51.0817V50.0099H128.782C128.288 50.8611 127.301 51.2711 126.314 51.2711C123.846 51.2711 122.795 49.4109 122.795 47.1726C122.795 45.0602 124.021 43.1371 126.33 43.1371C127.413 43.1371 128.24 43.4997 128.782 44.4456H128.813V43.3577H130.963V50.9871ZM137.686 46.3962C137.48 45.3147 136.989 44.7442 135.896 44.7442C134.471 44.7442 134.06 45.7955 134.028 46.3962H137.686ZM134.028 47.7479C134.091 49.0997 134.788 49.7155 136.039 49.7155C136.942 49.7155 137.67 49.1897 137.812 48.7091H139.792C139.158 50.5417 137.812 51.3227 135.96 51.3227C133.379 51.3227 131.779 49.6405 131.779 47.2372C131.779 44.9094 133.474 43.137 135.96 43.137C138.747 43.137 140.093 45.3598 139.934 47.748L134.028 47.7479ZM93.8574 62.4778H93.8893L96.4062 54.5969H99.927V66.0568H97.5852V57.9352H97.5533L94.7653 66.0568H92.8378L90.0499 58.0155H90.0179V66.0568H87.676V54.5969H91.1969L93.8574 62.4778ZM105.636 64.4497C107.117 64.4497 107.56 63.203 107.56 61.9714C107.56 60.7247 107.117 59.4782 105.636 59.4782C104.171 59.4782 103.728 60.7247 103.728 61.9714C103.728 63.203 104.171 64.4497 105.636 64.4497ZM105.636 57.8712C108.125 57.8712 109.728 59.4934 109.728 61.9714C109.728 64.4345 108.125 66.0568 105.636 66.0568C103.164 66.0568 101.56 64.4345 101.56 61.9714C101.56 59.4934 103.164 57.8712 105.636 57.8712ZM110.544 58.087H112.59V59.197H112.636C113.182 58.3031 114.121 57.8712 115.031 57.8712C117.319 57.8712 117.895 59.1815 117.895 61.1548V66.0568H115.743V61.5555C115.743 60.2452 115.364 59.5979 114.364 59.5979C113.197 59.5979 112.697 60.2607 112.697 61.8792V66.0568H110.545L110.544 58.087ZM124.618 61.1304C124.412 60.0489 123.921 59.4782 122.829 59.4782C121.404 59.4782 120.992 60.5298 120.96 61.1304H124.618ZM120.96 62.4822C121.024 63.8336 121.72 64.4497 122.971 64.4497C123.874 64.4497 124.602 63.9238 124.745 63.4433H126.724C126.091 65.2755 124.745 66.0568 122.892 66.0568C120.311 66.0568 118.712 64.3744 118.712 61.9712C118.712 59.6437 120.406 57.8712 122.892 57.8712C125.679 57.8712 127.025 60.094 126.867 62.4821L120.96 62.4822ZM131.724 66.7312C131.247 67.9946 130.494 68.5125 128.986 68.5125C128.54 68.5125 128.094 68.4818 127.648 68.4362V66.6551C128.063 66.6855 128.494 66.7465 128.925 66.7312C129.678 66.6551 129.924 65.8787 129.678 65.2546L126.879 57.8712H129.217L131.017 63.2603H131.047L132.786 57.8712H135.046L131.724 66.7312Z" fill="white"/>
</svg>
