<svg width="21" height="18" viewBox="0 0 21 18" fill="none" xmlns="http://www.w3.org/2000/svg">
<g opacity="0.8">
<path d="M10.3113 3.15077C10.7731 2.70983 11.3833 2.39778 12.0609 2.25614C12.7384 2.11451 13.4511 2.15 14.1041 2.3579C14.7571 2.5658 15.3194 2.93625 15.7163 3.41995C16.1132 3.90365 16.3258 4.47767 16.3258 5.06564C16.3258 5.6536 16.1132 6.22762 15.7163 6.71132C15.3194 7.19503 14.7571 7.56547 14.1041 7.77337C13.4511 7.98127 12.7384 8.01676 12.0609 7.87513C11.3833 7.73349 10.7731 7.42144 10.3113 6.9805M12.889 15.1972H2.57812V14.4735C2.57813 13.3219 3.12129 12.2175 4.08812 11.4032C5.05495 10.5889 6.36626 10.1314 7.73357 10.1314C9.10087 10.1314 10.4122 10.5889 11.379 11.4032C12.3458 12.2175 12.889 13.3219 12.889 14.4735V15.1972ZM12.889 15.1972H18.0444V14.4735C18.0446 13.7113 17.8065 12.9624 17.354 12.3023C16.9016 11.6421 16.2508 11.0939 15.467 10.7127C14.6833 10.3315 13.7942 10.1308 12.8892 10.1308C11.9842 10.1308 11.0951 10.3314 10.3113 10.7125M11.1705 5.06564C11.1705 5.83337 10.8084 6.56966 10.1639 7.11252C9.51931 7.65539 8.6451 7.96037 7.73357 7.96037C6.82203 7.96037 5.94782 7.65539 5.30327 7.11252C4.65871 6.56966 4.29661 5.83337 4.29661 5.06564C4.29661 4.2979 4.65871 3.56162 5.30327 3.01875C5.94782 2.47588 6.82203 2.1709 7.73357 2.1709C8.6451 2.1709 9.51931 2.47588 10.1639 3.01875C10.8084 3.56162 11.1705 4.2979 11.1705 5.06564Z" stroke="#38404F" stroke-width="1.5" stroke-linecap="round" stroke-linejoin="round"/>
</g>
</svg>
