<svg width="37" height="36" viewBox="0 0 37 36" fill="none" xmlns="http://www.w3.org/2000/svg">
<rect x="0.330078" width="36" height="36" rx="18" fill="#634AFF" fill-opacity="0.15"/>
<g clip-path="url(#clip0_178_237)">
<path d="M23.25 9.75H12.75C11.7558 9.75119 10.8027 10.1467 10.0997 10.8497C9.39666 11.5527 9.00119 12.5058 9 13.5V22.5C9.00119 23.4942 9.39666 24.4473 10.0997 25.1503C10.8027 25.8533 11.7558 26.2488 12.75 26.25H23.25C24.2442 26.2488 25.1973 25.8533 25.9003 25.1503C26.6033 24.4473 26.9988 23.4942 27 22.5V13.5C26.9988 12.5058 26.6033 11.5527 25.9003 10.8497C25.1973 10.1467 24.2442 9.75119 23.25 9.75ZM12.75 11.25H23.25C23.8467 11.25 24.419 11.4871 24.841 11.909C25.2629 12.331 25.5 12.9033 25.5 13.5V14.25H10.5V13.5C10.5 12.9033 10.7371 12.331 11.159 11.909C11.581 11.4871 12.1533 11.25 12.75 11.25ZM23.25 24.75H12.75C12.1533 24.75 11.581 24.5129 11.159 24.091C10.7371 23.669 10.5 23.0967 10.5 22.5V15.75H25.5V22.5C25.5 23.0967 25.2629 23.669 24.841 24.091C24.419 24.5129 23.8467 24.75 23.25 24.75ZM23.25 18.75C23.25 18.9489 23.171 19.1397 23.0303 19.2803C22.8897 19.421 22.6989 19.5 22.5 19.5H13.5C13.3011 19.5 13.1103 19.421 12.9697 19.2803C12.829 19.1397 12.75 18.9489 12.75 18.75C12.75 18.5511 12.829 18.3603 12.9697 18.2197C13.1103 18.079 13.3011 18 13.5 18H22.5C22.6989 18 22.8897 18.079 23.0303 18.2197C23.171 18.3603 23.25 18.5511 23.25 18.75ZM20.25 21.75C20.25 21.9489 20.171 22.1397 20.0303 22.2803C19.8897 22.421 19.6989 22.5 19.5 22.5H13.5C13.3011 22.5 13.1103 22.421 12.9697 22.2803C12.829 22.1397 12.75 21.9489 12.75 21.75C12.75 21.5511 12.829 21.3603 12.9697 21.2197C13.1103 21.079 13.3011 21 13.5 21H19.5C19.6989 21 19.8897 21.079 20.0303 21.2197C20.171 21.3603 20.25 21.5511 20.25 21.75ZM11.25 12.75C11.25 12.6017 11.294 12.4567 11.3764 12.3333C11.4588 12.21 11.5759 12.1139 11.713 12.0571C11.85 12.0003 12.0008 11.9855 12.1463 12.0144C12.2918 12.0433 12.4254 12.1148 12.5303 12.2197C12.6352 12.3246 12.7067 12.4582 12.7356 12.6037C12.7645 12.7492 12.7497 12.9 12.6929 13.037C12.6361 13.1741 12.54 13.2912 12.4167 13.3736C12.2933 13.456 12.1483 13.5 12 13.5C11.8011 13.5 11.6103 13.421 11.4697 13.2803C11.329 13.1397 11.25 12.9489 11.25 12.75ZM13.5 12.75C13.5 12.6017 13.544 12.4567 13.6264 12.3333C13.7088 12.21 13.8259 12.1139 13.963 12.0571C14.1 12.0003 14.2508 11.9855 14.3963 12.0144C14.5418 12.0433 14.6754 12.1148 14.7803 12.2197C14.8852 12.3246 14.9567 12.4582 14.9856 12.6037C15.0145 12.7492 14.9997 12.9 14.9429 13.037C14.8861 13.1741 14.79 13.2912 14.6667 13.3736C14.5433 13.456 14.3983 13.5 14.25 13.5C14.0511 13.5 13.8603 13.421 13.7197 13.2803C13.579 13.1397 13.5 12.9489 13.5 12.75ZM15.75 12.75C15.75 12.6017 15.794 12.4567 15.8764 12.3333C15.9588 12.21 16.0759 12.1139 16.213 12.0571C16.35 12.0003 16.5008 11.9855 16.6463 12.0144C16.7918 12.0433 16.9254 12.1148 17.0303 12.2197C17.1352 12.3246 17.2066 12.4582 17.2356 12.6037C17.2645 12.7492 17.2497 12.9 17.1929 13.037C17.1361 13.1741 17.04 13.2912 16.9167 13.3736C16.7933 13.456 16.6483 13.5 16.5 13.5C16.3011 13.5 16.1103 13.421 15.9697 13.2803C15.829 13.1397 15.75 12.9489 15.75 12.75Z" fill="#4318FF"/>
</g>
<defs>
<clipPath id="clip0_178_237">
<rect width="18" height="18" fill="white" transform="translate(9 9)"/>
</clipPath>
</defs>
</svg>
