<svg width="63" height="15" viewBox="0 0 63 15" fill="none" xmlns="http://www.w3.org/2000/svg">
<path d="M7.65723 0L9.34108 5.18237H14.7902L10.3818 8.38525L12.0656 13.5676L7.65723 10.3647L3.24884 13.5676L4.93269 8.38525L0.524302 5.18237H5.97337L7.65723 0Z" fill="#4318FF"/>
<path d="M23.3391 0L25.023 5.18237H30.472L26.0636 8.38525L27.7475 13.5676L23.3391 10.3647L18.9307 13.5676L20.6146 8.38525L16.2062 5.18237H21.6553L23.3391 0Z" fill="#4318FF"/>
<path d="M39.0208 0L40.7046 5.18237H46.1537L41.7453 8.38525L43.4291 13.5676L39.0208 10.3647L34.6124 13.5676L36.2962 8.38525L31.8878 5.18237H37.3369L39.0208 0Z" fill="#D9D9D9"/>
<path d="M54.7026 0L56.3865 5.18237H61.8356L57.4272 8.38525L59.111 13.5676L54.7026 10.3647L50.2942 13.5676L51.9781 8.38525L47.5697 5.18237H53.0188L54.7026 0Z" fill="#D9D9D9"/>
</svg>
