<svg width="147" height="88" viewBox="0 0 147 88" fill="none" xmlns="http://www.w3.org/2000/svg">
<g clip-path="url(#clip0_260_141)">
<path d="M73.5 0C53.9 0 41.65 9.75238 36.75 29.2571C44.1 19.5048 52.675 15.8476 62.475 18.2857C68.0664 19.6768 72.0629 23.7135 76.4865 28.1819C83.6928 35.461 92.0332 43.8857 110.25 43.8857C129.85 43.8857 142.1 34.1333 147 14.6286C139.65 24.381 131.075 28.0381 121.275 25.6C115.684 24.2089 111.687 20.1723 107.263 15.7038C100.057 8.4247 91.7168 0 73.5 0ZM36.75 43.8857C17.15 43.8857 4.9 53.6381 0 73.1429C7.35 63.3905 15.925 59.7333 25.725 62.1714C31.3164 63.5625 35.3129 67.5992 39.7365 72.0677C46.9428 79.3467 55.2832 87.7714 73.5 87.7714C93.1 87.7714 105.35 78.0191 110.25 58.5143C102.9 68.2667 94.325 71.9238 84.525 69.4857C78.9336 68.0947 74.9371 64.058 70.5135 59.5895C63.3072 52.3104 54.9668 43.8857 36.75 43.8857Z" fill="url(#paint0_linear_260_141)"/>
</g>
<defs>
<linearGradient id="paint0_linear_260_141" x1="-408.333" y1="2808.69" x2="12256.6" y2="10146.6" gradientUnits="userSpaceOnUse">
<stop stop-color="#2298BD"/>
<stop offset="1" stop-color="#0ED7B5"/>
</linearGradient>
<clipPath id="clip0_260_141">
<rect width="147" height="88" fill="white"/>
</clipPath>
</defs>
</svg>
