<svg width="43" height="43" viewBox="0 0 43 43" fill="none" xmlns="http://www.w3.org/2000/svg">
<path d="M35.881 34.2841C35.4621 34.5714 35.2384 34.55 34.8888 34.2106C33.4919 32.8556 32.0864 31.5073 30.6328 30.2084C30.313 29.9225 29.785 29.71 29.3463 29.7007C27.1553 29.6526 24.9629 29.6699 22.7719 29.698C22.2454 29.7033 22.0557 29.555 22.0854 29.0539C22.1251 28.4112 22.1109 27.7644 22.0897 27.1203C22.0769 26.7141 22.1859 26.4949 22.6586 26.364C24.1915 25.9404 25.219 24.9809 25.672 23.5284C25.7979 23.1235 26.0159 23.0073 26.4264 23.0166C27.1326 23.034 27.8417 22.9886 28.5466 23.0166C30.4715 23.0968 32.3652 23.0687 34.0297 21.961C34.0637 21.9382 34.1203 21.9449 34.2562 21.9249C34.3652 22.1133 34.4685 22.2843 34.5619 22.4581C35.6645 24.5213 38.2588 25.3685 40.4668 24.3836C42.6351 23.4188 43.5891 20.9935 42.6238 18.9022C41.8708 17.268 40.0549 16.2778 38.0989 16.4328C36.2632 16.5784 34.685 17.8746 34.2463 19.5864C34.1642 19.9058 34.1528 20.3895 33.9363 20.5044C33.0205 20.9868 32.0737 21.5895 31.0758 21.7178C29.526 21.9169 27.9252 21.7792 26.3471 21.7418C26.1489 21.7365 25.8404 21.5093 25.7838 21.3276C25.2912 19.7735 24.2368 18.7526 22.6006 18.2942C22.159 18.1699 22.0727 17.9521 22.0783 17.5753C22.0939 16.5303 22.1222 15.4827 22.0684 14.4404C22.0345 13.8017 22.2369 13.6132 22.9276 13.6159C27.8757 13.64 32.8252 13.6253 37.7748 13.6199C38.7556 13.6186 38.9198 13.4582 38.9212 12.5269C38.924 11.3924 38.9495 10.2579 38.9056 9.1247C38.8844 8.5942 39.0443 8.34699 39.6077 8.1853C41.1929 7.73097 42.2332 6.70872 42.6252 5.18938C43.214 2.91236 41.8057 0.735572 39.4194 0.14093C37.1025 -0.437677 34.7374 0.813076 34.0297 3.01793C33.9094 3.39743 33.8032 3.63662 33.305 3.64331C30.9966 3.67671 28.6881 3.74085 26.3796 3.80633C25.9975 3.81702 25.8008 3.7168 25.6705 3.33997C25.0152 1.44647 23.3295 0.279902 21.3452 0.301283C19.3906 0.321327 17.7445 1.51462 17.1316 3.38941C17.0142 3.74754 16.8344 3.89319 16.4353 3.88517C15.47 3.86646 14.5033 3.87849 13.5366 3.88116C12.6647 3.8825 11.7886 3.84508 10.9238 3.91858C10.6705 3.94129 10.4483 4.28873 10.2133 4.48649C10.4299 4.71366 10.6266 4.96488 10.8757 5.15463C10.979 5.23481 11.1942 5.19071 11.3584 5.18938C13.0087 5.18537 14.659 5.19071 16.3079 5.15998C16.7424 5.1533 16.9774 5.2308 17.1246 5.66776C17.7615 7.56527 19.4288 8.71447 21.4471 8.70111C23.4343 8.68908 25.0747 7.52786 25.679 5.64905C25.8121 5.23214 26.0102 5.08915 26.4603 5.08114C28.7461 5.04239 31.032 4.98225 33.3164 4.91544C33.6985 4.90475 33.9052 4.99027 34.0311 5.37378C34.501 6.81161 35.5045 7.78442 37.0444 8.2147C37.4323 8.32294 37.5639 8.49398 37.5526 8.87081C37.5242 9.82625 37.5172 10.7844 37.5483 11.7398C37.5639 12.2249 37.353 12.3384 36.8845 12.3384C28.7999 12.3465 20.7153 12.3719 12.6322 12.3652C12.284 12.3638 11.8636 12.1647 11.6004 11.9336C10.57 11.0209 9.6132 10.0334 8.57857 9.12604C8.11008 8.71447 8.08885 8.4098 8.39033 7.88197C9.20841 6.44815 9.10933 4.9876 8.14971 3.64865C7.19434 2.31638 5.8087 1.66161 4.09044 1.79524C1.9504 1.9596 0.254794 3.5177 0.0297505 5.45396C-0.210862 7.52919 1.02475 9.36924 3.12941 9.98927C3.59223 10.1256 3.76774 10.2939 3.76349 10.763C3.74084 14.2319 3.74226 17.7023 3.74934 21.1712C3.75075 21.5547 3.65309 21.7619 3.22565 21.8915C1.19884 22.5062 0.00144317 24.0442 0.0042739 25.9644C0.00568927 27.8392 1.20734 29.3612 3.2214 29.9733C3.63328 30.0975 3.78047 30.2672 3.76915 30.6721C3.73943 31.7612 3.73377 32.8516 3.75641 33.9407C3.76491 34.4017 3.6446 34.6329 3.12091 34.7865C1.01626 35.4039 -0.208031 37.2479 0.0297505 39.3272C0.244886 41.2167 1.93625 42.7962 3.94041 42.9779C6.14272 43.1783 8.06479 42.0024 8.72152 40.0087C8.85881 39.5931 9.05413 39.4555 9.51271 39.4608C11.7518 39.4862 13.9909 39.4782 16.23 39.4809C16.4409 39.4809 16.6547 39.4875 16.8655 39.4675C17.2859 39.4287 17.6652 39.2377 17.5562 38.8127C17.4926 38.5709 17.1401 38.353 16.8655 38.2167C16.6787 38.1245 16.4041 38.19 16.1678 38.19C13.9768 38.1887 11.7844 38.1807 9.59339 38.194C9.13906 38.198 8.87155 38.1112 8.73001 37.6368C8.28983 36.1803 7.24954 35.2221 5.72802 34.7852C5.2015 34.6342 5.0911 34.403 5.10667 33.938C5.13923 32.9157 5.1463 31.8908 5.10667 30.8699C5.08686 30.3488 5.23689 30.0975 5.8002 29.9252C8.16811 29.1996 9.35844 27.0909 8.76398 24.8032C8.71869 24.6268 8.69321 24.2994 8.77672 24.2593C9.6868 23.8211 10.587 23.193 11.5551 23.0727C13.153 22.8736 14.7991 23.0193 16.4254 22.9992C16.8103 22.9939 17.0311 23.0861 17.143 23.4629C17.5846 24.9502 18.6263 25.9137 20.1704 26.3773C20.6205 26.5123 20.7352 26.7355 20.7238 27.151C20.6969 28.2174 20.6941 29.2864 20.7267 30.3528C20.7408 30.8044 20.5922 31.0115 20.1223 31.1612C18.6164 31.6396 17.5803 32.6084 17.1783 34.0716C16.5612 36.3125 17.8266 38.4412 20.1294 39.1414C22.3812 39.8256 24.7831 38.7365 25.6394 36.5972C25.8149 36.1615 26.0442 36.064 26.5056 36.0346C28.1177 35.9317 29.6392 36.1736 31.0956 36.843C31.6646 37.105 32.2633 37.3415 32.8776 37.4804C33.7339 37.6755 34.2349 38.0898 34.293 38.9477C34.3057 39.1361 34.4232 39.3258 34.518 39.5022C35.6984 41.6964 38.5518 42.5008 40.8037 41.2768C42.9267 40.1236 43.6273 37.419 42.3068 35.4613C40.9027 33.3768 37.9984 32.8289 35.881 34.2841ZM20.7281 14.3682C20.6743 15.4333 20.6885 16.5036 20.7182 17.57C20.7295 18.0002 20.5696 18.1806 20.1365 18.3169C18.605 18.802 17.5817 19.7935 17.1246 21.2594C17 21.659 16.7962 21.7806 16.3772 21.7766C14.9406 21.7605 13.5012 21.8113 12.066 21.7659C11.1107 21.7365 10.2529 21.9115 9.46034 22.418C9.13056 22.6291 8.75408 22.7747 8.41439 22.9752C8.06621 23.181 7.82842 23.1329 7.48449 22.8857C6.9325 22.4901 6.30832 22.1587 5.66716 21.9115C5.24679 21.7498 5.09252 21.5895 5.0996 21.1579C5.1279 19.4234 5.11092 17.6889 5.11092 15.9544H5.11517C5.11517 14.2199 5.12366 12.4854 5.10809 10.7523C5.10526 10.3688 5.1916 10.1015 5.63885 10.0414C5.73085 10.028 5.837 10.0107 5.90636 9.95988C6.79521 9.31713 7.40098 9.67926 8.05488 10.3714C8.96213 11.3336 9.99818 12.1834 10.9394 13.1188C11.3343 13.5117 11.7547 13.6493 12.3109 13.644C14.8557 13.6253 17.4006 13.652 19.9454 13.6173C20.5752 13.6079 20.7564 13.7789 20.7281 14.3682ZM34.024 36.5745C33.2074 36.2765 32.3355 36.0146 31.5174 35.6471C29.9506 34.9442 28.3244 34.6181 26.5934 34.7478C26.2707 34.7732 25.9423 34.7972 25.839 34.3536C25.4865 32.8235 24.5099 31.7893 22.9615 31.2294C22.8978 31.2066 22.8342 31.1706 22.7846 31.1265C22.7606 31.1051 22.7705 31.0516 22.7591 30.9661C24.9289 30.9661 27.093 30.9514 29.2571 30.9835C29.5133 30.9875 29.8091 31.2026 30.0129 31.391C31.3235 32.6057 32.5846 33.8685 33.9221 35.0538C34.484 35.5509 34.5732 35.9651 34.024 36.5745Z" fill="url(#paint0_linear_178_618)"/>
<defs>
<linearGradient id="paint0_linear_178_618" x1="21.5" y1="0" x2="21.5" y2="43" gradientUnits="userSpaceOnUse">
<stop stop-color="#4318FF"/>
<stop offset="1" stop-color="#67E9F0"/>
</linearGradient>
</defs>
</svg>
