<svg width="16" height="14" viewBox="0 0 16 14" fill="none" xmlns="http://www.w3.org/2000/svg">
<path d="M5.14868 13.2344C3.37264 13.2344 1.75285 12.7578 0.289307 11.8047C0.513265 11.8307 0.797119 11.8438 1.14087 11.8438C2.11483 11.8438 3.08618 11.5938 4.05493 11.0938C4.33618 10.9427 4.63566 10.7396 4.95337 10.4844C4.39087 10.4844 3.84399 10.3177 3.31274 9.98438C2.69816 9.60417 2.26327 9.04427 2.00806 8.30469C2.21639 8.33073 2.40389 8.34375 2.57056 8.34375H2.67993L3.04712 8.33594C3.28149 8.29427 3.39868 8.26562 3.39868 8.25C3.35181 8.25 3.20597 8.20312 2.96118 8.10938C2.62785 8.00521 2.26066 7.78125 1.85962 7.4375C1.23462 6.77604 0.922119 6.01042 0.922119 5.14062C1.42212 5.38542 1.88306 5.50781 2.30493 5.50781V5.49219C2.13827 5.39844 1.93254 5.20573 1.68774 4.91406C1.19295 4.29948 0.945557 3.60156 0.945557 2.82031C0.945557 2.33594 1.08097 1.83073 1.35181 1.30469C2.08097 2.13802 2.78149 2.76302 3.45337 3.17969C4.32316 3.72135 5.33618 4.14323 6.49243 4.44531C7.16431 4.54427 7.62004 4.59375 7.85962 4.59375C7.80754 4.33333 7.78149 4.09635 7.78149 3.88281C7.78149 3.01302 8.0966 2.26042 8.72681 1.625C9.36222 1.03125 10.1044 0.734375 10.9534 0.734375C11.7763 0.734375 12.5367 1.0599 13.2346 1.71094C13.3127 1.71094 13.5523 1.65104 13.9534 1.53125C14.4013 1.39062 14.8336 1.19792 15.2502 0.953125C15.12 1.33854 14.8883 1.73958 14.5549 2.15625C14.2476 2.4375 14.0263 2.60677 13.8909 2.66406V2.70312C14.2659 2.70312 14.8544 2.53646 15.6565 2.20312H15.6721C15.5159 2.45312 15.2815 2.7474 14.969 3.08594C14.5784 3.47656 14.2893 3.72656 14.1018 3.83594V4.38281C14.1018 5.27344 13.9247 6.22656 13.5706 7.24219C13.0393 8.72656 12.1721 10.013 10.969 11.1016C9.27108 12.5234 7.33097 13.2344 5.14868 13.2344Z" fill="#11181C" fill-opacity="0.38"/>
</svg>
