<svg width="16" height="12" viewBox="0 0 16 12" fill="none" xmlns="http://www.w3.org/2000/svg">
<path d="M8.12793 11.3281C7.27897 11.3281 5.93001 11.3073 4.08105 11.2656C3.28418 11.2292 2.80762 11.1901 2.65137 11.1484L2.03418 11.0703C1.47168 10.8776 1.07064 10.5625 0.831055 10.125C0.763346 9.94271 0.69043 9.6849 0.612305 9.35156C0.528971 9.14323 0.466471 8.72396 0.424805 8.09375C0.37793 7.41146 0.354492 6.47656 0.354492 5.28906C0.354492 4.5599 0.396159 3.73438 0.479492 2.8125C0.646159 2.125 0.818034 1.66146 0.995117 1.42188C1.32845 1.03646 1.72689 0.802083 2.19043 0.71875C2.45085 0.645833 3.46647 0.583333 5.2373 0.53125C6.2998 0.510417 7.24251 0.5 8.06543 0.5C11.2113 0.5 13.1514 0.572917 13.8857 0.71875C14.2139 0.760417 14.4977 0.880208 14.7373 1.07812C14.7894 1.08333 14.8883 1.15885 15.0342 1.30469C15.305 1.60677 15.5055 2.10938 15.6357 2.8125C15.7295 3.73438 15.7764 4.5599 15.7764 5.28906V6.54688C15.7764 8.11458 15.6514 9.20833 15.4014 9.82812C15.2764 10.1979 15.068 10.5026 14.7764 10.7422C14.5264 10.9453 14.2139 11.0781 13.8389 11.1406C13.5993 11.1875 12.6852 11.2422 11.0967 11.3047C9.88314 11.3203 8.89355 11.3281 8.12793 11.3281ZM6.47168 7.91406L10.6201 5.76562C10.6201 5.75521 10.3727 5.61719 9.87793 5.35156C7.65918 4.19531 6.52376 3.60417 6.47168 3.57812V7.91406Z" fill="#11181C" fill-opacity="0.38"/>
</svg>
